<svg xmlns="http://www.w3.org/2000/svg" width="32" height="21.76" viewBox="0 0 32 21.76"><g transform="translate(0 -81.92)"><g transform="translate(0 81.92)"><path d="M30.08,81.92H1.92A1.922,1.922,0,0,0,0,83.84v17.92a1.922,1.922,0,0,0,1.92,1.92H30.08A1.922,1.922,0,0,0,32,101.76V83.84A1.922,1.922,0,0,0,30.08,81.92Zm.64,19.84a.642.642,0,0,1-.64.64H1.92a.641.641,0,0,1-.64-.64V83.84a.64.64,0,0,1,.64-.64H30.08a.641.641,0,0,1,.64.64Z" transform="translate(0 -81.92)" fill="#0301ad"/></g><g transform="translate(0.64 87.68)"><rect width="30.72" height="2.56" fill="#0301ad"/></g><g transform="translate(0 87.04)"><path d="M31.36,163.84H.64a.64.64,0,0,0-.64.64v2.56a.64.64,0,0,0,.64.64H31.36a.64.64,0,0,0,.64-.64v-2.56A.64.64,0,0,0,31.36,163.84Zm-.64,2.56H1.28v-1.28H30.72Z" transform="translate(0 -163.84)" fill="#0301ad"/></g><g transform="translate(5.12 94.72)"><path d="M94.08,286.72H82.56a.64.64,0,1,0,0,1.28H94.08a.64.64,0,1,0,0-1.28Z" transform="translate(-81.92 -286.72)" fill="#0301ad"/></g><g transform="translate(5.12 97.28)"><path d="M88.96,327.68h-6.4a.64.64,0,1,0,0,1.28h6.4a.64.64,0,1,0,0-1.28Z" transform="translate(-81.92 -327.68)" fill="#0301ad"/></g></g></svg>