<svg xmlns="http://www.w3.org/2000/svg" width="86.2" height="86.2" viewBox="0 0 86.2 86.2">
  <g id="Group_317" data-name="Group 317" transform="translate(-260.5 -388.113)">
    <path id="Path_474" data-name="Path 474" d="M22.1,0H64.1A22.1,22.1,0,0,1,86.2,22.1V64.1A22.1,22.1,0,0,1,64.1,86.2H22.1A22.1,22.1,0,0,1,0,64.1V22.1A22.1,22.1,0,0,1,22.1,0Z" transform="translate(260.5 388.113)" fill="#0301ad"/>
    <g id="Group_214" data-name="Group 214" transform="translate(270.8 355.064)">
      <path id="Path_413" data-name="Path 413" d="M18.79,97.281V65.528A2.029,2.029,0,0,1,20.82,63.5h-2.79A2.029,2.029,0,0,0,16,65.528V97.281a2.029,2.029,0,0,0,2.029,2.028h2.79A2.029,2.029,0,0,1,18.79,97.281Z" transform="translate(-5.442 -5.442)" fill="#fafafa"/>
      <path id="Path_414" data-name="Path 414" d="M53.174,57.5H12.587A2.589,2.589,0,0,0,10,60.086V91.839a2.589,2.589,0,0,0,2.587,2.586H53.174a2.589,2.589,0,0,0,2.587-2.586V60.086A2.589,2.589,0,0,0,53.174,57.5ZM12.587,58.616H53.174a1.472,1.472,0,0,1,1.471,1.47v5.7H11.116v-5.7a1.472,1.472,0,0,1,1.471-1.47ZM53.174,93.309H12.587a1.472,1.472,0,0,1-1.471-1.47V66.9H54.645v24.94A1.472,1.472,0,0,1,53.174,93.309Z" transform="translate(0)" fill="#fafafa"/>
      <path id="Path_415" data-name="Path 415" d="M39.581,88.442a2.151,2.151,0,1,0-2.152-2.151A2.151,2.151,0,0,0,39.581,88.442Zm0-3.186a1.035,1.035,0,1,1-1.036,1.035,1.035,1.035,0,0,1,1.036-1.035Z" transform="translate(-24.878 -24.162)" fill="#fafafa"/>
      <path id="Path_416" data-name="Path 416" d="M100.724,88.442a2.151,2.151,0,1,0-2.153-2.152A2.151,2.151,0,0,0,100.724,88.442Zm0-3.186a1.035,1.035,0,1,1-1.036,1.035,1.035,1.035,0,0,1,1.036-1.035Z" transform="translate(-80.333 -24.162)" fill="#fafafa"/>
      <path id="Path_417" data-name="Path 417" d="M161.867,88.442a2.151,2.151,0,1,0-2.153-2.152A2.151,2.151,0,0,0,161.867,88.442Zm0-3.186a1.035,1.035,0,1,1-1.036,1.035A1.035,1.035,0,0,1,161.867,85.256Z" transform="translate(-135.789 -24.162)" fill="#fafafa"/>
      <path id="Path_418" data-name="Path 418" d="M267.7,101.242h18.283a.558.558,0,0,0,0-1.116H267.7a.558.558,0,0,0,0,1.116Z" transform="translate(-233.226 -38.661)" fill="#fafafa"/>
      <g id="Group_213" data-name="Group 213" transform="translate(13.435 68.907)">
        <path id="Path_419" data-name="Path 419" d="M410.787,184.69h-4.168a.558.558,0,0,0,0,1.116h4.168a.558.558,0,0,0,0-1.116Z" transform="translate(-372.658 -184.267)" fill="#fafafa"/>
        <path id="Path_420" data-name="Path 420" d="M294.271,185.248a.558.558,0,0,0-.558-.558h-9.064a.558.558,0,0,0,0,1.116h9.064A.558.558,0,0,0,294.271,185.248Z" transform="translate(-262.033 -184.267)" fill="#fafafa"/>
        <path id="Path_421" data-name="Path 421" d="M200.8,185.806h5.364a.558.558,0,0,0,0-1.116H200.8a.558.558,0,1,0,0,1.116Z" transform="translate(-185.985 -184.267)" fill="#fafafa"/>
        <path id="Path_422" data-name="Path 422" d="M385.918,239.44H379.1a.558.558,0,1,0,0,1.116h6.821a.558.558,0,1,0,0-1.116Z" transform="translate(-347.696 -233.925)" fill="#fafafa"/>
        <path id="Path_423" data-name="Path 423" d="M255.181,239.44H244.7a.558.558,0,0,0,0,1.116h10.477a.558.558,0,0,0,0-1.116Z" transform="translate(-225.803 -233.925)" fill="#fafafa"/>
        <path id="Path_424" data-name="Path 424" d="M200.8,240.556h2.038a.558.558,0,1,0,0-1.116H200.8a.558.558,0,1,0,0,1.116Z" transform="translate(-185.985 -233.925)" fill="#fafafa"/>
        <path id="Path_425" data-name="Path 425" d="M321.1,294.748a.558.558,0,0,0-.558-.558H307.119a.558.558,0,1,0,0,1.116h13.423A.558.558,0,0,0,321.1,294.748Z" transform="translate(-282.413 -283.583)" fill="#fafafa"/>
        <path id="Path_426" data-name="Path 426" d="M262.79,295.306a.558.558,0,1,0,0-1.116h-2.409a.558.558,0,0,0,0,1.116Z" transform="translate(-240.022 -283.583)" fill="#fafafa"/>
        <path id="Path_427" data-name="Path 427" d="M200.8,295.306h3.488a.558.558,0,0,0,0-1.116H200.8a.558.558,0,1,0,0,1.116Z" transform="translate(-185.985 -283.583)" fill="#fafafa"/>
        <path id="Path_428" data-name="Path 428" d="M402.995,348.94h-5.07a.558.558,0,0,0,0,1.116h5.07a.558.558,0,0,0,0-1.116Z" transform="translate(-364.773 -333.24)" fill="#fafafa"/>
        <path id="Path_429" data-name="Path 429" d="M349.643,348.94a.558.558,0,1,0,0,1.116h2.463a.558.558,0,0,0,0-1.116Z" transform="translate(-320.982 -333.24)" fill="#fafafa"/>
        <path id="Path_430" data-name="Path 430" d="M200.8,350.056h11.773a.558.558,0,1,0,0-1.116H200.8a.558.558,0,1,0,0,1.116Z" transform="translate(-185.985 -333.24)" fill="#fafafa"/>
        <path id="Path_431" data-name="Path 431" d="M88.159,403.69H50.8a.558.558,0,1,0,0,1.116H88.159a.558.558,0,1,0,0-1.116Z" transform="translate(-49.937 -382.898)" fill="#fafafa"/>
        <path id="Path_432" data-name="Path 432" d="M71.567,180.154a.557.557,0,0,0-.1-.009,3.02,3.02,0,0,0-3.017,3.017v5.651a3.02,3.02,0,0,0,3.017,3.017h.2a3.02,3.02,0,0,0,3.017-3.017v-5.65a3.02,3.02,0,0,0-3.017-3.017.561.561,0,0,0-.1.009Zm2,7.649h-4V183.72h4Zm-1.9,2.91h-.2a1.9,1.9,0,0,1-1.9-1.793h3.99A1.9,1.9,0,0,1,71.667,190.713Zm1.817-8.109H69.651a1.9,1.9,0,0,1,1.817-1.343.542.542,0,0,1,.2,0A1.9,1.9,0,0,1,73.484,182.6Z" transform="translate(-66.45 -180.145)" fill="#fafafa"/>
        <path id="Path_433" data-name="Path 433" d="M51.492,273.73v2.838H49.979a.558.558,0,0,0,0,1.116h4.1a.558.558,0,0,0,0-1.116H52.608v-2.849a5.058,5.058,0,0,0,2.742-1.226.558.558,0,1,0-.738-.838,3.953,3.953,0,0,1-6.564-2.983.558.558,0,0,0-1.116,0,5.086,5.086,0,0,0,4.56,5.058Z" transform="translate(-46.932 -259.932)" fill="#fafafa"/>
        <path id="Path_434" data-name="Path 434" d="M138.126,289.473a.558.558,0,0,0-.746.258c-.049.1-.1.2-.16.3a.558.558,0,0,0,.959.571c.073-.123.142-.251.2-.379A.558.558,0,0,0,138.126,289.473Z" transform="translate(-128.752 -279.253)" fill="#fafafa"/>
        <path id="Path_435" data-name="Path 435" d="M144.664,269.354a5.148,5.148,0,0,0,.045-.682.558.558,0,0,0-1.116,0,4.036,4.036,0,0,1-.035.535.558.558,0,0,0,.479.627.567.567,0,0,0,.074.005A.558.558,0,0,0,144.664,269.354Z" transform="translate(-134.566 -259.932)" fill="#fafafa"/>
      </g>
    </g>
  </g>
</svg>
