<svg xmlns="http://www.w3.org/2000/svg" width="86.2" height="86.2" viewBox="0 0 86.2 86.2">
  <g id="Group_321" data-name="Group 321" transform="translate(-260.5 -832.4)">
    <path id="Path_478" data-name="Path 478" d="M22.1,0H64.1A22.1,22.1,0,0,1,86.2,22.1V64.1A22.1,22.1,0,0,1,64.1,86.2H22.1A22.1,22.1,0,0,1,0,64.1V22.1A22.1,22.1,0,0,1,22.1,0Z" transform="translate(260.5 832.4)" fill="#0301ad"/>
    <g id="Group_217" data-name="Group 217" transform="translate(266 842.213)">
      <path id="Path_353" data-name="Path 353" d="M26.808,57.994V18.937A2.935,2.935,0,0,1,29.741,16H26.933A2.935,2.935,0,0,0,24,18.937V57.994a2.935,2.935,0,0,0,2.933,2.936h2.808A2.935,2.935,0,0,1,26.808,57.994Z" transform="translate(-5.438 -5.438)" fill="#fafafa"/>
      <g id="Group_207" data-name="Group 207" transform="translate(28.458 23.987)">
        <path id="Path_354" data-name="Path 354" d="M172.656,160.55h6.828a.562.562,0,1,0,0-1.123h-6.828a.562.562,0,0,0,0,1.123Z" transform="translate(-168.128 -159.427)" fill="#fafafa"/>
        <path id="Path_355" data-name="Path 355" d="M130.287,160.55h1.9a.562.562,0,1,0,0-1.123h-1.9a.562.562,0,1,0,0,1.123Z" transform="translate(-129.725 -159.427)" fill="#fafafa"/>
        <path id="Path_356" data-name="Path 356" d="M225.677,213.261h-2.058a.562.562,0,1,0,0,1.123h2.058a.562.562,0,1,0,0-1.123Z" transform="translate(-214.321 -208.222)" fill="#fafafa"/>
        <path id="Path_357" data-name="Path 357" d="M130.287,214.384h6.7a.562.562,0,0,0,0-1.123h-6.7a.562.562,0,1,0,0,1.123Z" transform="translate(-129.725 -208.222)" fill="#fafafa"/>
        <path id="Path_358" data-name="Path 358" d="M184.922,267.094h-6.267a.562.562,0,0,0,0,1.123h6.267a.562.562,0,0,0,0-1.123Z" transform="translate(-173.566 -257.016)" fill="#fafafa"/>
        <path id="Path_359" data-name="Path 359" d="M130.287,268.217h2.468a.562.562,0,1,0,0-1.123h-2.468a.562.562,0,1,0,0,1.123Z" transform="translate(-129.725 -257.016)" fill="#fafafa"/>
        <path id="Path_360" data-name="Path 360" d="M223.11,320.928h-2.323a.562.562,0,1,0,0,1.123h2.323a.562.562,0,1,0,0-1.123Z" transform="translate(-211.755 -305.811)" fill="#fafafa"/>
        <path id="Path_361" data-name="Path 361" d="M130.287,322.051h6.456a.562.562,0,0,0,0-1.123h-6.456a.562.562,0,1,0,0,1.123Z" transform="translate(-129.725 -305.811)" fill="#fafafa"/>
        <path id="Path_362" data-name="Path 362" d="M361.987,160.55h7.634a.562.562,0,0,0,0-1.123h-7.634a.562.562,0,0,0,0,1.123Z" transform="translate(-339.737 -159.427)" fill="#fafafa"/>
        <path id="Path_363" data-name="Path 363" d="M328.221,160.55h1.118a.562.562,0,0,0,0-1.123h-1.118a.562.562,0,1,0,0,1.123Z" transform="translate(-309.131 -159.427)" fill="#fafafa"/>
        <path id="Path_364" data-name="Path 364" d="M411.6,213.261h-3.3a.562.562,0,1,0,0,1.123h3.3a.562.562,0,0,0,0-1.123Z" transform="translate(-381.712 -208.222)" fill="#fafafa"/>
        <path id="Path_365" data-name="Path 365" d="M328.221,214.384h5.4a.562.562,0,0,0,0-1.123h-5.4a.562.562,0,1,0,0,1.123Z" transform="translate(-309.131 -208.222)" fill="#fafafa"/>
        <path id="Path_366" data-name="Path 366" d="M374.27,267.094h-7.153a.562.562,0,0,0,0,1.123h7.153a.562.562,0,0,0,0-1.123Z" transform="translate(-344.386 -257.016)" fill="#fafafa"/>
        <path id="Path_367" data-name="Path 367" d="M328.221,268.217h1.618a.562.562,0,1,0,0-1.123h-1.618a.562.562,0,1,0,0,1.123Z" transform="translate(-309.131 -257.016)" fill="#fafafa"/>
        <path id="Path_368" data-name="Path 368" d="M424.911,320.928h-1.924a.562.562,0,0,0,0,1.123h1.924a.562.562,0,0,0,0-1.123Z" transform="translate(-395.028 -305.811)" fill="#fafafa"/>
        <path id="Path_369" data-name="Path 369" d="M328.221,322.051h6.856a.562.562,0,1,0,0-1.123h-6.856a.562.562,0,1,0,0,1.123Z" transform="translate(-309.131 -305.811)" fill="#fafafa"/>
      </g>
      <path id="Path_370" data-name="Path 370" d="M40.674,56.054a3.5,3.5,0,0,0,3.494-3.492l.072-6.693-1.123-.012L43.1,47.408H19.123V17.393H22.89a.562.562,0,1,0,0-1.123H19.123V13.5a2.376,2.376,0,0,1,2.371-2.375h19.18A2.376,2.376,0,0,1,43.045,13.5l.013,2.768H28.338a.562.562,0,1,0,0,1.123H43.063l.026,5.592,1.123-.005-.029-6.149L44.169,13.5A3.5,3.5,0,0,0,40.674,10H21.494A3.5,3.5,0,0,0,18,13.5V52.556a3.5,3.5,0,0,0,3.494,3.5Zm-21.551-3.5V48.531H43.089l-.043,4.025a2.376,2.376,0,0,1-2.371,2.375H21.494a2.376,2.376,0,0,1-2.371-2.375Z" transform="translate(0)" fill="#fafafa"/>
      <path id="Path_371" data-name="Path 371" d="M84.372,76.977a.562.562,0,0,0,0,1.123h1.644a.562.562,0,0,0,0-1.123Z" transform="translate(-59.65 -60.708)" fill="#fafafa"/>
      <path id="Path_372" data-name="Path 372" d="M137.186,437.328a2.129,2.129,0,1,0-2.127-2.129A2.129,2.129,0,0,0,137.186,437.328Zm0-3.135a1.006,1.006,0,1,1-1,1.006,1.006,1.006,0,0,1,1-1.006Z" transform="translate(-106.102 -383.468)" fill="#fafafa"/>
      <path id="Path_373" data-name="Path 373" d="M95.4,141.044h14.336l1.518,1.48a.844.844,0,0,0,1.184,0l1.518-1.48h14.152a2.418,2.418,0,0,0,2.414-2.416V118.617a2.418,2.418,0,0,0-2.414-2.417H114.1a3.04,3.04,0,0,0-2.481,1.284,3.04,3.04,0,0,0-2.481-1.284H95.4a2.418,2.418,0,0,0-2.414,2.417v20.011a2.418,2.418,0,0,0,2.414,2.416Zm16.78-21.8a1.92,1.92,0,0,1,1.918-1.918h14.011a1.294,1.294,0,0,1,1.291,1.293v20.011a1.294,1.294,0,0,1-1.291,1.293H113.844a.844.844,0,0,0-.592.241l-.858.836-.218-21.756Zm-18.071-.625a1.294,1.294,0,0,1,1.291-1.293h13.736a1.922,1.922,0,0,1,1.918,1.924l.217,21.725-.831-.81a.844.844,0,0,0-.592-.241H95.4a1.294,1.294,0,0,1-1.291-1.293Z" transform="translate(-67.966 -96.259)" fill="#fafafa"/>
    </g>
  </g>
</svg>
