<svg xmlns="http://www.w3.org/2000/svg" width="44.556" height="46.054" viewBox="0 0 44.556 46.054">
    <path data-name="Path 353" d="M26.808 57.994V18.937A2.935 2.935 0 0 1 29.741 16h-2.808A2.935 2.935 0 0 0 24 18.937v39.057a2.935 2.935 0 0 0 2.933 2.936h2.808a2.935 2.935 0 0 1-2.933-2.936z" transform="translate(-23.438 -15.438)" style="fill:#d9dcff"/>
    <g data-name="Group 207">
        <path data-name="Path 354" d="M172.656 160.55h6.828a.562.562 0 1 0 0-1.123h-6.828a.562.562 0 0 0 0 1.123z" transform="translate(-157.67 -145.44)" style="fill:#febe50"/>
        <path data-name="Path 355" d="M130.287 160.55h1.9a.562.562 0 1 0 0-1.123h-1.9a.562.562 0 1 0 0 1.123z" transform="translate(-119.267 -145.44)" style="fill:#febe50"/>
        <path data-name="Path 356" d="M225.677 213.261h-2.058a.562.562 0 1 0 0 1.123h2.058a.562.562 0 1 0 0-1.123z" transform="translate(-203.863 -194.235)" style="fill:#febe50"/>
        <path data-name="Path 357" d="M130.287 214.384h6.7a.562.562 0 0 0 0-1.123h-6.7a.562.562 0 1 0 0 1.123z" transform="translate(-119.267 -194.235)" style="fill:#febe50"/>
        <path data-name="Path 358" d="M184.922 267.094h-6.267a.562.562 0 0 0 0 1.123h6.267a.562.562 0 0 0 0-1.123z" transform="translate(-163.108 -243.029)" style="fill:#febe50"/>
        <path data-name="Path 359" d="M130.287 268.217h2.468a.562.562 0 1 0 0-1.123h-2.468a.562.562 0 1 0 0 1.123z" transform="translate(-119.267 -243.029)" style="fill:#febe50"/>
        <path data-name="Path 360" d="M223.11 320.928h-2.323a.562.562 0 1 0 0 1.123h2.323a.562.562 0 1 0 0-1.123z" transform="translate(-201.297 -291.824)" style="fill:#febe50"/>
        <path data-name="Path 361" d="M130.287 322.051h6.456a.562.562 0 0 0 0-1.123h-6.456a.562.562 0 1 0 0 1.123z" transform="translate(-119.267 -291.824)" style="fill:#febe50"/>
        <path data-name="Path 362" d="M361.987 160.55h7.634a.562.562 0 0 0 0-1.123h-7.634a.562.562 0 0 0 0 1.123z" transform="translate(-329.279 -145.44)" style="fill:#febe50"/>
        <path data-name="Path 363" d="M328.221 160.55h1.118a.562.562 0 0 0 0-1.123h-1.118a.562.562 0 1 0 0 1.123z" transform="translate(-298.673 -145.44)" style="fill:#febe50"/>
        <path data-name="Path 364" d="M411.6 213.261h-3.3a.562.562 0 1 0 0 1.123h3.3a.562.562 0 0 0 0-1.123z" transform="translate(-371.254 -194.235)" style="fill:#febe50"/>
        <path data-name="Path 365" d="M328.221 214.384h5.4a.562.562 0 0 0 0-1.123h-5.4a.562.562 0 1 0 0 1.123z" transform="translate(-298.673 -194.235)" style="fill:#febe50"/>
        <path data-name="Path 366" d="M374.27 267.094h-7.153a.562.562 0 0 0 0 1.123h7.153a.562.562 0 0 0 0-1.123z" transform="translate(-333.928 -243.029)" style="fill:#febe50"/>
        <path data-name="Path 367" d="M328.221 268.217h1.618a.562.562 0 1 0 0-1.123h-1.618a.562.562 0 1 0 0 1.123z" transform="translate(-298.673 -243.029)" style="fill:#febe50"/>
        <path data-name="Path 368" d="M424.911 320.928h-1.924a.562.562 0 0 0 0 1.123h1.924a.562.562 0 0 0 0-1.123z" transform="translate(-384.57 -291.824)" style="fill:#febe50"/>
        <path data-name="Path 369" d="M328.221 322.051h6.856a.562.562 0 1 0 0-1.123h-6.856a.562.562 0 1 0 0 1.123z" transform="translate(-298.673 -291.824)" style="fill:#febe50"/>
    </g>
    <path data-name="Path 370" d="M40.674 56.054a3.5 3.5 0 0 0 3.494-3.492l.072-6.693-1.123-.012-.017 1.551H19.123V17.393h3.767a.562.562 0 1 0 0-1.123h-3.767V13.5a2.376 2.376 0 0 1 2.371-2.375h19.18a2.376 2.376 0 0 1 2.371 2.375l.013 2.768h-14.72a.562.562 0 1 0 0 1.123h14.725l.026 5.592 1.123-.005-.029-6.149-.014-3.329a3.5 3.5 0 0 0-3.495-3.5h-19.18A3.5 3.5 0 0 0 18 13.5v39.056a3.5 3.5 0 0 0 3.494 3.5zm-21.551-3.5v-4.023h23.966l-.043 4.025a2.376 2.376 0 0 1-2.371 2.375H21.494a2.376 2.376 0 0 1-2.371-2.375z" transform="translate(-18 -10)" style="fill:#febe50"/>
    <path data-name="Path 371" d="M84.372 76.977a.562.562 0 0 0 0 1.123h1.644a.562.562 0 0 0 0-1.123z" transform="translate(-77.65 -70.708)" style="fill:#0301ad"/>
    <path data-name="Path 372" d="M137.186 437.328a2.129 2.129 0 1 0-2.127-2.129 2.129 2.129 0 0 0 2.127 2.129zm0-3.135a1.006 1.006 0 1 1-1 1.006 1.006 1.006 0 0 1 1-1.006z" transform="translate(-124.102 -393.468)" style="fill:#febe50"/>
    <path data-name="Path 373" d="M95.4 141.044h14.336l1.518 1.48a.844.844 0 0 0 1.184 0l1.518-1.48h14.152a2.418 2.418 0 0 0 2.414-2.416v-20.011a2.418 2.418 0 0 0-2.414-2.417H114.1a3.04 3.04 0 0 0-2.481 1.284 3.04 3.04 0 0 0-2.481-1.284H95.4a2.418 2.418 0 0 0-2.414 2.417v20.011a2.418 2.418 0 0 0 2.414 2.416zm16.78-21.8a1.92 1.92 0 0 1 1.918-1.918h14.011a1.294 1.294 0 0 1 1.291 1.293v20.011a1.294 1.294 0 0 1-1.291 1.293h-14.265a.844.844 0 0 0-.592.241l-.858.836-.218-21.756zm-18.071-.625a1.294 1.294 0 0 1 1.291-1.293h13.736a1.922 1.922 0 0 1 1.918 1.924l.217 21.725-.831-.81a.844.844 0 0 0-.592-.241H95.4a1.294 1.294 0 0 1-1.291-1.293z" transform="translate(-85.966 -106.259)" style="fill:#0301ad"/>
</svg>
