<svg id="star_broken" data-name="star/broken" xmlns="http://www.w3.org/2000/svg" width="24" height="24" viewBox="0 0 24 24">
  <g id="vuesax_broken_star" data-name="vuesax/broken/star">
    <g id="star">
      <path id="Vector" d="M18.1,6.532c2.04.34,2.52,1.82,1.05,3.28l-2.48,2.48a2.171,2.171,0,0,0-.52,1.81l.71,3.07c.56,2.43-.73,3.37-2.88,2.1l-2.99-1.77a2.162,2.162,0,0,0-1.98,0l-2.99,1.77c-2.14,1.27-3.44.32-2.88-2.1l.71-3.07a2.171,2.171,0,0,0-.52-1.81L.849,9.813c-1.46-1.46-.99-2.94,1.05-3.28L5.089,6A2.178,2.178,0,0,0,6.5,4.953l1.76-3.52c.95-1.91,2.51-1.91,3.47,0l1.76,3.52a1.8,1.8,0,0,0,.49.59" transform="translate(2.001 2.078)" fill="none" stroke="#bcc0cf" stroke-linecap="round" stroke-linejoin="round" stroke-width="1.5"/>
      <path id="Vector-2" data-name="Vector" d="M0,0H24V24H0Z" fill="none" opacity="0"/>
    </g>
  </g>
</svg>
