<svg id="direct-normal_broken" data-name="direct-normal/broken" xmlns="http://www.w3.org/2000/svg" width="24" height="24" viewBox="0 0 24 24">
  <g id="vuesax_broken_direct-normal" data-name="vuesax/broken/direct-normal">
    <g id="direct-normal">
      <path id="Vector" d="M.69,17.01C1.65,19.1,3.65,20,7,20h6c5,0,7-2,7-7V7c0-5-2-7-7-7H7C2,0,0,2,0,7v6" transform="translate(2 2)" fill="none" stroke="#bcc0cf" stroke-linecap="round" stroke-linejoin="round" stroke-width="1.5"/>
      <path id="Vector-2" data-name="Vector" d="M0,0H24V24H0Z" fill="none" opacity="0"/>
      <path id="Vector-3" data-name="Vector" d="M0,.01H3.76A2,2,0,0,1,5.55,1.12l.89,1.79a1.919,1.919,0,0,0,1.8,1.1h3.53A2,2,0,0,0,13.56,2.9l.89-1.79A2,2,0,0,1,16.24,0h3.74" transform="translate(2 12.99)" fill="none" stroke="#bcc0cf" stroke-linecap="round" stroke-linejoin="round" stroke-width="1.5"/>
    </g>
  </g>
</svg>
