<svg id="calendar_bold" data-name="calendar/bold" xmlns="http://www.w3.org/2000/svg" width="11.6" height="11.6" viewBox="0 0 11.6 11.6">
  <g id="vuesax_bold_calendar" data-name="vuesax/bold/calendar">
    <g id="calendar">
      <path id="Vector" d="M0,0H11.6V11.6H0Z" fill="none" opacity="0"/>
      <path id="Vector-2" data-name="Vector" d="M6.627,1.117V.363a.363.363,0,0,0-.725,0v.725H2.76V.363a.363.363,0,1,0-.725,0v.754A2.053,2.053,0,0,0,0,3.171a.243.243,0,0,0,.242.256H8.42a.24.24,0,0,0,.242-.256A2.053,2.053,0,0,0,6.627,1.117Z" transform="translate(1.469 0.604)" fill="#febe50"/>
      <path id="Vector-3" data-name="Vector" d="M8.217,0H.483A.485.485,0,0,0,0,.483V3.461A2.168,2.168,0,0,0,2.417,5.877H6.283A2.168,2.168,0,0,0,8.7,3.461V.483A.485.485,0,0,0,8.217,0ZM3,4.046a.762.762,0,0,1-.072.058.366.366,0,0,1-.087.043.307.307,0,0,1-.087.029.655.655,0,0,1-.1.01.481.481,0,0,1-.184-.039.5.5,0,0,1-.16-.1.49.49,0,0,1,0-.686.5.5,0,0,1,.16-.1.462.462,0,0,1,.28-.029.307.307,0,0,1,.087.029.366.366,0,0,1,.087.043L3,3.359a.49.49,0,0,1,0,.686ZM3,2.354a.49.49,0,0,1-.686,0,.49.49,0,0,1,0-.686.483.483,0,0,1,.527-.1.451.451,0,0,1,.16.1.49.49,0,0,1,0,.686ZM4.693,4.046a.485.485,0,0,1-.686-.686.485.485,0,0,1,.686.686Zm0-1.692-.072.058a.366.366,0,0,1-.087.044.307.307,0,0,1-.087.029.655.655,0,0,1-.1.01.479.479,0,0,1-.483-.483.508.508,0,0,1,.14-.343.451.451,0,0,1,.16-.1.483.483,0,0,1,.527.1.49.49,0,0,1,0,.686ZM6.385,4.046A.485.485,0,0,1,5.7,3.359a.485.485,0,0,1,.686.686Zm0-1.692-.072.058a.366.366,0,0,1-.087.044.307.307,0,0,1-.087.029.726.726,0,0,1-.1.01.479.479,0,0,1-.483-.483.508.508,0,0,1,.14-.343.5.5,0,0,1,.16-.1.462.462,0,0,1,.28-.029.307.307,0,0,1,.087.029.366.366,0,0,1,.087.043l.072.058a.49.49,0,0,1,0,.686Z" transform="translate(1.45 4.756)" fill="#febe50"/>
    </g>
  </g>
</svg>
