<svg xmlns="http://www.w3.org/2000/svg" width="36.88" height="46.054" viewBox="0 0 36.88 46.054">
    <path data-name="Path 390" d="M139.3 50.863V14.182A4.182 4.182 0 0 1 143.484 10h-2.752a4.182 4.182 0 0 0-4.182 4.182v36.681a4.182 4.182 0 0 0 4.182 4.181h2.753a4.182 4.182 0 0 1-4.182-4.182z" transform="translate(-129.069 -9.541)" style="fill:#d9dcff"/>
    <path data-name="Path 391" d="M152.013 5h-16.727a4.737 4.737 0 0 0-4.732 4.732V30.08h1.1V12.373h17.117a.55.55 0 0 0 0-1.1h-17.116V9.732a3.635 3.635 0 0 1 3.631-3.632h16.727a3.635 3.635 0 0 1 3.631 3.631v1.54H154.1a.55.55 0 0 0 0 1.1h1.54v2.054h1.1v-4.7A4.737 4.737 0 0 0 152.013 5z" transform="translate(-123.623 -5)" style="fill:#0301ad"/>
    <path data-name="Path 392" d="M155.644 243.047h-23.989v-1.509h-1.1v5.405a4.737 4.737 0 0 0 4.732 4.732h16.727a4.737 4.737 0 0 0 4.732-4.732v-21.058h-1.1zm-3.631 7.527h-16.727a3.635 3.635 0 0 1-3.631-3.631v-2.795h23.989v2.795a3.635 3.635 0 0 1-3.631 3.631z" transform="translate(-123.623 -205.621)" style="fill:#0301ad"/>
    <path data-name="Path 393" d="M347.29 74.473a.55.55 0 1 0 0-1.1h-1.162a.55.55 0 1 0 0 1.1z" transform="translate(-318.92 -67.099)" style="fill:#0301ad"/>
    <path data-name="Path 394" d="M252.324 436.883a2.119 2.119 0 1 0 2.118 2.117 2.119 2.119 0 0 0-2.118-2.117zm0 3.136a1.018 1.018 0 1 1 1.017-1.019 1.018 1.018 0 0 1-1.017 1.019z" transform="translate(-232.297 -397.262)" style="fill:#0301ad"/>
    <g data-name="Group 211">
        <path data-name="Path 395" d="M309.756 289.252A2.752 2.752 0 1 0 307 292a2.752 2.752 0 0 0 2.756-2.748zm-4.4 0A1.651 1.651 0 1 1 307 290.9a1.651 1.651 0 0 1-1.648-1.648z" transform="translate(-281.384 -260.675)" style="fill:#febe50"/>
        <path data-name="Path 396" d="M292.471 350.5a4.225 4.225 0 0 0-4.22 4.22.55.55 0 0 0 .55.55h7.339a.55.55 0 0 0 .55-.55 4.225 4.225 0 0 0-4.219-4.22zm-3.071 3.67a3.119 3.119 0 0 1 6.141 0z" transform="translate(-266.852 -318.804)" style="fill:#febe50"/>
        <path data-name="Path 397" d="M172.5 121.389a2.752 2.752 0 1 0-2.752-2.752 2.752 2.752 0 0 0 2.752 2.752zm0-4.4a1.651 1.651 0 1 1-1.651 1.651 1.651 1.651 0 0 1 1.651-1.654z" transform="translate(-159.222 -105.713)" style="fill:#febe50"/>
        <path data-name="Path 398" d="M154.3 184.656h7.339a.55.55 0 0 0 .55-.55 4.22 4.22 0 0 0-8.44 0 .55.55 0 0 0 .551.55zm3.67-3.67a3.124 3.124 0 0 1 3.071 2.569H154.9a3.124 3.124 0 0 1 3.069-2.569z" transform="translate(-144.69 -163.841)" style="fill:#febe50"/>
        <path data-name="Path 399" d="M74.016 279.406a2.605 2.605 0 0 0-.444-.064c-1.047-.1-1.579-.305-1.579-1.166v-3.919a1.877 1.877 0 0 0-1.875-1.875H56.875A1.877 1.877 0 0 0 55 274.257v8.188a1.877 1.877 0 0 0 1.875 1.875h13.244a1.877 1.877 0 0 0 1.875-1.875v-.466a3.1 3.1 0 0 0 2.4-1.773.556.556 0 0 0 .054-.331.568.568 0 0 0-.432-.469zm-2.3 1.5a1 1 0 0 0-.824 1v.539a.775.775 0 0 1-.774.774H56.875a.775.775 0 0 1-.774-.774v-8.188a.775.775 0 0 1 .774-.774h13.244a.775.775 0 0 1 .774.774v3.919a2.131 2.131 0 0 0 2.039 2.2 2.478 2.478 0 0 1-1.215.534z" transform="translate(-55 -247.852)" style="fill:#febe50"/>
        <path data-name="Path 400" d="M262.576 101.765h-13.244a1.877 1.877 0 0 0-1.875 1.875v3.919c0 .861-.532 1.068-1.579 1.166a2.612 2.612 0 0 0-.444.064.568.568 0 0 0-.427.467.556.556 0 0 0 .054.331 3.1 3.1 0 0 0 2.4 1.773v.466a1.877 1.877 0 0 0 1.875 1.875h13.244a1.877 1.877 0 0 0 1.875-1.875v-8.186a1.877 1.877 0 0 0-1.879-1.875zm.774 10.062a.775.775 0 0 1-.774.774h-13.244a.775.775 0 0 1-.774-.774v-.539a1 1 0 0 0-.824-1 2.482 2.482 0 0 1-1.215-.538 2.131 2.131 0 0 0 2.039-2.2v-3.91a.775.775 0 0 1 .774-.774h13.244a.775.775 0 0 1 .774.774z" transform="translate(-227.571 -92.888)" style="fill:#febe50"/>
        <path data-name="Path 401" d="M345.842 195.885H339.2a.55.55 0 1 0 0 1.1h6.637a.55.55 0 1 0 0-1.1z" transform="translate(-312.631 -178.373)" style="fill:#febe50"/>
        <path data-name="Path 402" d="M306.488 195.885h-.938a.55.55 0 0 0 0 1.1h.938a.55.55 0 1 0 0-1.1z" transform="translate(-282.065 -178.373)" style="fill:#febe50"/>
        <path data-name="Path 403" d="M401.774 162.97h-.988a.55.55 0 1 0 0 1.1h.988a.55.55 0 0 0 0-1.1z" transform="translate(-368.564 -148.478)" style="fill:#febe50"/>
        <path data-name="Path 404" d="M305.55 164.071h6.55a.55.55 0 1 0 0-1.1h-6.55a.55.55 0 1 0 0 1.1z" transform="translate(-282.065 -148.478)" style="fill:#febe50"/>
        <path data-name="Path 405" d="M357.019 130.056h-5.509a.55.55 0 0 0 0 1.1h5.508a.55.55 0 1 0 0-1.1z" transform="translate(-323.808 -118.584)" style="fill:#febe50"/>
        <path data-name="Path 406" d="M305.55 131.157h2.081a.55.55 0 0 0 0-1.1h-2.081a.55.55 0 1 0 0 1.1z" transform="translate(-282.065 -118.584)" style="fill:#febe50"/>
        <path data-name="Path 407" d="M129.839 364.356H123.2a.55.55 0 1 0 0 1.1h6.637a.55.55 0 1 0 0-1.1z" transform="translate(-116.445 -331.389)" style="fill:#febe50"/>
        <path data-name="Path 408" d="M90.488 364.356h-.938a.55.55 0 1 0 0 1.1h.937a.55.55 0 1 0 0-1.1z" transform="translate(-85.881 -331.389)" style="fill:#febe50"/>
        <path data-name="Path 409" d="M185.772 331.442h-.988a.55.55 0 1 0 0 1.1h.988a.55.55 0 0 0 0-1.1z" transform="translate(-172.378 -301.494)" style="fill:#febe50"/>
        <path data-name="Path 410" d="M89.55 332.543h6.55a.55.55 0 0 0 0-1.1h-6.55a.55.55 0 0 0 0 1.1z" transform="translate(-85.881 -301.494)" style="fill:#febe50"/>
        <path data-name="Path 411" d="M141.017 298.528h-5.508a.55.55 0 0 0 0 1.1h5.508a.55.55 0 0 0 0-1.1z" transform="translate(-127.623 -271.6)" style="fill:#febe50"/>
        <path data-name="Path 412" d="M89.55 299.629h2.081a.55.55 0 0 0 0-1.1H89.55a.55.55 0 1 0 0 1.1z" transform="translate(-85.881 -271.6)" style="fill:#febe50"/>
    </g>
</svg>
