<?xml version="1.0" encoding="UTF-8" standalone="no"?>
<svg
   width="32"
   height="21.76"
   viewBox="0 0 32 21.76"
   version="1.1"
   id="svg24"
   sodipodi:docname="3dff080a6792b97103fbeed8ef9b902c.svg"
   xmlns:inkscape="http://www.inkscape.org/namespaces/inkscape"
   xmlns:sodipodi="http://sodipodi.sourceforge.net/DTD/sodipodi-0.dtd"
   xmlns="http://www.w3.org/2000/svg"
   xmlns:svg="http://www.w3.org/2000/svg">
  <defs
     id="defs28" />
  <sodipodi:namedview
     id="namedview26"
     pagecolor="#ffffff"
     bordercolor="#666666"
     borderopacity="1.0"
     inkscape:pageshadow="2"
     inkscape:pageopacity="0.0"
     inkscape:pagecheckerboard="0" />
  <g
     transform="translate(0,-81.92)"
     id="g22">
    <g
       transform="translate(0,81.92)"
       id="g4">
      <path
         d="M 30.08,81.92 H 1.92 A 1.922,1.922 0 0 0 0,83.84 v 17.92 a 1.922,1.922 0 0 0 1.92,1.92 H 30.08 A 1.922,1.922 0 0 0 32,101.76 V 83.84 a 1.922,1.922 0 0 0 -1.92,-1.92 z m 0.64,19.84 a 0.642,0.642 0 0 1 -0.64,0.64 H 1.92 A 0.641,0.641 0 0 1 1.28,101.76 V 83.84 A 0.64,0.64 0 0 1 1.92,83.2 h 28.16 a 0.641,0.641 0 0 1 0.64,0.64 z"
         transform="translate(0,-81.92)"
         fill="#0301ad"
         id="path2" />
    </g>
    <g
       transform="translate(0.64,87.68)"
       id="g8">
      <rect
         width="30.719999"
         height="2.5599999"
         fill="#0301ad"
         id="rect6"
         x="0"
         y="0" />
    </g>
    <g
       transform="translate(0,87.04)"
       id="g12">
      <path
         d="M 31.36,163.84 H 0.64 A 0.64,0.64 0 0 0 0,164.48 v 2.56 a 0.64,0.64 0 0 0 0.64,0.64 H 31.36 A 0.64,0.64 0 0 0 32,167.04 v -2.56 a 0.64,0.64 0 0 0 -0.64,-0.64 z m -0.64,2.56 H 1.28 v -1.28 h 29.44 z"
         transform="translate(0,-163.84)"
         fill="#0301ad"
         id="path10" />
    </g>
    <g
       transform="translate(5.12,94.72)"
       id="g16">
      <path
         d="M 94.08,286.72 H 82.56 a 0.64,0.64 0 1 0 0,1.28 h 11.52 a 0.64,0.64 0 1 0 0,-1.28 z"
         transform="translate(-81.92,-286.72)"
         fill="#0301ad"
         id="path14" />
    </g>
    <g
       transform="translate(5.12,97.28)"
       id="g20">
      <path
         d="m 88.96,327.68 h -6.4 a 0.64,0.64 0 1 0 0,1.28 h 6.4 a 0.64,0.64 0 1 0 0,-1.28 z"
         transform="translate(-81.92,-327.68)"
         fill="#0301ad"
         id="path18" />
    </g>
  </g>
</svg>
