<svg id="edit_broken" data-name="edit/broken" xmlns="http://www.w3.org/2000/svg" width="24" height="24" viewBox="0 0 24 24">
  <g id="vuesax_broken_edit" data-name="vuesax/broken/edit">
    <g id="edit">
      <path id="Vector" d="M20,0V2c0,5-2,7-7,7H7C2,9,0,7,0,2V.48" transform="translate(2 13)" fill="none" stroke="#292d32" stroke-linecap="round" stroke-linejoin="round" stroke-width="1.5"/>
      <path id="Vector-2" data-name="Vector" d="M9,0H7C2,0,0,2,0,7" transform="translate(2 2)" fill="none" stroke="#292d32" stroke-linecap="round" stroke-linejoin="round" stroke-width="1.5"/>
      <path id="Vector-3" data-name="Vector" d="M12.881,7.261l1.05-1.05c1.36-1.36,2-2.94,0-4.94s-3.58-1.36-4.94,0l-7.88,7.88a2.712,2.712,0,0,0-.66,1.32l-.43,3.01a1.424,1.424,0,0,0,1.7,1.7l3.01-.43a2.8,2.8,0,0,0,1.32-.66l3.18-3.18.73-.73" transform="translate(7.049 1.749)" fill="none" stroke="#292d32" stroke-linecap="round" stroke-linejoin="round" stroke-width="1.5"/>
      <path id="Vector-4" data-name="Vector" d="M0,0A7.144,7.144,0,0,0,4.94,4.94" transform="translate(14.91 4.15)" fill="none" stroke="#292d32" stroke-linecap="round" stroke-linejoin="round" stroke-width="1.5"/>
      <path id="Vector-5" data-name="Vector" d="M0,0H24V24H0Z" fill="none" opacity="0"/>
    </g>
  </g>
</svg>
