<svg id="vuesax_broken_edit-2" data-name="vuesax/broken/edit-2" xmlns="http://www.w3.org/2000/svg" width="24" height="24" viewBox="0 0 24 24">
  <g id="edit-2">
    <path id="Vector" d="M13.373,8.007l1.34-1.42c1.42-1.5,2.06-3.21-.15-5.3s-3.88-1.35-5.3.15l-8.21,8.69a3.05,3.05,0,0,0-.67,1.43L.013,14.8a1.527,1.527,0,0,0,1.87,1.77l3.22-.55a2.871,2.871,0,0,0,1.39-.75l3.95-4.18" transform="translate(3.997 2.163)" fill="none" stroke="#0301ad" stroke-linecap="round" stroke-linejoin="round" stroke-width="1.5"/>
    <path id="Vector-2" data-name="Vector" d="M0,0A6.126,6.126,0,0,0,5.45,5.15" transform="translate(11.89 5.05)" fill="none" stroke="#0301ad" stroke-linecap="round" stroke-linejoin="round" stroke-width="1.5"/>
    <path id="Vector-3" data-name="Vector" d="M0,0H11" transform="translate(3 22)" fill="none" stroke="#0301ad" stroke-linecap="round" stroke-linejoin="round" stroke-width="1.5"/>
    <path id="Vector-4" data-name="Vector" d="M0,0H3" transform="translate(18 22)" fill="none" stroke="#0301ad" stroke-linecap="round" stroke-linejoin="round" stroke-width="1.5"/>
    <path id="Vector-5" data-name="Vector" d="M0,0H24V24H0Z" fill="none" opacity="0"/>
  </g>
</svg>
