<svg xmlns="http://www.w3.org/2000/svg" width="46.134" height="46.134" viewBox="0 0 46.134 46.134"><g transform="translate(0.103)"><g transform="translate(-0.103)"><g transform="translate(0)"><path d="M22.358,227.725a3.157,3.157,0,0,0-4.459,0,1.17,1.17,0,0,1-1.656,0l-5.478-5.478a1.173,1.173,0,0,1,0-1.656,3.151,3.151,0,0,0,0-4.459l-3.695-3.695a3.151,3.151,0,0,0-4.459,0,9.218,9.218,0,0,0-.971,11.923,53.92,53.92,0,0,0,12.488,12.49,9.219,9.219,0,0,0,11.925-.97,3.157,3.157,0,0,0,0-4.459Zm2.676,7.135a7.782,7.782,0,0,1-10.067.817A52.488,52.488,0,0,1,2.811,223.52a7.781,7.781,0,0,1,.818-10.065,1.711,1.711,0,0,1,2.421,0l3.695,3.695a1.711,1.711,0,0,1,0,2.421,2.615,2.615,0,0,0,0,3.695l5.478,5.478a2.611,2.611,0,0,0,3.695,0,1.713,1.713,0,0,1,2.421,0l3.695,3.694a1.714,1.714,0,0,1,0,2.421Z" transform="translate(0.103 -192.457)" fill="#0301ad"/><path d="M112.432,0H86.486A6.494,6.494,0,0,0,80,6.486V18.018h1.441V6.486a5.051,5.051,0,0,1,5.045-5.045h25.945a5.051,5.051,0,0,1,5.045,5.045V23.063h-2.883V24.5h2.83a5,5,0,0,1-.435,1.441h-8.161v1.441h7.129a5.027,5.027,0,0,1-3.526,1.441h-6.486v.721a5.054,5.054,0,0,1-4.035,4.943,2.681,2.681,0,0,0-.146-2.616l-1.905-3.049H86.486V30.27H99.06l1.482,2.371a1.276,1.276,0,0,1-1.083,1.953v1.441H100.9a6.5,6.5,0,0,0,6.447-5.766h5.085a6.494,6.494,0,0,0,6.486-6.486V6.486A6.494,6.494,0,0,0,112.432,0Z" transform="translate(-72.784)" fill="#0301ad"/><path d="M182.486,48v6.486H176v8.648h6.486v6.486h8.648V63.135h6.486V54.486h-6.486V48Zm13.693,7.928v5.766h-6.486V68.18h-5.766V61.693h-6.486V55.928h6.486V49.441h5.766v6.486Z" transform="translate(-160.135 -43.676)" fill="#febe50"/><path d="M432,256h1.441v1.441H432Z" transform="translate(-393.073 -232.937)" fill="#0301ad"/></g></g></g></svg>