<svg xmlns="http://www.w3.org/2000/svg" width="24" height="24" viewBox="0 0 24 24">
    <path d="M2.847 4.65 2.2 3.711a1.392 1.392 0 0 1 .408-2.064c.742-.519 2.845.876 2.845.876A1.544 1.544 0 0 1 5.777.3a1.657 1.657 0 0 1 2.307.407l6.955 9.825-.886 8.593-7.4-2.7L.3 6.861a1.665 1.665 0 0 1 .41-2.322 1.854 1.854 0 0 1 2.137.111z" transform="translate(2.534 1.538)" style="fill:#ffcd4c"/>
    <path data-name="Vector" d="M.6 8.678a1.307 1.307 0 0 1 1.855.346l3.5 5.111a6.85 6.85 0 0 1 .4-.6L1.5 6.446a1.307 1.307 0 0 1 .342-1.856 1.307 1.307 0 0 1 1.858.346l4.575 6.672c.17-.139.344-.278.524-.415l-5.3-7.736a1.307 1.307 0 0 1 .34-1.857 1.307 1.307 0 0 1 1.855.346L11 9.682c.195-.119.388-.223.581-.332L6.622 2.12A1.307 1.307 0 0 1 6.968.265 1.307 1.307 0 0 1 8.823.61l5.242 7.645.8 1.163a6.689 6.689 0 0 0-1.73 9.279.654.654 0 0 0 .928.174 6.306 6.306 0 0 1 1.73-9.279l-.974-4.874a1.335 1.335 0 1 1 2.568-.728l1.125 3.34a29.658 29.658 0 0 0 1.548 3.892 8.01 8.01 0 0 1-13.768 8.121L.253 10.535A1.307 1.307 0 0 1 .6 8.678z" transform="translate(1.546 1.008)" style="fill:#ffea7d"/>
    <path data-name="Vector" d="M1.335.667A.644.644 0 0 0 .7 0a.691.691 0 0 0-.7.667 6.35 6.35 0 0 0 6.7 6.7.691.691 0 0 0 .667-.7.644.644 0 0 0-.667-.632A5.8 5.8 0 0 1 1.335.667z" transform="translate(1.307 15.323)" style="fill:#a3ccde"/>
    <path data-name="Vector" d="M0 18.021a.667.667 0 0 1 1.335 0 3.153 3.153 0 0 0 3.337 3.337.668.668 0 1 1 0 1.336A4.563 4.563 0 0 1 0 18.021zM21.358 6.674a5.531 5.531 0 0 0-5.339-5.34.667.667 0 1 1 0-1.335 6.483 6.483 0 0 1 6.674 6.674.668.668 0 1 1-1.336 0z" transform="translate(0 1.307)" style="fill:#a3ccde"/>
    <path data-name="Vector" d="M0 .639a.692.692 0 0 0 .667.7 3.2 3.2 0 0 1 3.31 3.305.692.692 0 0 0 .7.667.644.644 0 0 0 .639-.667A4.581 4.581 0 0 0 .667 0 .644.644 0 0 0 0 .639z" transform="translate(18.688)" style="fill:#a3ccde"/>
</svg>
