<svg xmlns="http://www.w3.org/2000/svg" width="16.25" height="24" viewBox="0 0 16.25 24">
  <g id="Emoji" transform="translate(0 0)">
    <path id="Vector" d="M13.853,2.578l-.29-.983L7.756,1.555l-.223.791a2.312,2.312,0,0,0-1.01.52L3.906,0A1.692,1.692,0,0,0,2.9,1.546v.7L0,5.262.012,6.848l7.237,7.777S14.872,3.543,14.89,3.565a3.39,3.39,0,0,0-.4-.526h0A2.553,2.553,0,0,0,13.853,2.578Z" transform="translate(0.004 8.65)" fill="#ef9645"/>
    <g id="Group">
      <path id="Vector-2" data-name="Vector" d="M3.624,13.852V9.5a1.449,1.449,0,0,1,2.9,0v2.014c-.044.04-.078.089-.12.131l-.04.045A2.136,2.136,0,0,0,5.8,13.127c0,.046.009.089.013.134a2.166,2.166,0,0,0,.528,1.286,1.462,1.462,0,0,1-.188.256,1.428,1.428,0,0,1-1.077.5A1.45,1.45,0,0,1,3.624,13.852ZM1.389,15.3A1.389,1.389,0,0,1,0,13.912V10.893A1.389,1.389,0,0,1,1.389,9.5H1.51A1.389,1.389,0,0,1,2.9,10.893v3.019A1.389,1.389,0,0,1,1.51,15.3Zm11.354-4.349H7.973a2.219,2.219,0,0,0-.44.044l-.053-.2L5.108,1.761a1.45,1.45,0,0,1,2.836-.6l2.245,8.385c.323.018.636.046.946.078L12.628,2a1.45,1.45,0,0,1,2.887.272l-1.5,8.09-.16.866A2.462,2.462,0,0,0,12.743,10.953Z" fill="#ffcd4c"/>
      <path id="Vector-3" data-name="Vector" d="M3.26,3.391a2.144,2.144,0,0,0,.312.36,2.174,2.174,0,0,0,3.02-.062,2.11,2.11,0,0,0,.3-.354l0,0a1.58,1.58,0,0,0,1.068.291H9.8a4.6,4.6,0,0,0-.742.725A6.81,6.81,0,0,0,7.6,8.7a.362.362,0,0,0,.725,0,5.776,5.776,0,0,1,1.723-4.349,2.765,2.765,0,0,1,1.811-.725c.517.057.614-.725.091-.725H7.963a1.45,1.45,0,1,1,0-2.9h5.8a1.482,1.482,0,0,1,1.387,1.026l.788,2.6a7.284,7.284,0,0,1,.3,1.588c0,3.486-3.4,7.11-7.546,7.11A8.693,8.693,0,0,1,0,3.817l.01.007a2.108,2.108,0,0,0,1.384.525h.09A2.124,2.124,0,0,0,3.26,3.391Z" transform="translate(0.01 11.678)" fill="#ffcd4c"/>
    </g>
  </g>
</svg>
