<svg id="bubble_bold" data-name="bubble/bold" xmlns="http://www.w3.org/2000/svg" width="24" height="24" viewBox="0 0 24 24">
  <g id="vuesax_bold_bubble" data-name="vuesax/bold/bubble">
    <g id="bubble">
      <path id="Vector" d="M0,0H24V24H0Z" fill="none" opacity="0"/>
      <path id="Vector-2" data-name="Vector" d="M0,0H24V24H0Z" fill="none" opacity="0"/>
      <path id="Vector-3" data-name="Vector" d="M5.38,0a5.38,5.38,0,1,0,5.38,5.38A5.382,5.382,0,0,0,5.38,0Z" transform="translate(10.21 1.75)" fill="#0301ad"/>
      <path id="Vector-4" data-name="Vector" d="M3.33,0A3.33,3.33,0,1,0,6.66,3.33,3.335,3.335,0,0,0,3.33,0Z" transform="translate(3.03 13.03)" fill="#0301ad"/>
      <path id="Vector-5" data-name="Vector" d="M2.81,0A2.81,2.81,0,1,0,5.62,2.81,2.812,2.812,0,0,0,2.81,0Z" transform="translate(13.81 16.62)" fill="#0301ad"/>
    </g>
  </g>
</svg>
