<svg id="eye_security-user_linear" data-name="eye/security-user/linear" xmlns="http://www.w3.org/2000/svg" width="24" height="24" viewBox="0 0 24 24">
  <g id="vuesax_linear_security-user" data-name="vuesax/linear/security-user">
    <g id="security-user">
      <g id="Group">
        <path id="Vector" d="M7.08.233,2.09,2.1A3.472,3.472,0,0,0,0,5.122v7.43a4.862,4.862,0,0,0,1.73,3.44l4.3,3.21a4.552,4.552,0,0,0,5.14,0l4.3-3.21a4.862,4.862,0,0,0,1.73-3.44V5.122A3.472,3.472,0,0,0,15.11,2.1L10.12.233A5.085,5.085,0,0,0,7.08.233Z" transform="translate(3.41 1.997)" fill="none" stroke="#292d32" stroke-linecap="round" stroke-linejoin="round" stroke-width="1.5"/>
      </g>
      <g id="Group-2" data-name="Group">
        <path id="Vector-2" data-name="Vector" d="M1.82,3.52H1.69a1.765,1.765,0,1,1,.13,0Z" transform="translate(10.18 7.4)" fill="none" stroke="#292d32" stroke-linecap="round" stroke-linejoin="round" stroke-width="1.5"/>
        <path id="Vector-3" data-name="Vector" d="M.72.548a1.3,1.3,0,0,0,0,2.33,3.872,3.872,0,0,0,3.97,0,1.3,1.3,0,0,0,0-2.33A3.872,3.872,0,0,0,.72.548Z" transform="translate(9.29 13.173)" fill="none" stroke="#292d32" stroke-linecap="round" stroke-linejoin="round" stroke-width="1.5"/>
      </g>
      <path id="Vector-4" data-name="Vector" d="M0,0H24V24H0Z" fill="none" opacity="0"/>
    </g>
  </g>
</svg>
