<svg id="simcard-2_broken" data-name="simcard-2/broken" xmlns="http://www.w3.org/2000/svg" width="24" height="24" viewBox="0 0 24 24">
  <g id="vuesax_broken_simcard-2" data-name="vuesax/broken/simcard-2">
    <g id="simcard-2">
      <path id="Vector" d="M0,7.61V3.89A3.674,3.674,0,0,1,3.89,0H7.72a3.891,3.891,0,0,1,2.75,1.14l2.39,2.38A3.891,3.891,0,0,1,14,6.27v5.39a3.674,3.674,0,0,1-3.89,3.89H3.89A3.674,3.674,0,0,1,0,11.66" transform="translate(2 6.42)" fill="none" stroke="#bcc0cf" stroke-linecap="round" stroke-linejoin="round" stroke-width="1.5"/>
      <path id="Vector-2" data-name="Vector" d="M14,6.28v5.39a3.679,3.679,0,0,1-3.89,3.89H8V10.72A3.891,3.891,0,0,0,6.86,7.97L4.47,5.59A3.891,3.891,0,0,0,1.72,4.45H0V3.89A3.679,3.679,0,0,1,3.89,0H7.72a3.891,3.891,0,0,1,2.75,1.14l2.39,2.39A3.891,3.891,0,0,1,14,6.28Z" transform="translate(8 1.97)" fill="none" stroke="#bcc0cf" stroke-linecap="round" stroke-linejoin="round" stroke-width="1.5"/>
      <path id="Vector-3" data-name="Vector" d="M0,0H24V24H0Z" fill="none" opacity="0"/>
    </g>
  </g>
</svg>
