<svg xmlns="http://www.w3.org/2000/svg" width="338.628" height="317.68" viewBox="0 0 338.628 317.68">
  <g id="Group_333" data-name="Group 333" transform="translate(-16.372 -179.909)">
    <path id="Path_454" data-name="Path 454" d="M240.458,538.455c-30.065-10.113-56.141-35.247-61.481-66.453s14.384-66.379,45.379-73.145c14.654-3.2,30.472-.342,44.475-5.714,26.405-10.131,35.381-44.406,59.776-58.7,23.5-13.773,55.732-3.84,73.242,17s22.619,49.605,21.547,76.782c-1.577,39.927-18.58,82.987-54.877,99.87-30.589,14.228-95.257,18.26-128.061,10.355" transform="translate(175.244 867.703) rotate(-144)" fill="#f2f2f2"/>
    <g id="Group_94" data-name="Group 94" transform="translate(-4.355 206.938)">
      <g id="Group_31" data-name="Group 31" transform="translate(118 112.992)">
        <path id="Path_2" data-name="Path 2" d="M323.048,375.826c1.025,5.6,4.291,25.664,4.479,28.649s-.934,2.146-1.587-.374-6.719-28-6.719-28Z" transform="translate(-271.904 -295.134)" fill="#bcc0cf"/>
        <path id="Path_3" data-name="Path 3" d="M354.87,404.111c.093,2.333-.044,9.34.236,10.646s6.572,5.878,9.184-.375c-3.078-1.774-2.719-7.378-2.812-10.272S354.87,404.111,354.87,404.111Z" transform="translate(-290.284 -309.055)" fill="#1d2d3a"/>
        <path id="Path_4" data-name="Path 4" d="M242.065,252.348c.14-.49,2.17-.63,5.669-.14,2.5.35,7.559,1.225,9.519,3.6a5.122,5.122,0,0,1,.979,2.782C256.273,263.913,245.425,261.376,242.065,252.348Z" transform="translate(-232.122 -231.24)" fill="#febe50"/>
        <path id="Path_5" data-name="Path 5" d="M243.749,233.881c1.026-.746,1.866-2.8.28-6.252s-2.706-8.958,2.52-12.411,7.839-3.267,9.146-1.027,1.119,4.105,1.4,5.786,2.053,2.146,1.867,3.173-1.586.932-1.586,2.519.654,3.359-.747,4.853-3.544.933-3.544,3.639-.094,3.92-.094,3.92C249.162,236.961,249.348,239.014,243.749,233.881Z" transform="translate(-232.453 -210.953)" fill="#eaba7c"/>
        <path id="Path_6" data-name="Path 6" d="M294.439,375.826c1.026,5.6,4.292,25.664,4.478,28.649s-.933,2.146-1.586-.374-6.719-28-6.719-28Z" transform="translate(-257.153 -295.134)" fill="#bcc0cf"/>
        <path id="Path_7" data-name="Path 7" d="M274.6,362.92c3.546.094,21.185.094,21.371,1.4s1.307,4.573-.561,5.04-7.558,0-12.131.466a23.845,23.845,0,0,1-9.332-1.306Z" transform="translate(-248.561 -288.48)" fill="#ccd1e4"/>
        <path id="Path_8" data-name="Path 8" d="M317.006,427.189c.709-.313,1.4-.576,2.1-.807a4.614,4.614,0,0,1-.322-2.573c.323-3.149.646-8.4.646-8.4l-6.257-.969c-.452,1.752-1,6.59-1.348,9.75C313.178,426.151,314.15,428.449,317.006,427.189Z" transform="translate(-268.089 -315.045)" fill="#1d2d3a"/>
        <path id="Path_9" data-name="Path 9" d="M263.59,348.045a105.038,105.038,0,0,0,12.131,1.493c3.733.28,6.16-.28,6.813.56s.373,4.666-.653,11.758-1.774,11.2-1.587,11.758c2.427.839,10.195,1.073,10.661.14s5.017-24.683,5.483-27.576c2.332-.84,4.479-1.026,4.479,1.493s-.746,22.117-.653,22.583c2.613.28,6.228.186,9.029.28s3.1-.561,3.289-1.028.9-10.359,1.213-14.93c.746-11.012,2.987-20.158-6.718-21.091s-19.411.467-25.29.373-23.89-.653-29.116,3.827S255.1,346.458,263.59,348.045Z" transform="translate(-236.71 -273.138)" fill="#0301ad"/>
        <path id="Path_10" data-name="Path 10" d="M230.243,375.826c-1.027,5.6-4.291,25.664-4.479,28.649s.933,2.146,1.586-.374,6.72-28,6.72-28Z" transform="translate(-223.707 -295.134)" fill="#bcc0cf"/>
        <path id="Path_11" data-name="Path 11" d="M258.852,375.826c-1.027,5.6-4.292,25.664-4.479,28.649s.934,2.146,1.586-.374,6.719-28,6.719-28Z" transform="translate(-238.457 -295.134)" fill="#bcc0cf"/>
        <path id="Path_12" data-name="Path 12" d="M227.184,338.067c.28,7.372-.211,10.172.536,14.185s2.8,5.507,7.373,5.039,9.705-.279,12.131-.374,3.733.094,4.012-3.359.5-7.618-2.425-9.8c-6.229-4.643-7.349-2.1-13.228-1.633A8.873,8.873,0,0,1,227.184,338.067Z" transform="translate(-224.449 -275.665)" fill="#ccd1e4"/>
        <path id="Path_13" data-name="Path 13" d="M230.362,257.579c-2.729,1.679-8.749,5.739-8.819,12.669s.7,11.478.7,16.377,2.162,10.625,7.209,11.338c6.929.98,13.053-3.325,15.5-4.094,1.26-3.359,19.911-4.165,20.892-5s-1.679-9.449-4.129-12.808-4.409-8.118-6.369-10.779-3.29-4.129-6.019-5.178c-1.89-1.12-2.24-1.96-2.24-1.96,1.12.28-3.709.77-5.6.35s-5.751-1.4-8.294-3.92c-.864-1.75-1.154-2.309-1.715-1.889S228.542,256.88,230.362,257.579Z" transform="translate(-221.539 -231.572)" fill="#febe50"/>
        <path id="Path_14" data-name="Path 14" d="M270.624,326.477a3.471,3.471,0,0,0-1.26,4.865c3.5-.91,16.1-1.539,16.867-2.029s.21-3.849-.63-3.989a20.945,20.945,0,0,0-7.769,1.471C274.683,328.052,273.493,326.477,270.624,326.477Z" transform="translate(-245.913 -269.08)" fill="#eaba7c"/>
        <g id="Group_11" data-name="Group 11" transform="translate(45.771 73.55)">
          <path id="Path_15" data-name="Path 15" d="M316.5,364.276a5.329,5.329,0,0,1,1.337-2.785c.23-.213-.114-.554-.342-.343a5.769,5.769,0,0,0-1.462,3c-.065.3.4.435.467.129Z" transform="translate(-316.028 -361.081)" fill="#462d4b"/>
        </g>
        <g id="Group_12" data-name="Group 12" transform="translate(45.207 71.504)">
          <path id="Path_16" data-name="Path 16" d="M315.35,361.755a12.617,12.617,0,0,1,1.2-4.6c.108-.294-.36-.419-.467-.129a12.947,12.947,0,0,0-1.222,4.731.242.242,0,0,0,.484,0Z" transform="translate(-314.864 -356.86)" fill="#462d4b"/>
        </g>
        <g id="Group_13" data-name="Group 13" transform="translate(19.645 66.546)">
          <path id="Path_17" data-name="Path 17" d="M262.266,347.1c2.668.677,3.694,3.182,4.151,5.658a23.518,23.518,0,0,1,.318,3.565c.03,1.006.273,2.545-.135,3.486-.123.283.294.53.418.244a8.854,8.854,0,0,0,.206-3.467,25.828,25.828,0,0,0-.393-4.238c-.473-2.56-1.747-5.033-4.438-5.716a.242.242,0,0,0-.129.467Z" transform="translate(-262.093 -346.622)" fill="#462d4b"/>
        </g>
        <g id="Group_14" data-name="Group 14" transform="translate(21.797 14.655)">
          <path id="Path_18" data-name="Path 18" d="M266.7,239.98a4.173,4.173,0,0,0,2.555.467.242.242,0,0,0-.128-.467,3.855,3.855,0,0,1-2.3-.467c-.3-.1-.422.365-.128.467Z" transform="translate(-266.536 -239.498)" fill="#462d4b"/>
        </g>
        <g id="Group_15" data-name="Group 15" transform="translate(21.611 9.621)">
          <path id="Path_19" data-name="Path 19" d="M266.9,230.312a1.139,1.139,0,0,1-.024-.841l-.331.087c.262.151.163.566.16.818l.178-.233c-.227.03-.266-.546-.193-.672l-.209.12a.376.376,0,0,1,.251.06c.249.19.49-.232.245-.418a.8.8,0,0,0-.5-.126.243.243,0,0,0-.209.12c-.314.537.05,1.477.74,1.383a.24.24,0,0,0,.178-.233c.005-.462.063-.97-.4-1.236a.245.245,0,0,0-.331.087,1.582,1.582,0,0,0-.024,1.214.242.242,0,0,0,.467-.128Z" transform="translate(-266.154 -229.106)" fill="#462d4b"/>
        </g>
        <g id="Group_16" data-name="Group 16" transform="translate(19.935 5.747)">
          <path id="Path_20" data-name="Path 20" d="M263.09,222.784a4.629,4.629,0,0,1,.7-.679,4.808,4.808,0,0,1,.5-.366,2.08,2.08,0,0,1,.214-.117c.111-.053.077.024.011-.051.208.234.55-.11.342-.342-.268-.3-.751.045-.99.211a5.109,5.109,0,0,0-1.125,1c-.19.243.15.589.342.342Z" transform="translate(-262.692 -221.11)" fill="#462d4b"/>
        </g>
        <g id="Group_17" data-name="Group 17" transform="translate(33.833 39.944)">
          <path id="Path_21" data-name="Path 21" d="M291.408,292.076c.935,2.041,1.658,4.139,2.665,6.15a46.185,46.185,0,0,0,2.56,5.328c.173.258.593.015.418-.244a40.231,40.231,0,0,1-2.56-5.329c-.964-2.023-1.733-4.114-2.665-6.149-.13-.284-.548-.037-.418.244Z" transform="translate(-291.383 -291.706)" fill="#462d4b"/>
        </g>
        <g id="Group_18" data-name="Group 18" transform="translate(10.778 21.381)">
          <path id="Path_22" data-name="Path 22" d="M243.793,253.689a3.642,3.642,0,0,0,2.091,2.416,18.548,18.548,0,0,0,4.611,2.513c.793.216,1.61.325,2.406.532a4.184,4.184,0,0,1,2.448,1.952,49.021,49.021,0,0,1,2.608,4.879c.939,1.826,2.114,3.449,2.888,5.369a42.264,42.264,0,0,1,1.582,5.763c.972,3.949,2.822,7.552,4.442,11.256.11.251.548.066.442-.186a1.035,1.035,0,0,0-.249-.387c-.212-.231-.554.113-.343.342l.125.172.443-.186c-1.667-3.81-3.5-7.5-4.5-11.558a47.6,47.6,0,0,0-1.48-5.347,33,33,0,0,0-2.734-5.113c-1.437-2.437-2.327-6.192-5.216-7.32-1.654-.646-3.3-.646-4.9-1.568-.807-.467-1.536-1.055-2.336-1.531a3.21,3.21,0,0,1-1.869-2.127c-.05-.308-.517-.177-.467.129Z" transform="translate(-243.789 -253.384)" fill="#462d4b"/>
        </g>
        <g id="Group_19" data-name="Group 19" transform="translate(21.227 22.132)">
          <path id="Path_23" data-name="Path 23" d="M268.306,259.705a3.958,3.958,0,0,1,2.011.921.243.243,0,0,0,.38-.293,6.971,6.971,0,0,1-.4-1.786,4.027,4.027,0,0,0-.995-1.483,5.86,5.86,0,0,0-3.642-2.126c-.305-.044-.437.423-.129.467a5.75,5.75,0,0,1,3.647,2.274,3.138,3.138,0,0,1,.781,1.738,3.464,3.464,0,0,0,.316,1.16l.38-.293a4.532,4.532,0,0,0-2.354-1.063c-.312-.026-.309.459,0,.485Z" transform="translate(-265.361 -254.934)" fill="#462d4b"/>
        </g>
        <g id="Group_20" data-name="Group 20" transform="translate(22.995 24.551)">
          <path id="Path_24" data-name="Path 24" d="M269.716,265.643a8.569,8.569,0,0,1-.01-3.7c.072-.393.2-1.589.845-1.5a2.775,2.775,0,0,1,1.171.666c.254.183.5-.238.245-.418a3.014,3.014,0,0,0-1.965-.757.239.239,0,0,0-.209.12,9.107,9.107,0,0,0-.543,5.722.242.242,0,0,0,.467-.128Z" transform="translate(-269.009 -259.929)" fill="#462d4b"/>
        </g>
        <g id="Group_21" data-name="Group 21" transform="translate(8.545 25.663)">
          <path id="Path_25" data-name="Path 25" d="M239.288,262.685c2.356,1.6,4.622,3.374,7.107,4.777a1.864,1.864,0,0,0,1.928.234,2.537,2.537,0,0,0,.72-.953,4.95,4.95,0,0,1,1.781-1.817c.261-.169.018-.589-.245-.418a5.344,5.344,0,0,0-1.954,1.991c-.8,1.474-1.942.621-2.979-.068-2.054-1.367-4.071-2.776-6.114-4.163-.26-.176-.5.244-.245.419Z" transform="translate(-239.178 -262.224)" fill="#462d4b"/>
        </g>
        <g id="Group_22" data-name="Group 22" transform="translate(10.487 42.851)">
          <path id="Path_26" data-name="Path 26" d="M243.195,297.941a38.56,38.56,0,0,0,.907,7.39,52.388,52.388,0,0,0,1.05,5.738c.447,1.576,1.674,1.4,3.067,1.246,1.218-.131,2.486-.12,3.711-.134a20.313,20.313,0,0,1,4.578.2c.3.066.434-.4.129-.467a23.991,23.991,0,0,0-6.027-.182c-1.038.043-2.067.064-3.1.174-1.268.134-1.74-.292-2.024-1.484-.4-1.7-.624-3.5-.915-5.221a37.35,37.35,0,0,1-.89-7.261c.011-.312-.474-.312-.484,0Z" transform="translate(-243.187 -297.707)" fill="#462d4b"/>
        </g>
        <g id="Group_23" data-name="Group 23" transform="translate(9.104 57.398)">
          <path id="Path_27" data-name="Path 27" d="M243.243,327.773a5.488,5.488,0,0,0-1.361,1.3c-.365.438-.808,1.2-1.38,1.385-.3.1-.17.563.128.467a2.943,2.943,0,0,0,1.212-1.045,7,7,0,0,1,1.645-1.685.243.243,0,0,0-.245-.419Z" transform="translate(-240.334 -327.738)" fill="#462d4b"/>
        </g>
        <g id="Group_24" data-name="Group 24" transform="translate(7.514 56.757)">
          <path id="Path_28" data-name="Path 28" d="M241.271,326.438a30.536,30.536,0,0,0-4.106,2.053c-.264.166-.021.585.244.419a30.633,30.633,0,0,1,4.107-2.054c.285-.125.039-.542-.245-.418Z" transform="translate(-237.051 -326.415)" fill="#462d4b"/>
        </g>
        <path id="Path_29" data-name="Path 29" d="M234.264,217.615c.139,3.36,2.1,7.489,5.319,9.239s2.59-.49,1.54-2.1-1.33-2.731-.28-3.22,2.24,1.819,3.36,1.89.98-1.05.35-2.17-1.26-1.68-.63-2.659.28-3.01,2.239-4.41,4.27-2.1,4.34-2.729C247.562,207.957,235.943,207.677,234.264,217.615Z" transform="translate(-228.1 -209.245)" fill="#1d2d3a"/>
        <path id="Path_30" data-name="Path 30" d="M275.331,313.323c-.279.514-.443,1.423,2.217,1.283s10.847-.349,16.8-.14,13.648-.35,14.207-.77,1.4-5.529,2.03-9.1,1.61-8.609,1.68-9.588-.35-2.31-2.52-2.31-13.157.14-15.046.14-4.059-.209-4.479,1.891-1.54,15.327-1.75,16.657c-.21,1.12.071,1.47-1.47,1.4S276.1,312.834,275.331,313.323Z" transform="translate(-249.198 -252.274)" fill="#ccd1e4"/>
        <path id="Path_31" data-name="Path 31" d="M354.962,424.173a25.933,25.933,0,0,0-.029,5.2c1.493.653,5.505,1.307,10.358,1.586s8.585.186,7.279-2.24-8.111-3.187-9.792-5.147c-2.986.466-1.5,4.12-3.552,3.467S357.947,423.707,354.962,424.173Z" transform="translate(-290.258 -319.754)" fill="#1d2d3a"/>
        <path id="Path_32" data-name="Path 32" d="M311.335,434.57c-.387,2.171-.671,4.731-.247,4.962a25.274,25.274,0,0,0,9.042,3.878c4.76.991,6.2,1.017,5.268-1.574s-5.773-4.7-7.147-6.887c-3.022.022-1.631,3.357-3.564,2.409S313.393,434.873,311.335,434.57Z" transform="translate(-267.601 -325.422)" fill="#1d2d3a"/>
        <path id="Path_33" data-name="Path 33" d="M327.115,312.44c-2.237.149-3.453,3.826-1.027,3.919S329.914,312.253,327.115,312.44Z" transform="translate(-274.758 -262.449)" fill="#fafafa"/>
        <g id="Group_25" data-name="Group 25" transform="translate(39.844 40.846)">
          <path id="Path_34" data-name="Path 34" d="M307.411,293.591a3.47,3.47,0,0,0-1.676,2.638,17.844,17.844,0,0,0-.669,4.907,28.379,28.379,0,0,1-.529,6.548c-.171.882-.389,1.774-.479,2.669-.122,1.225-.08,2.459-.257,3.679l.476.065v-.187a.242.242,0,0,0-.484,0v.187c0,.265.436.34.476.064.244-1.676.176-3.36.482-5.034a53.186,53.186,0,0,0,.856-5.331c.161-2.021-.17-3.921.248-5.942.267-1.294.46-3.239,1.8-3.846.285-.128.038-.546-.245-.418Z" transform="translate(-303.792 -293.567)" fill="#462d4b"/>
        </g>
        <g id="Group_26" data-name="Group 26" transform="translate(54.787 61.802)">
          <path id="Path_35" data-name="Path 35" d="M334.806,337.314c2.332.868,4.159,1.79,4.67,4.456a20.439,20.439,0,0,1-.289,7.913c-.057.305.41.436.467.129a32.054,32.054,0,0,0,.662-4.229,18.588,18.588,0,0,0-.449-4.339c-.495-2.578-2.714-3.572-4.932-4.4-.293-.109-.419.359-.129.467Z" transform="translate(-334.642 -336.83)" fill="#462d4b"/>
        </g>
        <g id="Group_27" data-name="Group 27" transform="translate(28.322 68.79)">
          <path id="Path_36" data-name="Path 36" d="M280.181,351.729a34.261,34.261,0,0,0,6.724.51c2.575.019,5.137.186,7.714.157.824-.009,1.651.047,2.471-.041.31-.032,2.489-.343,2.016.5-.608,1.082.175,1.285,1.137,1.012,1.155-.328.656,1.02.55,1.391a12.076,12.076,0,0,0-.281,1.4,29.27,29.27,0,0,0-.288,3.349c-.117,2.676-.19,5.32-.477,7.986s-.631,5.329-.973,7.99c-.272,2.114-1.3,4.238-1.089,6.389.03.308.514.311.484,0a9.951,9.951,0,0,1,.547-3.6,23.123,23.123,0,0,0,.6-3.262c.362-2.818.715-5.637,1.013-8.462s.267-5.63.453-8.449a19.992,19.992,0,0,1,.615-3.732c.1-.394.206-1.081-.209-1.351a.923.923,0,0,0-.553-.212c-.139.011-1.344.244-1.237,0,.161-.369.483-.682.238-1.1-.467-.8-2.206-.37-2.908-.3a56.424,56.424,0,0,1-7.61-.117c-2.949-.115-5.9.074-8.812-.529-.305-.063-.434.4-.129.467Z" transform="translate(-280.007 -351.256)" fill="#462d4b"/>
        </g>
        <g id="Group_28" data-name="Group 28" transform="translate(61.187 68.342)">
          <path id="Path_37" data-name="Path 37" d="M348.085,350.817a31.083,31.083,0,0,0,3.391.057c.72-.024,1.363.211,1.419,1.02.028.422-.007.843.034,1.264.267,2.662.551,5.276.592,7.958.043,2.729-.213,5.431-.413,8.149a74.449,74.449,0,0,0-.1,8.114c.011.312.5.313.485,0-.226-6.336.718-12.613.428-18.945-.068-1.469-.2-2.923-.388-4.38a21.629,21.629,0,0,0-.28-2.974c-.146-.521-.764-.619-1.214-.677-1.287-.167-2.653.03-3.955-.07-.312-.024-.309.461,0,.485Z" transform="translate(-347.853 -350.331)" fill="#462d4b"/>
        </g>
        <g id="Group_29" data-name="Group 29" transform="translate(18.751 61.529)">
          <path id="Path_38" data-name="Path 38" d="M260.614,339.253c1.969-1.061,4.155-1.6,6.176-2.543.283-.132.037-.55-.244-.419-2.022.945-4.206,1.482-6.176,2.543-.275.148-.031.566.244.418Z" transform="translate(-260.249 -336.266)" fill="#462d4b"/>
        </g>
        <g id="Group_30" data-name="Group 30" transform="translate(20.198 56.935)">
          <path id="Path_39" data-name="Path 39" d="M264.827,326.838a4.474,4.474,0,0,0-.946,5.7c.178.253.6.012.419-.244a4.011,4.011,0,0,1,.87-5.116c.246-.191-.1-.531-.343-.342Z" transform="translate(-263.236 -326.782)" fill="#462d4b"/>
        </g>
      </g>
      <g id="Group_37" data-name="Group 37" transform="translate(137.55 59.714)">
        <path id="Path_40" data-name="Path 40" d="M275.72,99.327c-7.907.636-14.757,5.43-13.719,16.985,1.494,16.61,29.023,19.5,29.955-2.053C291.865,105.3,286.172,98.488,275.72,99.327Z" transform="translate(-261.897 -99.257)" fill="#0301ad"/>
        <path id="Path_41" data-name="Path 41" d="M279.167,106.167c-4.5.085-10.826,3.452-10.826,12.5s10.732,13.718,18.944,8.773S294.1,105.888,279.167,106.167Z" transform="translate(-265.219 -102.818)" fill="#fafafa"/>
        <g id="Group_32" data-name="Group 32" transform="translate(14.307 5.571)">
          <path id="Path_42" data-name="Path 42" d="M291.983,111.245c-.088-.1,0-.028-.075.058-.017.02-.032.014.014.014.074,0,.072.041.068.1l.071-.171a1.028,1.028,0,0,1-.126.093c-.113.074-.062,0-.02.06-.032-.043.069-.139.1-.157s.053,0,.082.008c.057.017.021-.044,0-.008a.319.319,0,0,1-.21.143l.171.071.012.074-.071.171a.385.385,0,0,0,.121-.219c.047-.305-.42-.436-.467-.129.005-.033-.051.083-.059.113a.3.3,0,0,0,.039.235.337.337,0,0,0,.43.139.745.745,0,0,0,.531-.617c.032-.349-.418-.506-.69-.455a.657.657,0,0,0-.462.713.454.454,0,0,0,.689.307c.145-.075.331-.195.346-.371a.542.542,0,0,0-.141-.415.6.6,0,0,0-.676-.108c-.313.135-.186.51-.016.694.213.229.555-.114.342-.342Z" transform="translate(-291.433 -110.758)" fill="#462d4b"/>
        </g>
        <g id="Group_33" data-name="Group 33" transform="translate(4.77 15.374)">
          <path id="Path_43" data-name="Path 43" d="M272.236,131.655a.412.412,0,0,1-.019-.133q.022-.066-.016.013c-.03.036-.051.031-.084.026a.207.207,0,0,1,.148.112s0,.041.007.007a.118.118,0,0,1-.049.043c.033-.011.1.1.069.037.009.015,0-.024,0-.061,0-.146.081-.259.209-.18a.088.088,0,0,1,0,.15c-.052.039-.068,0,0,.031s.019-.048.023-.12c.021-.312-.464-.31-.484,0-.023.348.163.635.536.581a.6.6,0,0,0,.437-.706.617.617,0,0,0-.775-.427.752.752,0,0,0-.429.671.437.437,0,0,0,.447.507.536.536,0,0,0,.473-.667.666.666,0,0,0-.6-.459c-.388-.012-.425.425-.363.7.068.305.535.175.467-.129Z" transform="translate(-271.745 -130.996)" fill="#462d4b"/>
        </g>
        <g id="Group_34" data-name="Group 34" transform="translate(14.123 14.942)">
          <path id="Path_44" data-name="Path 44" d="M291.57,130.963c-.108-.272.174-.407.419-.358.3.061-.227.534-.409.386a.44.44,0,0,1,.054-.113c.046-.057.15-.145.193-.135.02,0-.051.094.011-.035-.012.025-.1.035-.127.037a.307.307,0,0,1-.155-.017c.024.011-.085.136.027.1a.558.558,0,0,1,.172-.022c.312-.01.313-.494,0-.484-.2.006-.522.046-.617.258a.416.416,0,0,0,.142.551.755.755,0,0,0,.976-.175c.222-.312-.153-.732-.482-.689a.816.816,0,0,0-.674.684c-.05.41.4.6.739.535.4-.077.929-.62.685-1.043-.414-.718-1.748-.17-1.422.654.113.287.582.162.467-.129Z" transform="translate(-291.052 -130.105)" fill="#462d4b"/>
        </g>
        <g id="Group_35" data-name="Group 35" transform="translate(14.691 23.443)">
          <path id="Path_45" data-name="Path 45" d="M292.833,148.148a1,1,0,0,1-.125-.095c-.024-.034.007.03,0,.079s-.023.046-.033.052a.418.418,0,0,1,.1-.032.856.856,0,0,1,.154-.01.335.335,0,0,1,.118.016c.007,0,.074.03.026.007.024.015.023.013,0-.006.029.031.02.014-.025-.052-.024-.06.031-.1-.027-.041s-.191.142-.2.01c-.028-.308-.512-.311-.484,0a.587.587,0,0,0,1.072.287.4.4,0,0,0-.227-.672.957.957,0,0,0-.808.124c-.321.25-.014.6.224.751.264.169.507-.251.245-.418Z" transform="translate(-292.226 -147.654)" fill="#462d4b"/>
        </g>
        <g id="Group_36" data-name="Group 36" transform="translate(23.694 15.083)">
          <path id="Path_46" data-name="Path 46" d="M311.251,131.252c.1-.227.282-.378.484-.165.135.142-.3.294-.368.065-.021-.07.1-.264.131-.274-.032.012-.094-.043-.06-.01-.028-.027.034.066.026.046,0,.011.024.093.021.069,0,.022-.005.121,0,.088-.007.038.02-.025.058-.037.059-.018.016-.014-.032-.044-.265-.167-.508.252-.245.418a.433.433,0,0,0,.638-.09.717.717,0,0,0-.02-.64.438.438,0,0,0-.541-.258.814.814,0,0,0-.446.861c.059.405.575.543.905.432a.6.6,0,0,0,.42-.715.733.733,0,0,0-1.393.01c-.12.284.3.531.419.245Z" transform="translate(-310.811 -130.394)" fill="#462d4b"/>
        </g>
        <path id="Path_47" data-name="Path 47" d="M281.757,120.581c-.629.489,4.739,6.112,5.3,5.669C287.73,125.713,282.738,119.88,281.757,120.581Z" transform="translate(-272.11 -110.222)" fill="#462d4b"/>
        <path id="Path_48" data-name="Path 48" d="M292.447,122.768c-.91-.77,4.712-9.1,5.3-8.515C298.461,114.972,293.007,123.608,292.447,122.768Z" transform="translate(-277.597 -106.974)" fill="#462d4b"/>
      </g>
      <g id="Group_54" data-name="Group 54" transform="translate(58.867 120.033)">
        <path id="Path_49" data-name="Path 49" d="M145.549,249.511a15.927,15.927,0,0,0,2.239-7.349c-2.31-3.99,3.219-17.078,8.049-16.8s5.319,6.509,6.929,8.048,2.03.49,1.19,2.38.419,3.359-.56,5.949-6.509.909-7.979,4.269-1.119,4.619-1.119,4.619a18.875,18.875,0,0,1,1.843,2.638C154.157,254.761,148.278,253.85,145.549,249.511Z" transform="translate(-123.225 -224.596)" fill="#eaba7c"/>
        <path id="Path_50" data-name="Path 50" d="M196.766,375.826c1.027,5.6,4.292,25.664,4.479,28.649s-.934,2.146-1.587-.374-6.719-28-6.719-28Z" transform="translate(-147.659 -302.175)" fill="#bcc0cf"/>
        <path id="Path_51" data-name="Path 51" d="M168.159,375.826c1.026,5.6,4.291,25.664,4.478,28.649s-.933,2.146-1.587-.374-6.718-28-6.718-28Z" transform="translate(-132.909 -302.175)" fill="#bcc0cf"/>
        <path id="Path_52" data-name="Path 52" d="M144.1,362.92c3.546.094,21.184.094,21.37,1.4s1.307,4.573-.56,5.04-7.559,0-12.131.466-13.3-.793-13.3-.793Z" transform="translate(-120.096 -295.521)" fill="#ccd1e4"/>
        <path id="Path_53" data-name="Path 53" d="M100.339,320.543c-.279-3.92-.653-7.654-.559-10.64s2.053-6.9,8.4-6.9,12.691-.187,13.345,1.213,4.665,20.344,4.292,23.144-23.329,4.853-25.477-6.812" transform="translate(-99.619 -264.621)" fill="#ccd1e4"/>
        <path id="Path_54" data-name="Path 54" d="M160.58,412.714c-1.259,2.729-4.269,9.938-4.339,10.639s7.139,6.579,9.868,4.829c.351-.63,3.5,1.12,4.759-.419-4.269-3.08-5.529-3.71-5.529-5.18s4.97-6.579,6.579-9.448C171.008,410.825,160.58,412.714,160.58,412.714Z" transform="translate(-128.737 -320.82)" fill="#eaba7c"/>
        <path id="Path_55" data-name="Path 55" d="M155.517,433.877c-.653.933-1.446,2.053.233,2.987s6.345,3.359,8.212,4.245,5.412,1.819,1.867-2.006c3.965,1.913,5.552,1.539,5.365,1.166a15.982,15.982,0,0,0-1.4-1.82c-1.959.747-7.244-3.231-9.389-5.237-.327.093-.222.9-.222.9,2.193,2.427,3.919,3.872,4.526,4.76S162.889,440.223,155.517,433.877Z" transform="translate(-127.967 -331.763)" fill="#e08e5a"/>
        <path id="Path_56" data-name="Path 56" d="M142.37,343.7c2.59-.07,23.026.631,27.855.98s7.069,3.779,7.419,7.978-1.68,9.1-6.229,15.887-6.929,10.079-6.929,10.079a5.766,5.766,0,0,1-3.849-1.19,9.006,9.006,0,0,1-1.61,1.89c-3.29,1.12-5.949-1.4-5.949-1.4,1.4-5.04,3.639-11.968,4.689-14.768a57.2,57.2,0,0,0,1.89-6.789c-3.709-.14-14.067.07-14.067.07s2.449-9.1-3.22-12.738" transform="translate(-121.586 -285.608)" fill="#0301ad"/>
        <path id="Path_57" data-name="Path 57" d="M195.541,345.726c1.26,1.119,2.566,3.733,3.639,5.739s2.612,3.872,3.172,3.686.141-3.452.047-4.012c.654-2.614-2.332-8.446-4.526-9.892C196.707,341.294,196.007,343.347,195.541,345.726Z" transform="translate(-149.001 -284.346)" fill="#eaba7c"/>
        <path id="Path_58" data-name="Path 58" d="M122.128,305.571c.559-4.759,4.48-24.169,11.57-31.075,3.64,3.079,7.746,4.292,10.359,4.106,3.732,7.745,4.293,16.7,6.532,19.69s9.986,8.119,10.265,8.4a4.644,4.644,0,0,1-1.026,1.4c.653,1.865-1.492,3.452-2.053,3.732-4.666-1.493-15.3-6.627-15.3-6.627-.28,1.587-.652,3.079-.652,3.079-2.053,0-15.866,0-18.011-.652A1.821,1.821,0,0,1,122.128,305.571Z" transform="translate(-111.142 -249.93)" fill="#febe50"/>
        <path id="Path_59" data-name="Path 59" d="M103.963,375.826c-1.026,5.6-4.291,25.664-4.479,28.649s.933,2.146,1.585-.374,6.72-28,6.72-28Z" transform="translate(-99.463 -302.175)" fill="#bcc0cf"/>
        <path id="Path_60" data-name="Path 60" d="M132.571,375.826c-1.026,5.6-4.292,25.664-4.479,28.649s.933,2.146,1.587-.374,6.719-28,6.719-28Z" transform="translate(-114.213 -302.175)" fill="#bcc0cf"/>
        <path id="Path_61" data-name="Path 61" d="M101.046,337.684c.28,7.371-.256,8.7.491,12.715s1.422,6.3,6.019,6.369c5.039.07,11.036.048,13.461-.047s3.079.467,3.359-2.986.078-9.484-2.333-12.224c-1.539-1.75-6.113-3.546-11.991-3.08S101.046,337.684,101.046,337.684Z" transform="translate(-100.279 -282.509)" fill="#ccd1e4"/>
        <g id="Group_38" data-name="Group 38" transform="translate(17.827 57.833)">
          <path id="Path_62" data-name="Path 62" d="M136.345,343.577c3.882,3.355,2.595,9.694,2.542,14.2a.242.242,0,0,0,.484,0c.055-4.642,1.324-11.078-2.684-14.542-.235-.2-.579.138-.342.342Z" transform="translate(-136.265 -343.172)" fill="#462d4b"/>
        </g>
        <g id="Group_39" data-name="Group 39" transform="translate(6.272 55.398)">
          <path id="Path_63" data-name="Path 63" d="M112.645,338.63a75.938,75.938,0,0,1,8.448.628c2.382.376,4.879,1.008,6.653,2.733,3.325,3.232,2.464,9.086,2.109,13.194h.484V355a.242.242,0,0,0-.484,0v.186a.242.242,0,0,0,.484,0c.383-4.421,1.1-10-2.251-13.536-1.648-1.742-4.158-2.347-6.422-2.78a62.939,62.939,0,0,0-9.021-.723c-.312-.015-.311.47,0,.484Z" transform="translate(-112.411 -338.145)" fill="#462d4b"/>
        </g>
        <g id="Group_40" data-name="Group 40" transform="translate(4.173 39.066)">
          <path id="Path_64" data-name="Path 64" d="M109.152,318.234c-.56-3.033-1.137-6.887.575-9.647a8.546,8.546,0,0,1,2.99-2.713,9.022,9.022,0,0,1,4.973-.958.242.242,0,0,0,0-.485,10.019,10.019,0,0,0-4.913.859,9.511,9.511,0,0,0-3.272,2.767c-2.121,2.788-1.41,7.12-.82,10.305.057.307.523.177.466-.128Z" transform="translate(-108.078 -304.43)" fill="#462d4b"/>
        </g>
        <g id="Group_41" data-name="Group 41" transform="translate(32.375 35.04)">
          <path id="Path_65" data-name="Path 65" d="M167.9,296.351a34.836,34.836,0,0,1-.13,6.074c-.283,1.642-1.2,3.115-1.47,4.78-.049.306.417.436.467.128.29-1.8,1.232-3.394,1.539-5.179a33.643,33.643,0,0,0,.079-5.8.242.242,0,0,0-.484,0Z" transform="translate(-166.298 -296.117)" fill="#462d4b"/>
        </g>
        <g id="Group_42" data-name="Group 42" transform="translate(28.026 36.86)">
          <path id="Path_66" data-name="Path 66" d="M157.333,300.173a51.717,51.717,0,0,0,3.629,8.317c1.209,2.279,2.007,5,4.376,6.323,1.239.691,2.555,1.265,3.806,1.942,1.441.779,2.845,1.634,4.3,2.383,1.107.568,2.255,1.025,3.336,1.647.817.471,1.422,1.14.873,2.113a6.328,6.328,0,0,1-1.642,1.605c-.244.2.1.536.342.342,1.291-1.034,3.128-2.795,1.159-4.16a21.313,21.313,0,0,0-3.423-1.777c-1.622-.734-3.128-1.741-4.7-2.573-1.367-.722-2.784-1.372-4.131-2.123-1.615-.9-2.2-2.739-3-4.287a65.515,65.515,0,0,1-4.455-9.881c-.1-.3-.563-.17-.467.128Z" transform="translate(-157.32 -299.876)" fill="#462d4b"/>
        </g>
        <g id="Group_43" data-name="Group 43" transform="translate(17.963 38.664)">
          <path id="Path_67" data-name="Path 67" d="M136.569,303.97a39.57,39.57,0,0,0,5.056,8.407,33.19,33.19,0,0,0,5.951,6.489c5.118,3.884,11.716,5.278,17.356,8.219.277.144.522-.274.245-.418-5.332-2.781-11.418-4.182-16.431-7.546a30,30,0,0,1-6.477-6.7,38.913,38.913,0,0,1-5.281-8.7c-.122-.286-.54-.04-.418.244Z" transform="translate(-136.547 -303.599)" fill="#462d4b"/>
        </g>
        <g id="Group_44" data-name="Group 44" transform="translate(37.764 13.181)">
          <path id="Path_68" data-name="Path 68" d="M177.6,251.551c.761.175,2.026.625,2.615-.132.189-.243-.151-.589-.342-.343-.45.578-1.561.142-2.144.008-.3-.07-.433.4-.129.467Z" transform="translate(-177.422 -250.992)" fill="#462d4b"/>
        </g>
        <g id="Group_45" data-name="Group 45" transform="translate(33.002 4.452)">
          <path id="Path_69" data-name="Path 69" d="M168.067,234.812a1.7,1.7,0,0,1,1.3-1.37c.309-.043.177-.509-.129-.467a2.17,2.17,0,0,0-1.639,1.709c-.069.3.4.433.467.128Z" transform="translate(-167.593 -232.972)" fill="#462d4b"/>
        </g>
        <g id="Group_46" data-name="Group 46" transform="translate(35.935 8.365)">
          <path id="Path_70" data-name="Path 70" d="M174.436,242.064c-.206-.133-.438-.366-.23-.6l-.294.038a.693.693,0,0,1,.309.777l.233-.178c-.263-.014-.178-.636-.177-.808l-.307.233c.208.056.434.4.243.575-.23.212.113.554.342.342.468-.431.1-1.237-.456-1.385a.245.245,0,0,0-.307.234c0,.514-.023,1.255.662,1.292a.245.245,0,0,0,.234-.178,1.186,1.186,0,0,0-.53-1.324.241.241,0,0,0-.294.038c-.432.487-.162,1.045.328,1.361.264.17.506-.25.245-.418Z" transform="translate(-173.646 -241.05)" fill="#462d4b"/>
        </g>
        <path id="Path_71" data-name="Path 71" d="M146.823,224.551c-.56,1.68-3.569,3.359-5.109,4.409s-1.4,1.959-.28,4.479,1.82,4.479,1.61,4.759a1.941,1.941,0,0,1-3.01-.28c-1.259-1.61-3.358.7-2.169,2.169s2.029,1.119,2.029,1.119c-2.729,1.12-5.249.49-7-3.148-3.079,4.478-5.6,2.519-6.648-.491s1.889-4.97,5.249-3.079C130.305,227.559,137.515,221.611,146.823,224.551Z" transform="translate(-113.161 -223.781)" fill="#1d2d3a"/>
        <g id="Group_47" data-name="Group 47" transform="translate(24.157 13.454)">
          <path id="Path_72" data-name="Path 72" d="M152.118,252.186c-1.044-1.415-2.9-.221-2.78,1.325a2.614,2.614,0,0,0,1.633,1.936,3.139,3.139,0,0,0,2.53-.061c.286-.124.039-.541-.245-.418a2.608,2.608,0,0,1-3.015-.639,1.419,1.419,0,0,1-.176-1.782.956.956,0,0,1,1.634-.118c.183.249.6.008.418-.244Z" transform="translate(-149.332 -251.555)" fill="#462d4b"/>
        </g>
        <g id="Group_48" data-name="Group 48" transform="translate(18.001 9.932)">
          <path id="Path_73" data-name="Path 73" d="M136.631,244.588a12.155,12.155,0,0,0,2.955,6.08c.216.226.559-.117.342-.343a11.7,11.7,0,0,1-2.83-5.866c-.066-.306-.533-.176-.467.128Z" transform="translate(-136.625 -244.285)" fill="#462d4b"/>
        </g>
        <g id="Group_49" data-name="Group 49" transform="translate(48.465 58.691)">
          <path id="Path_74" data-name="Path 74" d="M199.55,345.3a43.339,43.339,0,0,0,2.664,4.206,10.687,10.687,0,0,1,2.282,4.2c.061.306.528.176.467-.129a9.448,9.448,0,0,0-1.888-3.732,51.209,51.209,0,0,1-3.106-4.795.242.242,0,0,0-.418.245Z" transform="translate(-199.516 -344.943)" fill="#462d4b"/>
        </g>
        <g id="Group_50" data-name="Group 50" transform="translate(50.004 64.575)">
          <path id="Path_75" data-name="Path 75" d="M202.7,357.389c.423,1.377.957,2.717,1.26,4.129.065.306.532.176.467-.128-.3-1.411-.836-2.753-1.26-4.13-.091-.3-.559-.17-.467.129Z" transform="translate(-202.691 -357.09)" fill="#462d4b"/>
        </g>
        <g id="Group_51" data-name="Group 51" transform="translate(51.473 65.556)">
          <path id="Path_76" data-name="Path 76" d="M205.737,359.412a12.724,12.724,0,0,1,.785,2.86,4.307,4.307,0,0,0,.36,1.817.242.242,0,0,0,.419-.244,6.039,6.039,0,0,1-.356-2.224,13.563,13.563,0,0,0-.74-2.337c-.094-.3-.561-.17-.467.129Z" transform="translate(-205.724 -359.115)" fill="#462d4b"/>
        </g>
        <g id="Group_52" data-name="Group 52" transform="translate(48.411 56.521)">
          <path id="Path_77" data-name="Path 77" d="M199.753,342.382a2.625,2.625,0,0,0,1.022-1.615c.053-.306-.414-.437-.467-.129a2.153,2.153,0,0,1-.8,1.325c-.252.18-.011.6.244.419Z" transform="translate(-199.403 -340.462)" fill="#462d4b"/>
        </g>
        <g id="Group_53" data-name="Group 53" transform="translate(31.96 68.005)">
          <path id="Path_78" data-name="Path 78" d="M184.049,364.4a13.376,13.376,0,0,1-1.958,6c-.888,1.71-1.683,3.464-2.7,5.107-2.227,3.605-4.792,7-6.718,10.793a47.914,47.914,0,0,1-3.277,5.3c-1.175,1.719-2.2,3.552-3.412,5.241a1.75,1.75,0,0,0,.05,2.586c.506.527,1.167.914,1.71,1.4.908.813,1.745,1.7,2.655,2.513.232.208.576-.134.342-.342-1.24-1.108-2.355-2.357-3.689-3.355a5.038,5.038,0,0,1-1.016-.947c-.469-.607.232-1.424.555-1.873.544-.76.987-1.6,1.489-2.383,1.04-1.63,2.164-3.207,3.239-4.814,1.157-1.731,1.972-3.641,3.073-5.4,1.025-1.641,1.99-3.317,3.047-4.937,1.083-1.66,2.254-3.247,3.221-4.981.929-1.666,1.764-3.428,2.6-5.147a11.131,11.131,0,0,0,1.276-4.761.242.242,0,0,0-.484,0Z" transform="translate(-165.442 -364.171)" fill="#462d4b"/>
        </g>
      </g>
      <g id="Group_62" data-name="Group 62" transform="translate(20.727 164.271)">
        <path id="Path_79" data-name="Path 79" d="M65.84,370.543c1.112-.31,4.633-4.263,7.661-5.931s4.264-1.792,4.573-1.669-.433,1.236-1.977,3.522S71.957,370.728,65.84,370.543Z" transform="translate(-43.987 -339.752)" fill="#a4cdbb"/>
        <path id="Path_80" data-name="Path 80" d="M62.015,355.809c1.173-1.669,4.324-10.813,7.1-14.149s4.2-3.892,4.077-3.275.185,6.3-3.337,10.565A34.575,34.575,0,0,1,62.015,355.809Z" transform="translate(-42.015 -326.995)" fill="#a4cdbb"/>
        <path id="Path_81" data-name="Path 81" d="M61.759,339.808c.752-2.1.157-6.178.121-10.751s1.9-8.762,3.7-10.3c.436-.616.309-.061.232,2.781s.322,8.9-.622,11.737-2.07,5.735-3.433,6.53h0" transform="translate(-41.57 -316.874)" fill="#a4cdbb"/>
        <path id="Path_82" data-name="Path 82" d="M54.283,339.78c-.494-1.484-2.162-1.668-3.645-8.341s-.988-14.642-.433-16,.927,1.729,1.791,4.634a53.958,53.958,0,0,1,2.225,10.875c.124,3.089.062,8.835.062,8.835" transform="translate(-35.643 -315.106)" fill="#a4cdbb"/>
        <path id="Path_83" data-name="Path 83" d="M42.406,355.8a27.194,27.194,0,0,1-9.823-8.526c-3.151-4.7-2.594-5.808-3.276-6.8s.8-.494,2.472.681,4.819,3.521,5.808,6.487S41.48,354.011,42.406,355.8Z" transform="translate(-25.064 -327.916)" fill="#a4cdbb"/>
        <path id="Path_84" data-name="Path 84" d="M35.846,367.8c-3.4-.186-7.6-.865-11.06-3.522s-4.819-5.19-3.644-5.128,8.525,1.545,11.677,5.313S35.846,367.8,35.846,367.8Z" transform="translate(-20.727 -337.816)" fill="#a4cdbb"/>
        <g id="Group_55" data-name="Group 55" transform="translate(16.052 13.128)">
          <path id="Path_85" data-name="Path 85" d="M53.871,342.511c.327,1.626.514,3.3,1,4.885a36.5,36.5,0,0,1,1.182,5.232,39.784,39.784,0,0,1,.417,5.774,22.27,22.27,0,0,1-.154,2.635,18.358,18.358,0,0,1-.281,2.846.242.242,0,0,0,.467.129,21.04,21.04,0,0,0,.442-4.7,39.509,39.509,0,0,0-.293-5.847,35.016,35.016,0,0,0-1.058-5.333c-.533-1.9-.864-3.814-1.254-5.751-.062-.306-.528-.176-.467.129Z" transform="translate(-53.866 -342.207)" fill="#462d4b"/>
        </g>
        <g id="Group_56" data-name="Group 56" transform="translate(18.643 11.526)">
          <path id="Path_86" data-name="Path 86" d="M62.8,339.135a24.262,24.262,0,0,1-.886,8.173c-.816,2.334-2.378,4.542-2.7,7.026-.04.309.445.306.484,0,.343-2.68,2.125-5.154,2.957-7.72.767-2.367.629-5.027.626-7.478a.242.242,0,0,0-.484,0Z" transform="translate(-59.213 -338.901)" fill="#462d4b"/>
        </g>
        <g id="Group_57" data-name="Group 57" transform="translate(18.832 17.219)">
          <path id="Path_87" data-name="Path 87" d="M60.078,364.227a8.259,8.259,0,0,1,1.908-3.051c.765-.991,1.459-2.022,2.14-3.071a43.15,43.15,0,0,0,3.675-7.162c.119-.289-.35-.414-.467-.129a44.722,44.722,0,0,1-3.868,7.419,38.2,38.2,0,0,1-2.372,3.288,6.423,6.423,0,0,0-1.483,2.578c-.069.3.4.433.467.129Z" transform="translate(-59.604 -350.654)" fill="#462d4b"/>
        </g>
        <g id="Group_58" data-name="Group 58" transform="translate(18.601 27.842)">
          <path id="Path_88" data-name="Path 88" d="M59.474,377.285c1.408-1.085,3.592-1.374,5.264-1.957a14.666,14.666,0,0,0,4.547-2.344c.242-.2-.1-.538-.342-.343a15.955,15.955,0,0,1-5.062,2.472c-1.53.527-3.348.75-4.651,1.754-.244.187,0,.609.245.418Z" transform="translate(-59.128 -372.582)" fill="#462d4b"/>
        </g>
        <g id="Group_59" data-name="Group 59" transform="translate(9.49 18.39)">
          <path id="Path_89" data-name="Path 89" d="M40.362,353.421a41.389,41.389,0,0,0,4.177,5.363c.916.934,1.731,1.983,2.589,2.971a14,14,0,0,1,2.378,3.158c.132.283.55.037.418-.244-.933-2-2.742-3.6-4.171-5.245-.843-.971-1.749-1.882-2.574-2.868-.9-1.07-1.6-2.245-2.4-3.379-.179-.253-.6-.011-.419.244Z" transform="translate(-40.318 -353.07)" fill="#462d4b"/>
        </g>
        <g id="Group_60" data-name="Group 60" transform="translate(8.377 25.494)">
          <path id="Path_90" data-name="Path 90" d="M38.1,368.137a48.427,48.427,0,0,0,4.81,3.206c.963.606,1.889,1.27,2.793,1.962.763.585,1.631.968,2.394,1.543.249.189.49-.232.245-.418-.643-.485-1.393-.78-2.035-1.267-.811-.615-1.623-1.22-2.466-1.792-1.789-1.216-3.712-2.21-5.4-3.577-.24-.195-.585.146-.342.343Z" transform="translate(-38.02 -367.736)" fill="#462d4b"/>
        </g>
        <path id="Path_91" data-name="Path 91" d="M38.783,384.041c-2.842.309-1.112,2.781-.372,6.426s1.237,12.172,5.129,13.407,7.476,1.544,10.38.494,3.644-3.769,3.892-6.8.864-9.205,1.05-11.182,1.112-2.533-2.409-2.657S40.879,383.813,38.783,384.041Z" transform="translate(-29.225 -350.47)" fill="#febe50"/>
        <g id="Group_61" data-name="Group 61" transform="translate(9.997 39.326)">
          <path id="Path_92" data-name="Path 92" d="M41.541,396.763a46.993,46.993,0,0,0,9.272.655c1.751-.048,3.5-.144,5.251-.152a6.974,6.974,0,0,0,2.9-.218c.273-.151.029-.57-.245-.418a4.3,4.3,0,0,1-1.355.126c-.749.063-1.512.025-2.264.035-1.43.02-2.86.1-4.29.144a45.242,45.242,0,0,1-9.143-.638c-.305-.052-.436.414-.129.467Z" transform="translate(-41.365 -396.292)" fill="#462d4b"/>
        </g>
      </g>
      <g id="Group_77" data-name="Group 77" transform="translate(197.367 73.674)">
        <path id="Path_93" data-name="Path 93" d="M388.889,198.149c-1.119,0-3.639-.419-3.5,1.12s.279,3.219.42,3.778.7,1.121,2.8.84S388.889,198.149,388.889,198.149Z" transform="translate(-385.384 -164.18)" fill="#ccd1e4"/>
        <path id="Path_94" data-name="Path 94" d="M394.795,195.21c-1.4-.141-3.078-.28-3.078.7s-.14,18.9.139,28,1.261,79.788,1.4,83.147c.14.42,3.64.14,3.64.14s-.42-5.458-.561-12.318,0-59.071-.14-64.25S394.795,195.77,394.795,195.21Z" transform="translate(-388.631 -162.64)" fill="#febe50"/>
        <path id="Path_95" data-name="Path 95" d="M597.011,198.149c1.12,0,3.641-.419,3.5,1.12s-.281,3.219-.421,3.778-.7,1.121-2.8.84S597.011,198.149,597.011,198.149Z" transform="translate(-494.122 -164.18)" fill="#ccd1e4"/>
        <path id="Path_96" data-name="Path 96" d="M590.064,195.21c1.4-.141,3.081-.28,3.081.7s.139,18.9-.14,28-1.26,79.788-1.4,83.147c-.14.42-3.64.14-3.64.14s.421-5.458.56-12.318,0-59.071.14-64.25S590.064,195.77,590.064,195.21Z" transform="translate(-489.834 -162.64)" fill="#febe50"/>
        <path id="Path_97" data-name="Path 97" d="M402.215,129.293c-4.777.386-6.439.28-6.159,5.6s.84,52.632,1.12,59.911.28,7.559,8.678,7.559,75.868-.28,81.187-.28,3.92-2.24,3.92-8.119.28-54.591.28-59.071-.654-6.905-5.226-6.812c-5.605.115-27.68.137-42.238.417S407.569,128.86,402.215,129.293Z" transform="translate(-390.871 -128.078)" fill="#eaeaea"/>
        <g id="Group_63" data-name="Group 63" transform="translate(12.883 12.086)">
          <path id="Path_98" data-name="Path 98" d="M412.423,157.024a6.111,6.111,0,0,1,4.5-3.455c.642-.084-.593,1.253-.75,1.414a10.33,10.33,0,0,1-1.184,1.057l.244.418a22.78,22.78,0,0,1,3.081-2.087c.165-.089,1.844-.891,1.547-.2a2.5,2.5,0,0,1-1.046,1.029l.293.38c2.144-1.713,4.417-.876,6.863-.62a32.052,32.052,0,0,0,3.325.131,12.083,12.083,0,0,0,3.051-.1.242.242,0,0,0-.129-.467,15.152,15.152,0,0,1-3.743.082,26.608,26.608,0,0,1-4.307-.423,6.354,6.354,0,0,0-5.4,1.056c-.218.174.062.519.294.38.418-.251,2.063-1.614,1.125-2.163-.522-.306-1.268.114-1.746.319a16.671,16.671,0,0,0-3.448,2.266c-.243.186-.008.607.244.418.561-.418,3.154-2.383,2.283-3.241-.528-.52-1.913.175-2.406.414a6.807,6.807,0,0,0-3.1,3.148c-.129.281.288.528.418.245Z" transform="translate(-411.98 -153.028)" fill="#462d4b"/>
        </g>
        <g id="Group_64" data-name="Group 64" transform="translate(22.473 5.847)">
          <path id="Path_99" data-name="Path 99" d="M432.336,143.326c-.336-.758.241-1.6.727-2.132.76-.84,1.656-.539,1.738.569.076,1-.253,1.991-.211,2.992a.244.244,0,0,0,.451.123c.233-.426,1.739-3.35,2.188-2.28.295.7.168,2.283,1.512,1.673,1.051-.477,1.435-1.29,2.828-.565a6.374,6.374,0,0,0,2.4.411c1.177.1,2.792.5,3.862-.179.263-.166.021-.586-.244-.419a4.347,4.347,0,0,1-2.508.224,10.7,10.7,0,0,1-3.267-.456,2.477,2.477,0,0,0-1.812-.374c-.9.234-2.006,1.8-2.221-.118-.085-.752-.65-1.3-1.343-.836a7.336,7.336,0,0,0-1.815,2.673l.452.122c-.042-1,.978-4.429-.8-4.6-1.531-.146-2.958,2.061-2.359,3.415.127.285.544.038.418-.245Z" transform="translate(-431.778 -140.149)" fill="#462d4b"/>
        </g>
        <g id="Group_65" data-name="Group 65" transform="translate(21.088 15.809)">
          <path id="Path_100" data-name="Path 100" d="M429.037,161.167c2.324,1.336,4.761,2.552,7.193,3.68a28.588,28.588,0,0,1,5.685,2.853c.247.191.488-.23.244-.419a27.2,27.2,0,0,0-5.684-2.853c-2.439-1.094-4.876-2.348-7.193-3.68a.242.242,0,0,0-.244.418Z" transform="translate(-428.919 -160.714)" fill="#462d4b"/>
        </g>
        <g id="Group_66" data-name="Group 66" transform="translate(32.014 21.222)">
          <path id="Path_101" data-name="Path 101" d="M451.643,174.138a14.455,14.455,0,0,0,3.891,1.128.245.245,0,0,0,.234-.306,12.7,12.7,0,0,0-1.518-2.95c-.146-.276-.564-.032-.418.245a12.238,12.238,0,0,1,1.468,2.834l.234-.307a14.071,14.071,0,0,1-3.762-1.111c-.3-.1-.424.371-.129.467Z" transform="translate(-451.475 -171.889)" fill="#462d4b"/>
        </g>
        <g id="Group_67" data-name="Group 67" transform="translate(22.132 16.413)">
          <path id="Path_102" data-name="Path 102" d="M439.107,163.98c5.485-1.981,12.344-2.812,16.684,1.973,4.112,4.534.845,10.431-3.615,13.142a17.181,17.181,0,0,1-14.137,1.29,10.29,10.29,0,0,1-5.724-4.34c-1.834-3.088-.024-6.1,2.14-8.395.214-.227-.128-.57-.343-.342-1.859,1.971-3.437,4.274-2.949,7.1.438,2.545,2.688,4.5,4.848,5.638a17.6,17.6,0,0,0,15.475-.028c4.592-2.227,8.254-7.378,5.933-12.48-2.711-5.958-10.485-6.331-15.93-4.847-.85.231-1.683.52-2.51.82-.292.105-.166.573.128.466Z" transform="translate(-431.074 -161.96)" fill="#462d4b"/>
        </g>
        <g id="Group_68" data-name="Group 68" transform="translate(16.768 40.917)">
          <path id="Path_103" data-name="Path 103" d="M420.362,213.01h-.127a.242.242,0,0,0,0,.484c1.9,0,3.8-.2,5.707-.18a33.511,33.511,0,0,0,6.43-.3l-.3-.169a9.253,9.253,0,0,1,.364,2.735c.094,1.152.062,2.32.11,3.475a31.417,31.417,0,0,0,.459,5.735l.234-.307c-4.263.2-8.511.724-12.785.653l.242.242c-.075-2.152-.02-4.3-.077-6.456a27.335,27.335,0,0,1,.11-5.666.243.243,0,0,0-.443-.187l-.041.056c-.187.25.233.492.418.244l.041-.055-.443-.187a28.13,28.13,0,0,0-.144,5.345c.016,2.3.013,4.608.093,6.906a.246.246,0,0,0,.242.242c4.274.072,8.522-.451,12.785-.653a.245.245,0,0,0,.233-.307,41.128,41.128,0,0,1-.488-6.442c-.12-1.766.223-3.822-.445-5.5a.251.251,0,0,0-.3-.169,35.281,35.281,0,0,1-6.759.273c-1.756-.019-3.5.185-5.249.185a.242.242,0,0,0,0,.484h.127a.242.242,0,0,0,0-.484Z" transform="translate(-420.001 -212.546)" fill="#462d4b"/>
        </g>
        <g id="Group_69" data-name="Group 69" transform="translate(34.431 43.597)">
          <path id="Path_104" data-name="Path 104" d="M456.949,220.211c.018-.909.949-1.394,1.723-1.591,1.324-.336,1.4.622.812,1.562-.151.241.183.475.38.293.38-.348.719-.737,1.089-1.095a1,1,0,0,1,1.336-.263,6.161,6.161,0,0,1-.039.719.242.242,0,0,0,.242.242,10.754,10.754,0,0,0,2.017-.5,10.351,10.351,0,0,1,2.743-.157c1.031,0,2.139.492,3.144.083.285-.116.161-.585-.129-.467-1.023.416-2.313-.1-3.4-.1-.685,0-1.364.029-2.046.092-.8.074-1.522.486-2.333.56l.242.242c.018-.436.2-1.559-.6-1.483-1.2.114-1.78,1.014-2.614,1.779l.38.294c.659-1.049.747-2.349-.809-2.347-1.173,0-2.6.86-2.628,2.131a.242.242,0,0,0,.484,0Z" transform="translate(-456.465 -218.08)" fill="#462d4b"/>
        </g>
        <g id="Group_70" data-name="Group 70" transform="translate(34.061 48.722)">
          <path id="Path_105" data-name="Path 105" d="M456,229.352a23.631,23.631,0,0,1,6.066-.034c2.278.152,4.561.05,6.841.043a.242.242,0,0,0,0-.484c-2.282.008-4.561.1-6.841-.043a24.617,24.617,0,0,0-6.2.052c-.306.059-.176.526.129.466Z" transform="translate(-455.699 -228.659)" fill="#462d4b"/>
        </g>
        <g id="Group_71" data-name="Group 71" transform="translate(33.319 52.174)">
          <path id="Path_106" data-name="Path 106" d="M454.4,236.768c2.308-.016,4.6-.247,6.9-.431,2.266-.182,4.549.044,6.818.057a.242.242,0,0,0,0-.485c-2.27-.013-4.55-.23-6.818-.057-2.3.175-4.592.414-6.9.431a.242.242,0,0,0,0,.484Z" transform="translate(-454.169 -235.786)" fill="#462d4b"/>
        </g>
        <g id="Group_72" data-name="Group 72" transform="translate(17.829 59.951)">
          <path id="Path_107" data-name="Path 107" d="M422.424,253.163c5.637-.015,11.256-.547,16.891-.652,5.875-.109,11.761-.182,17.637-.187a.242.242,0,0,0,0-.484c-5.721,0-11.439.172-17.16.187-5.8.014-11.571.637-17.368.652a.242.242,0,0,0,0,.484Z" transform="translate(-422.19 -251.84)" fill="#462d4b"/>
        </g>
        <g id="Group_73" data-name="Group 73" transform="translate(55.252 43.939)">
          <path id="Path_108" data-name="Path 108" d="M499.8,222.743A11.824,11.824,0,0,1,503.378,221c.745-.2,2.231-.138,1.709,1.082a2.555,2.555,0,0,1-1.144,1.18l.332.332a10.4,10.4,0,0,1,5.22-3.539c.363-.11,1.378-.463,1.579.1.111.311-.121.785-.242,1.057a5.557,5.557,0,0,1-1.057,1.528c-.185.194.057.536.293.381,1.386-.911,2.567-2.087,3.948-3a5.083,5.083,0,0,1,1.266-.621c.977-.309,1.247.555,1.245,1.29a1.312,1.312,0,0,0,.436,1.013c.843.638,2.038.306,2.973.076a20.464,20.464,0,0,1,5.408-.867l-.209-.364-.228.168c-.285.116-.161.585.129.467.308-.125.34-.125.517-.39a.245.245,0,0,0-.209-.365,18.931,18.931,0,0,0-5.043.757,10.957,10.957,0,0,1-2.1.4c-1.4.07-1.018-1.367-1.3-2.282-.719-2.349-6.4,2.862-7.075,3.307l.294.38c.505-.53,2.483-3.191.9-3.633-1.1-.307-2.417.357-3.387.825a10.554,10.554,0,0,0-3.772,3.076c-.158.207.137.435.331.331.755-.4,2.335-2.152,1.15-2.946-1.694-1.137-4.4.657-5.78,1.594-.257.174-.015.594.244.418Z" transform="translate(-499.448 -218.785)" fill="#462d4b"/>
        </g>
        <g id="Group_74" data-name="Group 74" transform="translate(53.013 53.418)">
          <path id="Path_109" data-name="Path 109" d="M495.055,240.612c4.742-.611,9.519-.814,14.293-.992,4.823-.18,9.617-.763,14.449-.78a.242.242,0,0,0,0-.484c-4.832.017-9.626.6-14.449.78-4.774.177-9.551.381-14.293.992-.306.039-.309.524,0,.484Z" transform="translate(-494.825 -238.355)" fill="#462d4b"/>
        </g>
        <g id="Group_75" data-name="Group 75" transform="translate(59.257 58.27)">
          <path id="Path_110" data-name="Path 110" d="M508.018,251.273a97.193,97.193,0,0,1,11.956-1.307c3.994-.258,7.961-1.071,11.963-1.111a.242.242,0,0,0,0-.484c-4.146.042-8.269.872-12.407,1.14a94.705,94.705,0,0,0-11.641,1.295c-.306.059-.176.525.129.467Z" transform="translate(-507.715 -248.371)" fill="#462d4b"/>
        </g>
        <path id="Path_111" data-name="Path 111" d="M501.194,146.389c-.228,1.488.131,9.813.131,10.468s.262,1.178,1.5,1.112,8.7,0,9.683-.065,1.047.131,1.177-1.113-.2-9.682-.261-10.271-.328-1.047-1.766-.981-8.506-.131-9.094-.066S501.325,145.539,501.194,146.389Z" transform="translate(-445.057 -137.039)" fill="#febe50"/>
        <path id="Path_112" data-name="Path 112" d="M538.13,153.275c-.1,1.7.261,10.533.523,12.758s.2,2.224,2.813,2.29,10.6.065,12.1,0,1.832-.524,1.7-2.486-.066-12.1-.131-12.692-.066-1.309-1.832-1.309-10.4.327-13.543.2C538.9,152,538.2,152.162,538.13,153.275Z" transform="translate(-464.131 -140.327)" fill="#ccd1e4"/>
        <path id="Path_113" data-name="Path 113" d="M503.789,183.132c-.069,1.175-.066,4.842,0,7.393s.392,2.552,1.9,2.618,6.542-.131,8.047-.131,1.635-.916,1.635-2.813,0-5.823-.065-6.935-.653-1.178-1.5-1.178-7.459-.131-8.244-.131S503.854,182.019,503.789,183.132Z" transform="translate(-446.408 -155.856)" fill="#a4cdbb"/>
        <g id="Group_76" data-name="Group 76" transform="translate(16.058 66.296)">
          <path id="Path_114" data-name="Path 114" d="M418.766,266.917c4.932-.567,9.876-.709,14.834-.853,2.492-.073,4.986-.091,7.478-.2,2.55-.107,5.091-.422,7.643-.445a.242.242,0,0,0,0-.484c-2.4.022-4.785.3-7.178.424-2.49.129-4.987.144-7.479.2-5.111.123-10.215.281-15.3.865-.307.035-.31.52,0,.484Z" transform="translate(-418.534 -264.94)" fill="#462d4b"/>
        </g>
      </g>
      <g id="Group_93" data-name="Group 93" transform="translate(280.357 74.843)">
        <path id="Path_115" data-name="Path 115" d="M568.26,218.983c-1.725-1.053-3.545-2.778-5.077-2.682a5.234,5.234,0,0,1-4.407-2.107c-1.437-1.629-1.054-1.917-.383-1.917s1.916,1.916,2.778,1.725-.2-1.992-1.82-2.2c-1.861-.242-2.669-.884-2.641-1.217s1.142-.7,2.9-.223c2.983-.2,4.533,1.057,6.449,2.016s3.737,1.053,4.694,1.437S568.26,218.983,568.26,218.983Z" transform="translate(-556.709 -171.554)" fill="#e08e5a"/>
        <path id="Path_116" data-name="Path 116" d="M625.724,410.7l-5.556,1.246a15.612,15.612,0,0,1-.3,2.652c-1.69,1.469-6.906,2.481-7.918,4.363-1.066,1.979,1.979,2.057,5.938,1.827s6.61-.684,7.829-1.217C625.944,419.286,625.724,410.7,625.724,410.7Z" transform="translate(-585.081 -274.966)" fill="#1d2d3a"/>
        <path id="Path_117" data-name="Path 117" d="M670.227,413.844c0,.5.5,3.089.5,3.089-2.116,2.317-6.646,6.387-5.571,8.235s9.641-2.883,11.061-3.795c.94-.6.319-1.954.89-7.7C677.318,411.6,670.227,413.844,670.227,413.844Z" transform="translate(-612.542 -276.047)" fill="#1d2d3a"/>
        <path id="Path_118" data-name="Path 118" d="M631.752,271.814c-1.437,3.832-3.64,11.879-6.226,18.776s-2.876,11.686-2.683,18.3-.68,24.056-.191,28.453c.255,2.292-.316,3.8,1.4,3.8.383,0,6.938-.545,8.471-.259s1.532-.958,1.532-3.544.192-17.531-.191-22.129-.958-8.622,1.054-13.891,6.9-14.752,6.9-14.752c.766,2.395,2.016,18.326,2.176,22.926s1.468,29.288,1.577,30.72.357,2.184.747,2.25,8.238-.341,9.193-.412.912-.647.861-2.564.362-26.738.2-32.588-.291-29.912-.481-34.8C651.008,271.718,635.776,269.036,631.752,271.814Z" transform="translate(-590.631 -202.715)" fill="#0301ad"/>
        <path id="Path_119" data-name="Path 119" d="M700.026,275.975c.192,2.108,0,4.982-.862,6.418s-1.533,4.024-.766,3.928,1.628-4.119,2.394-3.353-.383,6.419.863,6.994,1.437-1.054,1.437-1.054c1.629-.1,1.437-.862,1.437-.862,1.629-.575,1.629-1.916,1.532-4.12a23.927,23.927,0,0,1,.575-6.8C707.211,274.73,700.985,274.633,700.026,275.975Z" transform="translate(-629.59 -205.056)" fill="#e08e5a"/>
        <path id="Path_120" data-name="Path 120" d="M638.785,136.517a5.592,5.592,0,0,0-1.437,6.131c.671,2.012.958,3.064-.1,4.406s-1.436,1.917.1,2.491,1.054.574,1.437,1.341,1.15.1,2.108-.766c0,1.916-1.149,1.917-.863,2.587s1.15,2.107,2.3,2.394a3.489,3.489,0,0,0,2.97-.863c0,3.544-.48,4.6-.863,4.982,3.161,1.82,8.239-.478,11.209-3.065-2.682-1.724-3.065-3.928-2.969-8.718S651.24,128.567,638.785,136.517Z" transform="translate(-597.76 -132.368)" fill="#e08e5a"/>
        <path id="Path_121" data-name="Path 121" d="M642.514,131.765c-2.96,1.143-4.311,2.97-2.778,3.545s5.268-.577,5.268.669-.575,2.684.575,3.354,2.3.1,2.2,1.245-.383,3.066.48,3.353,1.341-.1,1.437-.67.289-1.82,1.82-1.533,1.246,2.108.1,3.065-.575.958.958,2.2,1.725,1.341,3.257-2.012,2.587-7.856.192-10.825S649.7,128.988,642.514,131.765Z" transform="translate(-599.189 -130.49)" fill="#1d2d3a"/>
        <path id="Path_122" data-name="Path 122" d="M615.644,180.349c1.532.958,2.969,1.724,6.13,0s2.013-2.778,4.12-2.012,4.98.48,7.567,1.342,6.227,5.747,8.048,13.027,4.214,9.964,5.077,15.041,1.533,15.423-.1,19.16c-.573.767-2.969-.958-5.843-.479s-1.821-1.437-2.2-3.641a70.014,70.014,0,0,1-.192-9.963,8.9,8.9,0,0,0-1.532-5.843c-.383,5.268,1.15,13.7-2.971,14.945.383,1.916.289,2.969,0,2.969a72.283,72.283,0,0,1-11.5-.287c-4.885-.671-11.016-.958-12.645-.479-.383-.1.287-2.012.287-2.012-1.533-.383-2.49-1.149-2.011-4.789a47.347,47.347,0,0,0,.094-10.442c-5.843,2.778-6.035,1.725-12.166,1.628s-12.262-3.354-16.19-6.036c-.384-1.82.863-5.077,1.82-5.46s12.549,2.586,16.286,1.341,6.227-7.089,8.238-10.249,4.982-5.46,7.952-5.939A5.48,5.48,0,0,0,615.644,180.349Z" transform="translate(-568.486 -155.029)" fill="#febe50"/>
        <g id="Group_78" data-name="Group 78" transform="translate(39.939 9.097)">
          <path id="Path_123" data-name="Path 123" d="M639.529,149.992c.472-.219,1.6-.451,1.968.056.182.249.6.008.418-.245-.56-.768-1.881-.579-2.63-.23-.283.131-.037.549.244.418Z" transform="translate(-639.16 -149.27)" fill="#462d4b"/>
        </g>
        <g id="Group_79" data-name="Group 79" transform="translate(41.444 12.39)">
          <path id="Path_124" data-name="Path 124" d="M642.976,156.852a1.258,1.258,0,0,1-.205-.262c-.01-.018-.029-.061-.017-.085-.029.062-.183.01-.108.052a.73.73,0,0,1,.271.46c.024.113-.1.036.092.062.053.007.047.04.015-.008a.638.638,0,0,1-.065-.133,1.748,1.748,0,0,1-.127-.56l-.307.233c.164.05.335.16.262.348-.114.292.355.417.467.129a.758.758,0,0,0-.6-.944.243.243,0,0,0-.306.234,1.6,1.6,0,0,0,.38,1.085.372.372,0,0,0,.536-.051.6.6,0,0,0,.112-.561c-.07-.323-.4-.857-.8-.773a.453.453,0,0,0-.311.475,1.042,1.042,0,0,0,.367.643.242.242,0,0,0,.342-.343Z" transform="translate(-642.266 -156.068)" fill="#462d4b"/>
        </g>
        <g id="Group_80" data-name="Group 80" transform="translate(46.341 24.447)">
          <path id="Path_125" data-name="Path 125" d="M652.551,184.173c.982.148,1.8.836,2.834.96a10.37,10.37,0,0,0,3.684-.335,11.944,11.944,0,0,0,5.787-3.417c.205-.233-.136-.577-.343-.342a12.064,12.064,0,0,1-5.183,3.184,10.356,10.356,0,0,1-3.536.476c-1.168-.053-2.016-.827-3.115-.992-.306-.045-.437.421-.129.467Z" transform="translate(-652.375 -180.96)" fill="#462d4b"/>
        </g>
        <g id="Group_81" data-name="Group 81" transform="translate(38.281 40.629)">
          <path id="Path_126" data-name="Path 126" d="M635.748,214.6c-.153,4.62,1.28,9.117,1.077,13.724-.014.312.471.311.484,0,.2-4.609-1.229-9.1-1.077-13.724.01-.312-.474-.311-.484,0Z" transform="translate(-635.736 -214.366)" fill="#462d4b"/>
        </g>
        <g id="Group_82" data-name="Group 82" transform="translate(63.643 43.652)">
          <path id="Path_127" data-name="Path 127" d="M688.138,220.957a15.424,15.424,0,0,1,.979,1.946c.365.707.791,1.383,1.177,2.078a42.8,42.8,0,0,1,2.633,4.9c.115.287.583.162.467-.129a36.9,36.9,0,0,0-2.478-4.649q-.6-1.04-1.186-2.086a25.338,25.338,0,0,0-1.174-2.3c-.179-.252-.6-.011-.419.245Z" transform="translate(-688.093 -220.605)" fill="#462d4b"/>
        </g>
        <g id="Group_83" data-name="Group 83" transform="translate(70.627 69.317)">
          <path id="Path_128" data-name="Path 128" d="M702.815,274.251a13.076,13.076,0,0,1,3.169-.136,23.717,23.717,0,0,1,3.385.782c.306.05.436-.417.128-.467a31.158,31.158,0,0,0-3.113-.777,13.241,13.241,0,0,0-3.7.13c-.3.07-.175.537.129.468Z" transform="translate(-702.512 -273.588)" fill="#462d4b"/>
        </g>
        <g id="Group_84" data-name="Group 84" transform="translate(41.898 66.196)">
          <path id="Path_129" data-name="Path 129" d="M643.5,268.2c3.51-1.3,6.886-.063,10.441.231,1.813.15,3.636.153,5.447.32a20.814,20.814,0,0,0,4.877.168c.308-.044.176-.511-.129-.468a27.012,27.012,0,0,1-5.645-.257c-1.817-.124-3.637-.155-5.45-.328-3.355-.321-6.348-1.367-9.67-.134-.291.108-.165.577.129.467Z" transform="translate(-643.203 -267.146)" fill="#462d4b"/>
        </g>
        <g id="Group_85" data-name="Group 85" transform="translate(12.643 42.267)">
          <path id="Path_130" data-name="Path 130" d="M585.466,217.824a12.333,12.333,0,0,0-2.649,5.567c-.072.3.4.432.468.129a11.845,11.845,0,0,1,2.524-5.353c.206-.233-.136-.577-.343-.342Z" transform="translate(-582.809 -217.746)" fill="#462d4b"/>
        </g>
        <g id="Group_86" data-name="Group 86" transform="translate(72.477 79.211)">
          <path id="Path_131" data-name="Path 131" d="M707.352,294.249a21.3,21.3,0,0,1-.247,2.864,5.129,5.129,0,0,1-.726,2.546c-.189.249.232.49.418.244a4.213,4.213,0,0,0,.713-2.131,32.48,32.48,0,0,0,.327-3.523.242.242,0,0,0-.484,0Z" transform="translate(-706.332 -294.015)" fill="#462d4b"/>
        </g>
        <g id="Group_87" data-name="Group 87" transform="translate(74.3 79.14)">
          <path id="Path_132" data-name="Path 132" d="M710.728,294.1c.013,1.29.318,2.921-.575,4-.2.238.143.583.343.342,1.005-1.209.732-2.882.716-4.338a.242.242,0,0,0-.484,0Z" transform="translate(-710.093 -293.867)" fill="#462d4b"/>
        </g>
        <g id="Group_88" data-name="Group 88" transform="translate(58.559 70.081)">
          <path id="Path_133" data-name="Path 133" d="M677.6,275.47c.422,2.645.953,10.067,5.529,8.048.285-.126.039-.543-.244-.418-4.077,1.8-4.451-5.467-4.817-7.759-.049-.307-.516-.177-.468.129Z" transform="translate(-677.598 -275.166)" fill="#462d4b"/>
        </g>
        <g id="Group_89" data-name="Group 89" transform="translate(47.643 69.585)">
          <path id="Path_134" data-name="Path 134" d="M655.778,274.311a18.719,18.719,0,0,0-.51,4.233c-.061.716-.025,1.436-.072,2.155a3.313,3.313,0,0,0-.064,1.429.248.248,0,0,0,.234.178c.513,0,.993-.141,1.509-.144a.241.241,0,0,0,.233-.178,27.641,27.641,0,0,0,.391-3.271,31.234,31.234,0,0,1,.9-3.841c.066-.3-.4-.435-.468-.129-.249,1.162-.685,2.269-.862,3.448-.092.608.02,3.377-.638,3.5-.6.111-.84-.136-.782-.71.068-.668.06-1.333.073-2a16.083,16.083,0,0,1,.521-4.535c.1-.3-.372-.425-.467-.129Z" transform="translate(-655.062 -274.142)" fill="#462d4b"/>
        </g>
        <g id="Group_90" data-name="Group 90" transform="translate(39 69.158)">
          <path id="Path_135" data-name="Path 135" d="M637.645,280.559a13.19,13.19,0,0,0,2.881-2.6c.862-1.285,1.106-2.977,1.636-4.406.108-.294-.36-.419-.468-.129a40.106,40.106,0,0,1-1.412,3.965c-.633,1.28-1.922,1.947-2.98,2.825-.24.2.1.54.343.343Z" transform="translate(-637.221 -273.261)" fill="#462d4b"/>
        </g>
        <g id="Group_91" data-name="Group 91" transform="translate(47.505 82.38)">
          <path id="Path_136" data-name="Path 136" d="M655.069,301.3a8.117,8.117,0,0,1,3.241-.208.242.242,0,0,0,0-.484,8.465,8.465,0,0,0-3.37.225c-.284.117-.16.586.129.468Z" transform="translate(-654.779 -300.555)" fill="#462d4b"/>
        </g>
        <g id="Group_92" data-name="Group 92" transform="translate(40.697 83.029)">
          <path id="Path_137" data-name="Path 137" d="M649.465,302.022c-3.594,7.8-8.52,15.306-8.734,24.169-.056,2.338.193,4.678.34,7.009.161,2.557.154,5.122.2,7.682.088,4.941.4,9.869.4,14.813a.242.242,0,0,0,.484,0c-.005-4.786-.277-9.555-.392-14.337-.058-2.4-.053-4.809-.158-7.213-.1-2.342-.348-4.674-.392-7.019-.169-9.124,4.993-16.878,8.669-24.86.129-.281-.288-.528-.419-.244Z" transform="translate(-640.723 -301.896)" fill="#462d4b"/>
        </g>
      </g>
    </g>
  </g>
</svg>
