<svg xmlns="http://www.w3.org/2000/svg" width="335" height="244.893" viewBox="0 0 335 244.893">
  <g id="Group_201" data-name="Group 201" transform="translate(-382 -324.5)">
    <rect id="Rectangle_2" data-name="Rectangle 2" width="22.192" height="0.167" transform="translate(661.242 554.672)" fill="#ebebeb"/>
    <rect id="Rectangle_3" data-name="Rectangle 3" width="5.825" height="0.167" transform="translate(598.093 556.49)" fill="#ebebeb"/>
    <rect id="Rectangle_4" data-name="Rectangle 4" width="12.859" height="0.167" transform="translate(647.712 548.451)" fill="#ebebeb"/>
    <rect id="Rectangle_5" data-name="Rectangle 5" width="28.94" height="0.167" transform="translate(417.147 549.576)" fill="#ebebeb"/>
    <rect id="Rectangle_6" data-name="Rectangle 6" width="4.243" height="0.167" transform="translate(452.052 549.576)" fill="#ebebeb"/>
    <rect id="Rectangle_7" data-name="Rectangle 7" width="62.763" height="0.167" transform="translate(470.086 552.405)" fill="#ebebeb"/>
    <path id="Path_138" data-name="Path 138" d="M171.408,244.46H42.031a3.829,3.829,0,0,1-3.824-3.824V58.777a3.828,3.828,0,0,1,3.824-3.824H171.408a3.828,3.828,0,0,1,3.824,3.824V240.636A3.829,3.829,0,0,1,171.408,244.46ZM42.031,55.12a3.66,3.66,0,0,0-3.657,3.656V240.636a3.661,3.661,0,0,0,3.657,3.657H171.408a3.66,3.66,0,0,0,3.656-3.657V58.777a3.66,3.66,0,0,0-3.656-3.656Z" transform="translate(369.392 269.547)" fill="#ebebeb"/>
    <path id="Path_139" data-name="Path 139" d="M387.7,244.46H258.329a3.828,3.828,0,0,1-3.824-3.824V58.777a3.828,3.828,0,0,1,3.824-3.824H387.7a3.829,3.829,0,0,1,3.825,3.824V240.636A3.829,3.829,0,0,1,387.7,244.46ZM258.329,55.12a3.66,3.66,0,0,0-3.656,3.656V240.636a3.66,3.66,0,0,0,3.656,3.657H387.7a3.661,3.661,0,0,0,3.658-3.657V58.777A3.661,3.661,0,0,0,387.7,55.12Z" transform="translate(298.013 269.547)" fill="#ebebeb"/>
    <rect id="Rectangle_8" data-name="Rectangle 8" width="335" height="0.167" transform="translate(382 543.888)" fill="#ebebeb"/>
    <rect id="Rectangle_9" data-name="Rectangle 9" width="47.74" height="161.946" transform="translate(639.552 335.501)" fill="#fafafa"/>
    <rect id="Rectangle_10" data-name="Rectangle 10" width="59.685" height="103.205" transform="translate(628.824 392.826)" fill="#e0e0e0"/>
    <path id="Path_140" data-name="Path 140" d="M385.5,135.407v25.884h36.761V135.407Z" transform="translate(254.784 242.997)" fill="#e0e0e0"/>
    <rect id="Rectangle_11" data-name="Rectangle 11" width="7.641" height="7.641" transform="translate(632.644 396.647)" fill="#fafafa"/>
    <rect id="Rectangle_12" data-name="Rectangle 12" width="7.641" height="7.641" transform="translate(647.445 396.647)" fill="#fafafa"/>
    <rect id="Rectangle_13" data-name="Rectangle 13" width="7.641" height="7.641" transform="translate(662.246 396.647)" fill="#fafafa"/>
    <rect id="Rectangle_14" data-name="Rectangle 14" width="7.641" height="7.641" transform="translate(677.047 396.647)" fill="#f0f0f0"/>
    <rect id="Rectangle_15" data-name="Rectangle 15" width="7.641" height="7.642" transform="translate(632.644 410.531)" fill="#f0f0f0"/>
    <rect id="Rectangle_16" data-name="Rectangle 16" width="7.641" height="7.642" transform="translate(647.445 410.531)" fill="#f0f0f0"/>
    <rect id="Rectangle_17" data-name="Rectangle 17" width="7.641" height="7.642" transform="translate(662.246 410.531)" fill="#fafafa"/>
    <rect id="Rectangle_18" data-name="Rectangle 18" width="7.641" height="7.642" transform="translate(677.047 410.531)" fill="#fafafa"/>
    <rect id="Rectangle_19" data-name="Rectangle 19" width="7.641" height="7.641" transform="translate(632.644 424.415)" fill="#f0f0f0"/>
    <rect id="Rectangle_20" data-name="Rectangle 20" width="7.641" height="7.641" transform="translate(647.445 424.415)" fill="#fafafa"/>
    <rect id="Rectangle_21" data-name="Rectangle 21" width="7.641" height="7.641" transform="translate(662.246 424.415)" fill="#fafafa"/>
    <rect id="Rectangle_22" data-name="Rectangle 22" width="7.641" height="7.641" transform="translate(647.445 384.646)" fill="#fafafa"/>
    <rect id="Rectangle_23" data-name="Rectangle 23" width="7.641" height="7.641" transform="translate(662.246 384.646)" fill="#f0f0f0"/>
    <rect id="Rectangle_24" data-name="Rectangle 24" width="7.641" height="7.641" transform="translate(677.047 424.415)" fill="#f0f0f0"/>
    <rect id="Rectangle_25" data-name="Rectangle 25" width="7.641" height="7.641" transform="translate(632.644 438.299)" fill="#fafafa"/>
    <rect id="Rectangle_26" data-name="Rectangle 26" width="7.641" height="7.641" transform="translate(647.445 438.299)" fill="#f0f0f0"/>
    <rect id="Rectangle_27" data-name="Rectangle 27" width="7.641" height="7.641" transform="translate(662.246 438.299)" fill="#f0f0f0"/>
    <rect id="Rectangle_28" data-name="Rectangle 28" width="7.641" height="7.641" transform="translate(677.047 438.299)" fill="#fafafa"/>
    <rect id="Rectangle_29" data-name="Rectangle 29" width="7.641" height="7.641" transform="translate(632.644 452.183)" fill="#f0f0f0"/>
    <rect id="Rectangle_30" data-name="Rectangle 30" width="7.641" height="7.641" transform="translate(647.445 452.183)" fill="#fafafa"/>
    <rect id="Rectangle_31" data-name="Rectangle 31" width="7.641" height="7.641" transform="translate(662.246 452.183)" fill="#fafafa"/>
    <rect id="Rectangle_32" data-name="Rectangle 32" width="7.641" height="7.641" transform="translate(677.047 452.183)" fill="#f0f0f0"/>
    <rect id="Rectangle_33" data-name="Rectangle 33" width="7.641" height="7.641" transform="translate(632.644 466.067)" fill="#f0f0f0"/>
    <rect id="Rectangle_34" data-name="Rectangle 34" width="7.641" height="7.641" transform="translate(647.445 466.067)" fill="#fafafa"/>
    <rect id="Rectangle_35" data-name="Rectangle 35" width="7.641" height="7.641" transform="translate(662.246 466.067)" fill="#f0f0f0"/>
    <rect id="Rectangle_36" data-name="Rectangle 36" width="7.641" height="7.641" transform="translate(677.047 466.067)" fill="#fafafa"/>
    <rect id="Rectangle_37" data-name="Rectangle 37" width="7.641" height="7.642" transform="translate(632.644 479.951)" fill="#fafafa"/>
    <rect id="Rectangle_38" data-name="Rectangle 38" width="7.641" height="7.642" transform="translate(647.445 479.951)" fill="#fafafa"/>
    <rect id="Rectangle_39" data-name="Rectangle 39" width="7.641" height="7.642" transform="translate(662.246 479.951)" fill="#f0f0f0"/>
    <rect id="Rectangle_40" data-name="Rectangle 40" width="7.641" height="7.642" transform="translate(677.047 479.951)" fill="#f0f0f0"/>
    <rect id="Rectangle_41" data-name="Rectangle 41" width="47.74" height="161.946" transform="translate(639.458 335.501)" fill="#fff" opacity="0.1"/>
    <path id="Path_141" data-name="Path 141" d="M432.85,71.373H417.629L400.978,233.319H416.2Z" transform="translate(249.677 264.128)" fill="#fff"/>
    <rect id="Rectangle_42" data-name="Rectangle 42" width="48.539" height="4.107" transform="translate(639.152 333.448)" fill="#e0e0e0"/>
    <rect id="Rectangle_43" data-name="Rectangle 43" width="48.539" height="4.107" transform="translate(639.152 496.031)" fill="#ebebeb"/>
    <path id="Path_142" data-name="Path 142" d="M433.154,236.524H380.531V62.321h52.623Zm-48.611-4.011h44.6V66.332h-44.6Z" transform="translate(256.425 267.115)" fill="#ebebeb"/>
    <rect id="Rectangle_44" data-name="Rectangle 44" width="47.74" height="161.946" transform="translate(587.483 335.501)" fill="#fafafa"/>
    <rect id="Rectangle_45" data-name="Rectangle 45" width="40.822" height="50.094" transform="translate(590.787 446.496)" fill="#e6e6e6"/>
    <path id="Path_143" data-name="Path 143" d="M360,245.33H345.273v5.226H360Z" transform="translate(268.06 206.722)" fill="#e6e6e6"/>
    <path id="Path_144" data-name="Path 144" d="M360,260.44H345.273v5.226H360Z" transform="translate(268.06 201.736)" fill="#fafafa"/>
    <path id="Path_145" data-name="Path 145" d="M360,275.549H345.273v5.226H360Z" transform="translate(268.06 196.75)" fill="#e6e6e6"/>
    <path id="Path_146" data-name="Path 146" d="M360,290.658H345.273v5.227H360Z" transform="translate(268.06 191.764)" fill="#fafafa"/>
    <path id="Path_147" data-name="Path 147" d="M331.649,245.33H316.926v5.226h14.723Z" transform="translate(277.414 206.722)" fill="#fafafa"/>
    <path id="Path_148" data-name="Path 148" d="M331.649,260.44H316.926v5.226h14.723Z" transform="translate(277.414 201.736)" fill="#fafafa"/>
    <path id="Path_149" data-name="Path 149" d="M331.649,275.549H316.926v5.226h14.723Z" transform="translate(277.414 196.75)" fill="#e6e6e6"/>
    <path id="Path_150" data-name="Path 150" d="M331.649,290.658H316.926v5.227h14.723Z" transform="translate(277.414 191.764)" fill="#fafafa"/>
    <rect id="Rectangle_46" data-name="Rectangle 46" width="47.74" height="161.946" transform="translate(587.328 335.501)" fill="#fff" opacity="0.1"/>
    <path id="Path_151" data-name="Path 151" d="M355.134,71.373h-15.22L323.263,233.319h15.22Z" transform="translate(275.323 264.128)" fill="#fff"/>
    <rect id="Rectangle_47" data-name="Rectangle 47" width="48.539" height="4.107" transform="translate(587.083 333.448)" fill="#e0e0e0"/>
    <rect id="Rectangle_48" data-name="Rectangle 48" width="48.539" height="4.107" transform="translate(587.083 496.031)" fill="#ebebeb"/>
    <path id="Path_152" data-name="Path 152" d="M355.438,236.524H302.816V62.321h52.622Zm-48.611-4.011h44.6V66.332h-44.6Z" transform="translate(282.071 267.115)" fill="#ebebeb"/>
    <rect id="Rectangle_49" data-name="Rectangle 49" width="47.74" height="161.946" transform="translate(462.403 335.501)" fill="#fafafa"/>
    <rect id="Rectangle_50" data-name="Rectangle 50" width="47.74" height="161.946" transform="translate(462.309 335.501)" fill="#fff" opacity="0.1"/>
    <path id="Path_153" data-name="Path 153" d="M168.448,71.373H153.228L136.577,233.319H151.8Z" transform="translate(336.93 264.128)" fill="#fff"/>
    <rect id="Rectangle_51" data-name="Rectangle 51" width="48.539" height="4.107" transform="translate(462.003 333.448)" fill="#e0e0e0"/>
    <rect id="Rectangle_52" data-name="Rectangle 52" width="48.539" height="4.107" transform="translate(462.003 496.031)" fill="#ebebeb"/>
    <path id="Path_154" data-name="Path 154" d="M168.753,236.524H116.13V62.321h52.622Zm-48.611-4.011h44.6V66.332h-44.6Z" transform="translate(343.677 267.115)" fill="#ebebeb"/>
    <rect id="Rectangle_53" data-name="Rectangle 53" width="47.74" height="161.946" transform="translate(410.404 335.501)" fill="#fafafa"/>
    <rect id="Rectangle_54" data-name="Rectangle 54" width="36.949" height="31.006" transform="translate(413.995 404.08)" fill="#e6e6e6"/>
    <rect id="Rectangle_55" data-name="Rectangle 55" width="4.731" height="4.731" transform="translate(416.36 407.944)" fill="#fafafa"/>
    <rect id="Rectangle_56" data-name="Rectangle 56" width="4.73" height="4.731" transform="translate(425.523 407.944)" fill="#fafafa"/>
    <rect id="Rectangle_57" data-name="Rectangle 57" width="4.73" height="4.731" transform="translate(434.686 407.944)" fill="#fafafa"/>
    <rect id="Rectangle_58" data-name="Rectangle 58" width="4.731" height="4.731" transform="translate(443.848 407.944)" fill="#fafafa"/>
    <rect id="Rectangle_59" data-name="Rectangle 59" width="4.731" height="4.731" transform="translate(416.36 416.539)" fill="#fafafa"/>
    <rect id="Rectangle_60" data-name="Rectangle 60" width="4.73" height="4.731" transform="translate(425.523 416.539)" fill="#fafafa"/>
    <rect id="Rectangle_61" data-name="Rectangle 61" width="4.73" height="4.731" transform="translate(434.686 416.539)" fill="#fafafa"/>
    <rect id="Rectangle_62" data-name="Rectangle 62" width="4.731" height="4.731" transform="translate(443.848 416.539)" fill="#e6e6e6"/>
    <rect id="Rectangle_63" data-name="Rectangle 63" width="4.731" height="4.73" transform="translate(416.36 425.135)" fill="#e6e6e6"/>
    <rect id="Rectangle_64" data-name="Rectangle 64" width="4.73" height="4.73" transform="translate(425.523 425.135)" fill="#e6e6e6"/>
    <rect id="Rectangle_65" data-name="Rectangle 65" width="4.73" height="4.73" transform="translate(434.686 425.135)" fill="#fafafa"/>
    <rect id="Rectangle_66" data-name="Rectangle 66" width="4.731" height="4.73" transform="translate(443.848 425.135)" fill="#e6e6e6"/>
    <rect id="Rectangle_67" data-name="Rectangle 67" width="36.949" height="31.006" transform="translate(413.995 434.697)" fill="#e6e6e6"/>
    <rect id="Rectangle_68" data-name="Rectangle 68" width="4.731" height="4.731" transform="translate(416.36 438.561)" fill="#fafafa"/>
    <rect id="Rectangle_69" data-name="Rectangle 69" width="4.73" height="4.731" transform="translate(425.523 438.561)" fill="#fafafa"/>
    <rect id="Rectangle_70" data-name="Rectangle 70" width="4.73" height="4.731" transform="translate(434.686 438.561)" fill="#fafafa"/>
    <rect id="Rectangle_71" data-name="Rectangle 71" width="4.731" height="4.731" transform="translate(443.848 438.561)" fill="#fafafa"/>
    <rect id="Rectangle_72" data-name="Rectangle 72" width="4.731" height="4.731" transform="translate(416.36 447.156)" fill="#fafafa"/>
    <rect id="Rectangle_73" data-name="Rectangle 73" width="4.73" height="4.731" transform="translate(425.523 447.156)" fill="#fafafa"/>
    <rect id="Rectangle_74" data-name="Rectangle 74" width="4.73" height="4.731" transform="translate(434.686 447.156)" fill="#fafafa"/>
    <rect id="Rectangle_75" data-name="Rectangle 75" width="4.731" height="4.731" transform="translate(443.848 447.156)" fill="#e6e6e6"/>
    <rect id="Rectangle_76" data-name="Rectangle 76" width="4.731" height="4.731" transform="translate(416.36 455.751)" fill="#e6e6e6"/>
    <rect id="Rectangle_77" data-name="Rectangle 77" width="4.73" height="4.731" transform="translate(425.523 455.751)" fill="#e6e6e6"/>
    <rect id="Rectangle_78" data-name="Rectangle 78" width="4.73" height="4.731" transform="translate(434.686 455.751)" fill="#fafafa"/>
    <rect id="Rectangle_79" data-name="Rectangle 79" width="4.731" height="4.731" transform="translate(443.848 455.751)" fill="#e6e6e6"/>
    <rect id="Rectangle_80" data-name="Rectangle 80" width="36.949" height="31.006" transform="translate(413.995 465.314)" fill="#e6e6e6"/>
    <rect id="Rectangle_81" data-name="Rectangle 81" width="4.731" height="4.731" transform="translate(416.36 469.178)" fill="#fafafa"/>
    <rect id="Rectangle_82" data-name="Rectangle 82" width="4.73" height="4.731" transform="translate(425.523 469.178)" fill="#fafafa"/>
    <rect id="Rectangle_83" data-name="Rectangle 83" width="4.73" height="4.731" transform="translate(434.686 469.178)" fill="#fafafa"/>
    <rect id="Rectangle_84" data-name="Rectangle 84" width="4.731" height="4.731" transform="translate(443.848 469.178)" fill="#fafafa"/>
    <rect id="Rectangle_85" data-name="Rectangle 85" width="4.731" height="4.731" transform="translate(416.36 477.773)" fill="#fafafa"/>
    <rect id="Rectangle_86" data-name="Rectangle 86" width="4.73" height="4.731" transform="translate(425.523 477.773)" fill="#fafafa"/>
    <rect id="Rectangle_87" data-name="Rectangle 87" width="4.73" height="4.731" transform="translate(434.686 477.773)" fill="#fafafa"/>
    <rect id="Rectangle_88" data-name="Rectangle 88" width="4.731" height="4.731" transform="translate(443.848 477.773)" fill="#e6e6e6"/>
    <rect id="Rectangle_89" data-name="Rectangle 89" width="4.731" height="4.731" transform="translate(416.36 486.368)" fill="#e6e6e6"/>
    <rect id="Rectangle_90" data-name="Rectangle 90" width="4.73" height="4.731" transform="translate(425.523 486.368)" fill="#e6e6e6"/>
    <rect id="Rectangle_91" data-name="Rectangle 91" width="4.73" height="4.731" transform="translate(434.686 486.368)" fill="#fafafa"/>
    <rect id="Rectangle_92" data-name="Rectangle 92" width="4.731" height="4.731" transform="translate(443.848 486.368)" fill="#e6e6e6"/>
    <rect id="Rectangle_93" data-name="Rectangle 93" width="47.74" height="161.946" transform="translate(409.769 335.501)" fill="#fff" opacity="0.1"/>
    <path id="Path_155" data-name="Path 155" d="M90.837,71.373H75.617L58.966,233.319h15.22Z" transform="translate(362.541 264.128)" fill="#fff"/>
    <rect id="Rectangle_94" data-name="Rectangle 94" width="48.539" height="4.107" transform="translate(410.004 333.448)" fill="#e0e0e0"/>
    <rect id="Rectangle_95" data-name="Rectangle 95" width="48.539" height="4.107" transform="translate(410.004 496.031)" fill="#ebebeb"/>
    <path id="Path_156" data-name="Path 156" d="M91.141,236.524H38.519V62.321H91.141ZM42.53,232.512h44.6V66.332H42.53Z" transform="translate(369.289 267.115)" fill="#ebebeb"/>
    <path id="Path_157" data-name="Path 157" d="M242.854,312.109l-.537.066c-.033-.273-3.29-27.528,3.428-49.8,6.678-22.138,2.08-36.244,2.032-36.384l.513-.174c.048.142,4.7,14.412-2.027,36.713C239.578,284.692,242.821,311.837,242.854,312.109Z" transform="translate(302.305 213.162)" fill="#e0e0e0"/>
    <path id="Path_158" data-name="Path 158" d="M250.071,228.972a8.45,8.45,0,0,0-4.527-2.791l.123-.527a8.992,8.992,0,0,1,4.818,2.971Z" transform="translate(300.97 213.215)" fill="#e0e0e0"/>
    <rect id="Rectangle_96" data-name="Rectangle 96" width="1.778" height="0.541" transform="matrix(0.871, -0.492, 0.492, 0.871, 551.792, 445.325)" fill="#e0e0e0"/>
    <path id="Path_159" data-name="Path 159" d="M248.006,249.156a12.864,12.864,0,0,0-6.956-6.748l.2-.5a13.412,13.412,0,0,1,7.251,7.034Z" transform="translate(302.453 207.852)" fill="#e0e0e0"/>
    <path id="Path_160" data-name="Path 160" d="M247.621,275.134l-.541.007a7.436,7.436,0,0,0-2.8-5.691l.336-.424A7.978,7.978,0,0,1,247.621,275.134Z" transform="translate(301.387 198.902)" fill="#e0e0e0"/>
    <path id="Path_161" data-name="Path 161" d="M247.218,283.048l-.5-.2a5.419,5.419,0,0,1,3.076-3.036l.192.506A4.872,4.872,0,0,0,247.218,283.048Z" transform="translate(300.584 195.342)" fill="#e0e0e0"/>
    <path id="Path_162" data-name="Path 162" d="M242.03,322.553l-.417-.345c.658-.794,1.156-3.815,1.423-5.438.064-.388.119-.719.164-.958l.531.1c-.045.236-.1.562-.161.945C243.171,319.28,242.723,321.716,242.03,322.553Z" transform="translate(302.268 183.463)" fill="#e0e0e0"/>
    <path id="Path_163" data-name="Path 163" d="M239.212,336.8a5.33,5.33,0,0,0-5.163-3.564l-.025-.54a5.885,5.885,0,0,1,5.7,3.936Z" transform="translate(304.772 177.894)" fill="#e0e0e0"/>
    <rect id="Rectangle_97" data-name="Rectangle 97" width="5.721" height="0.541" transform="translate(544.309 524.605) rotate(-48.214)" fill="#e0e0e0"/>
    <path id="Path_164" data-name="Path 164" d="M244.965,303.515c.864,2.8-5.161,8.118-5.161,8.118s-7.976-1-8.841-3.793,1.157-7.371,5.024-8.565S244.1,300.719,244.965,303.515Z" transform="translate(305.847 189.017)" fill="#f0f0f0"/>
    <path id="Path_165" data-name="Path 165" d="M257.12,251.1c-.764,2.969-6.47,5.078-6.47,5.078s-3.978-4.6-3.214-7.571,3.919-6.241,6.593-5.552S257.884,248.13,257.12,251.1Z" transform="translate(300.378 207.504)" fill="#ebebeb"/>
    <path id="Path_166" data-name="Path 166" d="M222.729,320.934c3.582,1.4,5.779,7.731,5.779,7.731s-5.9,3.183-9.485,1.788-7.375-5.325-6.351-7.953S219.146,319.539,222.729,320.934Z" transform="translate(311.874 182.04)" fill="#f5f5f5"/>
    <path id="Path_167" data-name="Path 167" d="M237.681,265.662a7.613,7.613,0,0,0,2.448,1.383,2.585,2.585,0,0,0,2.611-.616,3.156,3.156,0,0,0,.078-3.315c-.957-2.109-4.487-5.688-7.2-4.662C231.7,259.935,235.935,264.367,237.681,265.662Z" transform="translate(304.777 202.452)" fill="#e6e6e6"/>
    <path id="Path_168" data-name="Path 168" d="M251.027,275.693c-.513.636-1.059,1.439-.778,2.207a1.641,1.641,0,0,0,1.8.885,4.788,4.788,0,0,0,1.938-.947c1.382-.959,4.215-2.973,2.406-4.856C254.517,271.024,252.11,274.352,251.027,275.693Z" transform="translate(299.443 197.796)" fill="#ebebeb"/>
    <path id="Path_169" data-name="Path 169" d="M233.548,237.317a1.423,1.423,0,0,0-1.291,1.047c-.118.685.451,1.285,1,1.71,1.372,1.058,5.5,3.911,6.417,1.158C240.546,238.631,235.371,237.116,233.548,237.317Z" transform="translate(305.36 209.372)" fill="#e0e0e0"/>
    <path id="Path_170" data-name="Path 170" d="M243.477,223.718c-.851.081-1.7-.228-2.553-.174s-1.8.74-1.61,1.574c.175.77,1.133,1.028,1.921,1.078a15.38,15.38,0,0,0,4.023-.278,1.233,1.233,0,0,0,.816-.412c.345-.508-.2-1.189-.791-1.369a8.361,8.361,0,0,1-1.783-.425Z" transform="translate(303.034 213.913)" fill="#e6e6e6"/>
    <path id="Path_171" data-name="Path 171" d="M256.668,232.379c.854.025,1.681-.34,2.535-.342s1.845.62,1.711,1.464c-.124.781-1.063,1.1-1.846,1.2a15.387,15.387,0,0,1-4.032-.012,1.236,1.236,0,0,1-.842-.357c-.377-.484.125-1.2.7-1.418a8.323,8.323,0,0,0,1.751-.541Z" transform="translate(298.159 211.109)" fill="#f0f0f0"/>
    <path id="Path_172" data-name="Path 172" d="M253.015,326.331a1.189,1.189,0,0,1,.726-.359.826.826,0,0,1,.726.708,2.327,2.327,0,0,1-.137,1.079c-.579,1.938-7.082,15.971-8.578,13.451-.884-1.489,1.289-6.424,1.93-7.82A20.4,20.4,0,0,1,253.015,326.331Z" transform="translate(300.971 180.11)" fill="#f0f0f0"/>
    <path id="Path_173" data-name="Path 173" d="M250.89,222.8a7.323,7.323,0,0,1,2.1-3.116,2.52,2.52,0,0,1,3.416.223c.835,1.146,0,2.887-1.28,3.5a7.339,7.339,0,0,1-4.182.23q-.017-.313-.034-.626Z" transform="translate(299.206 215.369)" fill="#e6e6e6"/>
    <path id="Path_174" data-name="Path 174" d="M243.279,370.661h0a63.006,63.006,0,0,1-21.039,0h0l-8.183-24.148h37.406Z" transform="translate(311.361 173.332)" fill="#f0f0f0"/>
    <circle id="Ellipse_1" data-name="Ellipse 1" cx="13.892" cy="13.892" r="13.892" transform="translate(536.001 335.596)" fill="#e0e0e0"/>
    <circle id="Ellipse_2" data-name="Ellipse 2" cx="13.892" cy="13.892" r="13.892" transform="matrix(0.16, -0.987, 0.987, 0.16, 533.021, 360.394)" fill="#ebebeb"/>
    <path id="Path_175" data-name="Path 175" d="M254.851,86.029A11.148,11.148,0,1,1,243.7,74.881,11.149,11.149,0,0,1,254.851,86.029Z" transform="translate(305.257 262.97)" fill="#fff" opacity="0.8"/>
    <path id="Path_176" data-name="Path 176" d="M248.131,92.14a1.131,1.131,0,1,1,1.6,0A1.131,1.131,0,0,1,248.131,92.14Z" transform="translate(300.226 257.912)" fill="#e0e0e0"/>
    <path id="Path_177" data-name="Path 177" d="M248.85,91.223l6.584-.2.021.679-5.965.181-.642,10.374-.678-.042Z" transform="translate(300.104 257.643)" fill="#e0e0e0"/>
    <path id="Path_178" data-name="Path 178" d="M395.907,317.932l3.4-54.174a34.945,34.945,0,0,0-34.877-37.136h0a34.946,34.946,0,0,0-34.89,32.978l-3.568,63.274h64.67A5.273,5.273,0,0,0,395.907,317.932Z" transform="translate(274.428 212.896)" fill="#0301ad"/>
    <path id="Path_179" data-name="Path 179" d="M396.03,315.97l3.279-52.212a34.945,34.945,0,0,0-34.877-37.136h0a34.946,34.946,0,0,0-34.89,32.978l-3.568,63.274h62.7A7.366,7.366,0,0,0,396.03,315.97Z" transform="translate(274.428 212.896)" opacity="0.1"/>
    <path id="Path_180" data-name="Path 180" d="M380.394,322.874l3.713-59.116a34.946,34.946,0,0,0-34.877-37.136h0A34.945,34.945,0,0,0,314.34,259.6l-3.568,63.274Z" transform="translate(279.445 212.896)" fill="#0301ad"/>
    <path id="Path_181" data-name="Path 181" d="M415.228,380.461h.893a1.019,1.019,0,0,0,.953-.908l1.318-9.267h-5.436l1.318,9.267A1.019,1.019,0,0,0,415.228,380.461Z" transform="translate(245.724 165.487)" fill="#0301ad"/>
    <path id="Path_182" data-name="Path 182" d="M415.228,380.461h.893a1.019,1.019,0,0,0,.953-.908l1.318-9.267h-5.436l1.318,9.267A1.019,1.019,0,0,0,415.228,380.461Z" transform="translate(245.724 165.487)" fill="#fff" opacity="0.7"/>
    <path id="Path_183" data-name="Path 183" d="M284.682,380.461h.81a.968.968,0,0,0,.864-.908l1.195-9.267h-4.928l1.195,9.267A.968.968,0,0,0,284.682,380.461Z" transform="translate(288.734 165.487)" fill="#0301ad"/>
    <path id="Path_184" data-name="Path 184" d="M284.682,380.461h.81a.968.968,0,0,0,.864-.908l1.195-9.267h-4.928l1.195,9.267A.968.968,0,0,0,284.682,380.461Z" transform="translate(288.734 165.487)" fill="#fff" opacity="0.5"/>
    <path id="Path_185" data-name="Path 185" d="M322.3,380.461h.81a.968.968,0,0,0,.864-.908l1.195-9.267h-4.928l1.194,9.267A.968.968,0,0,0,322.3,380.461Z" transform="translate(276.321 165.487)" fill="#0301ad"/>
    <path id="Path_186" data-name="Path 186" d="M322.3,380.461h.81a.968.968,0,0,0,.864-.908l1.195-9.267h-4.928l1.194,9.267A.968.968,0,0,0,322.3,380.461Z" transform="translate(276.321 165.487)" fill="#fff" opacity="0.7"/>
    <path id="Path_187" data-name="Path 187" d="M374.73,380.461h.893a1.019,1.019,0,0,0,.953-.908l1.318-9.267h-5.436l1.318,9.267A1.019,1.019,0,0,0,374.73,380.461Z" transform="translate(259.088 165.487)" fill="#0301ad"/>
    <path id="Path_188" data-name="Path 188" d="M374.73,380.461h.893a1.019,1.019,0,0,0,.953-.908l1.318-9.267h-5.436l1.318,9.267A1.019,1.019,0,0,0,374.73,380.461Z" transform="translate(259.088 165.487)" fill="#fff" opacity="0.5"/>
    <path id="Path_189" data-name="Path 189" d="M313.423,316.189H289.6l-1.578-22.969-.336-4.931v-.007l-.155-2.269a15.9,15.9,0,0,0-.233-1.777c-.026-.128-.058-.264-.084-.392a1.451,1.451,0,0,0-.071-.286,13.754,13.754,0,0,0-3.629-6.165,11.674,11.674,0,0,0-7.439-3.354h22.408q.369-.021.738-.021a11.635,11.635,0,0,1,8.118,3.375,13.745,13.745,0,0,1,3.629,6.165,1.356,1.356,0,0,1,.071.286,14.546,14.546,0,0,1,.318,2.169l.155,2.269v.007Z" transform="translate(290.896 197.255)" fill="#0301ad"/>
    <path id="Path_190" data-name="Path 190" d="M313.423,316.189H289.6l-1.578-22.969-.336-4.931v-.007l-.155-2.269a15.9,15.9,0,0,0-.233-1.777c-.026-.128-.058-.264-.084-.392a1.451,1.451,0,0,0-.071-.286,13.754,13.754,0,0,0-3.629-6.165,11.674,11.674,0,0,0-7.439-3.354h22.408q.369-.021.738-.021a11.635,11.635,0,0,1,8.118,3.375,13.745,13.745,0,0,1,3.629,6.165,1.356,1.356,0,0,1,.071.286,14.546,14.546,0,0,1,.318,2.169l.155,2.269v.007Z" transform="translate(290.896 197.255)" opacity="0.1"/>
    <path id="Path_191" data-name="Path 191" d="M360,318.7h9.571c2.326,0,4.212,1.473,4.212,3.289v5.66c0,1.816-1.886,3.289-4.212,3.289H360Z" transform="translate(263.2 182.511)"/>
    <rect id="Rectangle_98" data-name="Rectangle 98" width="49.405" height="12.238" rx="5.425" transform="translate(629.902 513.447) rotate(180)" fill="#0301ad"/>
    <path id="Path_192" data-name="Path 192" d="M428.037,287.589a13.576,13.576,0,0,1-11.26,13.379l-2.469,32.646c-.214,2.776-2.226,4.9-4.638,4.9H383.389c2.412,0,4.425-2.127,4.639-4.9l1.32-17.425,1.149-15.22a13.543,13.543,0,0,0,9.74-7.143c.129-.235.243-.485.35-.735a13.365,13.365,0,0,0,1.17-5.5,13.6,13.6,0,0,0-.285-2.768c-.072-.364-.164-.728-.264-1.078a13.766,13.766,0,0,0-2.255-4.417l-.007-.007a13.6,13.6,0,0,0-10.761-5.3h26.281a13.6,13.6,0,0,1,10.761,5.3l.007.007A13.535,13.535,0,0,1,428.037,287.589Z" transform="translate(255.482 197.255)" fill="#0301ad"/>
    <path id="Path_193" data-name="Path 193" d="M428.037,287.589a13.576,13.576,0,0,1-11.26,13.379l-2.469,32.646c-.214,2.776-2.226,4.9-4.638,4.9H383.389c2.412,0,4.425-2.127,4.639-4.9l1.32-17.425,1.149-15.22a13.543,13.543,0,0,0,9.74-7.143c.129-.235.243-.485.35-.735a13.365,13.365,0,0,0,1.17-5.5,13.6,13.6,0,0,0-.285-2.768c-.072-.364-.164-.728-.264-1.078a13.766,13.766,0,0,0-2.255-4.417l-.007-.007a13.6,13.6,0,0,0-10.761-5.3h26.281a13.6,13.6,0,0,1,10.761,5.3l.007.007A13.535,13.535,0,0,1,428.037,287.589Z" transform="translate(255.482 197.255)" opacity="0.1"/>
    <path id="Path_194" data-name="Path 194" d="M359.949,287.589c0,6.7-4.413,12.287-10.21,13.376L347.5,333.611c-.193,2.778-2.016,4.906-4.208,4.906H273.121c-2.185,0-4.009-2.127-4.207-4.906l-2.245-32.7c-5.68-1.193-9.976-6.7-9.976-13.325a14.461,14.461,0,0,1,2.268-7.846,12.768,12.768,0,0,1,4.541-4.293,11.245,11.245,0,0,1,5.5-1.437,11.653,11.653,0,0,1,8.117,3.378,13.711,13.711,0,0,1,3.629,6.163,1.6,1.6,0,0,1,.07.29,14.406,14.406,0,0,1,.315,2.166l.157,2.269v.006l1.911,27.9h50.012l2.069-30.176c.3-4.261,2.372-7.813,5.253-9.5a11.433,11.433,0,0,1,6.37-2.469,6.95,6.95,0,0,1,.736-.032,11.143,11.143,0,0,1,5.347,1.36c.053.019.1.052.152.077a12.682,12.682,0,0,1,4.26,3.868l.006.007A14.464,14.464,0,0,1,359.949,287.589Z" transform="translate(297.291 197.257)" fill="#0301ad"/>
    <path id="Path_195" data-name="Path 195" d="M332.056,338.517H273.121c-2.185,0-4.009-2.127-4.207-4.906l-2.245-32.7c-5.68-1.193-9.976-6.7-9.976-13.325a14.461,14.461,0,0,1,2.268-7.846,12.768,12.768,0,0,1,4.541-4.293,11.245,11.245,0,0,1,5.5-1.437,11.653,11.653,0,0,1,8.117,3.378,13.711,13.711,0,0,1,3.629,6.163,1.6,1.6,0,0,1,.07.29,14.406,14.406,0,0,1,.315,2.166l.157,2.269v.006l1.911,27.9h50.012Z" transform="translate(297.291 197.257)" fill="#fff" opacity="0.1"/>
    <path id="Path_196" data-name="Path 196" d="M330.965,227.6c-1.164.645-2.233,1.225-3.333,1.791s-2.216,1.1-3.332,1.615c-2.251,1.029-4.531,2-6.88,2.861a73.954,73.954,0,0,1-7.209,2.281,45.728,45.728,0,0,1-7.743,1.386l-.553.051-.266-.02c-2.364-.273-4.461-.7-6.564-1.138s-4.19-.931-6.254-1.455-4.113-1.075-6.159-1.664-4.085-1.2-6.11-1.889l.932-4.652c4.212.272,8.419.695,12.588,1.108l6.224.624c2.049.2,4.145.372,5.982.442l-.811.019a44.706,44.706,0,0,0,6.2-1.566c2.1-.687,4.2-1.433,6.292-2.336s4.177-1.82,6.243-2.8c1.054-.484,2.085-1,3.089-1.5s2.075-1.035,2.992-1.516Z" transform="translate(290.735 215.33)" fill="#1d2d3a"/>
    <path id="Path_198" data-name="Path 198" d="M274.177,225.925a11.422,11.422,0,0,0-3.241-1.585l-1.734,6.772,5.2,2.186.59-.723A4.613,4.613,0,0,0,274.177,225.925Z" transform="translate(293.163 213.649)" fill="#ffc3bd"/>
    <path id="Path_199" data-name="Path 199" d="M266.946,229.81l1.734-6.773-4.851-2.645-1.463,4.769Z" transform="translate(295.419 214.951)" fill="#ffc3bd"/>
    <path id="Path_200" data-name="Path 200" d="M333.409,237l.188-.009.083.017c2.559-.278,10.08-1.542,15.525-6.908a5.317,5.317,0,0,0-3.287-3.056C342.169,226.355,337.572,229.041,333.409,237Z" transform="translate(271.975 212.792)" opacity="0.2" style="isolation: isolate"/>
    <path id="Path_201" data-name="Path 201" d="M339.98,267.845c6.418-17.331,2.2-33.269,3-42.091a10.076,10.076,0,0,1,8.13-8.965c4.387-.848,9.8-1.8,14.973-2.495a10.127,10.127,0,0,1,11.484,10.173c-.452,26.147-8.829,43.378-8.829,43.378l-13.53-.058Z" transform="translate(269.807 216.994)" fill="#0301ad"/>
    <path id="Path_202" data-name="Path 202" d="M339.98,267.845c6.418-17.331,2.2-33.269,3-42.091a10.076,10.076,0,0,1,8.13-8.965c4.387-.848,9.8-1.8,14.973-2.495a10.127,10.127,0,0,1,11.484,10.173c-.452,26.147-8.829,43.378-8.829,43.378l-13.53-.058Z" transform="translate(269.807 216.994)" fill="#fff" opacity="0.8"/>
    <path id="Path_203" data-name="Path 203" d="M262.514,382.54,260.8,393.818h5.452l3.579-11.278Z" transform="translate(295.937 161.443)" fill="#ffc3bd"/>
    <path id="Path_204" data-name="Path 204" d="M253.677,395.534l7.284-.17a.411.411,0,0,1,.457.4l.016,5.347a1.223,1.223,0,0,1-1.2,1.092c-2.533.019-3.738-.094-6.943-.018a82.175,82.175,0,0,1-10.193-.672c-2.594-.444-1.893-2.879-.72-2.919,5.3-.194,8.256-1.3,10.157-2.664A2,2,0,0,1,253.677,395.534Z" transform="translate(302.362 157.211)" fill="#263238"/>
    <path id="Path_205" data-name="Path 205" d="M262.332,387.063l.689-4.523h7.313l-1.761,5.639Z" transform="translate(295.431 161.443)" opacity="0.2"/>
    <path id="Path_206" data-name="Path 206" d="M310.636,288.21s-44.317.44-45.008,14.477c-.98,20.181-4.39,50.95-4.39,50.95l8.358,2.3s11.921-30.508,12.386-46.268c12.465-2.484,44.517,0,48.281-8.187a22.006,22.006,0,0,0,1.421-13.269Z" transform="translate(295.791 192.572)" fill="#0301ad"/>
    <path id="Path_207" data-name="Path 207" d="M310.636,288.21s-44.317.44-45.008,14.477c-.98,20.181-4.39,50.95-4.39,50.95l8.358,2.3s11.921-30.508,12.386-46.268c12.465-2.484,44.517,0,48.281-8.187a22.006,22.006,0,0,0,1.421-13.269Z" transform="translate(295.791 192.572)" opacity="0.6"/>
    <path id="Path_208" data-name="Path 208" d="M321.558,388.852l2.959,7.652h5.974l-2.057-8.048Z" transform="translate(275.886 159.49)" fill="#ffc3bd"/>
    <path id="Path_209" data-name="Path 209" d="M328.36,388.8l-1.16-5.888-7.546.938,1.93,5.118Z" transform="translate(276.514 161.32)" opacity="0.2"/>
    <path id="Path_210" data-name="Path 210" d="M317.941,396.685h7.625a.471.471,0,0,1,.5.433v.008l.373,5.716a1.18,1.18,0,0,1-1.189,1.149c-2.654-.043-3.927-.195-7.282-.195-2.059,0-6.222.2-9.074.2s-2.768-2.667-1.562-2.89c5.421-1.084,7.518-2.58,9.432-4.011A2.038,2.038,0,0,1,317.941,396.685Z" transform="translate(280.841 156.775)" fill="#263238"/>
    <path id="Path_211" data-name="Path 211" d="M333.47,288.207s-40.2,2.724-39.206,16.755c1.08,15.36,17.177,50.97,17.177,50.97h8.127s-5.4-32.318-7.853-47.965c11.335,0,37.611,1.71,41.384-6.5a21.964,21.964,0,0,0,1.413-13.269Z" transform="translate(284.899 192.575)" fill="#0301ad"/>
    <path id="Path_212" data-name="Path 212" d="M333.47,288.207s-40.2,2.724-39.206,16.755c1.08,15.36,17.177,50.97,17.177,50.97h8.127s-5.4-32.318-7.853-47.965c11.335,0,37.611,1.71,41.384-6.5a21.964,21.964,0,0,0,1.413-13.269Z" transform="translate(284.899 192.575)" opacity="0.5"/>
    <path id="Path_213" data-name="Path 213" d="M359.528,199.12c.927,3.576,1.217,8.029-3.782,9.881-1.385,2.21-2.066,4.539,3.278,3.709a16.435,16.435,0,0,0,10.78-6.1c-3.2-2.8-2.614-11.384-1.805-16.229Z" transform="translate(264.928 224.855)" fill="#ffc3bd"/>
    <path id="Path_214" data-name="Path 214" d="M353.3,213.137c-4.585.789-8.362,4.335-10.385,8.524s-2.509,8.959-2.471,13.611.569,9.3.446,13.948c-.142,5.375-1.438,9.16-3.286,14.209,0,1.2,1.816,1.878,3.357,2.19,3.2-6.989,5.3-13.67,5.082-21.354-.161-5.574-.24-11.923.668-17.425.9-5.42,7.485-12.67,7.17-13.659Z" transform="translate(270.592 217.346)" fill="#febe50"/>
    <path id="Path_215" data-name="Path 215" d="M365.941,204.217a4.466,4.466,0,0,1-3.389.821,15.9,15.9,0,0,0-.189-2.6l5.546-4.557a11.993,11.993,0,0,1,.235,1.794A5.079,5.079,0,0,1,365.941,204.217Z" transform="translate(262.42 222.38)" opacity="0.3" style="isolation: isolate"/>
    <path id="Path_216" data-name="Path 216" d="M352.782,171.253c-5.867,3.312-5.927,12.688-4.12,18.106a8.122,8.122,0,0,0,14.228,2.387c2.865-3.627,2.453-7.286,2.313-13.579A8.125,8.125,0,0,0,352.782,171.253Z" transform="translate(267.285 231.564)" fill="#ffc3bd"/>
    <path id="Path_218" data-name="Path 218" d="M366.21,173.727a5.349,5.349,0,0,0,.6,6.413c.529.554,1.178.988,1.689,1.559a4.587,4.587,0,0,1,1.15,3.254,3.362,3.362,0,0,1,3.18-2.831l-2.387,7.371a10.194,10.194,0,0,0,5.82-8.038C376.768,176.72,370.9,166.523,366.21,173.727Z" transform="translate(261.414 231.175)" fill="#263238"/>
    <path id="Path_219" data-name="Path 219" d="M345.71,172.575a4.006,4.006,0,0,0-.934,1.745,1.637,1.637,0,0,0,.706,1.733,2.477,2.477,0,0,0,1.591.076l5.349-.93c3.068-.533,6.139-1.067,9.167-1.792,1.359-.326,2.887-.837,3.422-2.128,1.737-4.187-5.679-4.732-8.152-4.612A15.991,15.991,0,0,0,345.71,172.575Z" transform="translate(268.234 232.685)" fill="#263238"/>
    <path id="Path_220" data-name="Path 220" d="M374.071,185.892c-1.761.4-2.509,2.923-2.458,4.543.011,1.837,1.361,3.037,2.891,1.928a5.672,5.672,0,0,0,2.2-3.537C377.015,187.087,375.832,185.494,374.071,185.892Z" transform="translate(259.368 226.357)" fill="#ffc3bd"/>
    <path id="Path_221" data-name="Path 221" d="M355.867,193.758a2.163,2.163,0,0,1-1.824.277c.679-1.511.588-1.17.795-3.749Z" transform="translate(265.166 224.887)" fill="#ed847e"/>
    <path id="Path_222" data-name="Path 222" d="M359.916,182.315a3.561,3.561,0,0,0-2.621-.669h0l-.017,0a.286.286,0,0,1-.326-.24.319.319,0,0,1,.253-.354,4.089,4.089,0,0,1,3.135.845l.006.007a.3.3,0,0,1-.027.423.427.427,0,0,1-.132.084A.294.294,0,0,1,359.916,182.315Z" transform="translate(264.207 227.945)" fill="#263238"/>
    <path id="Path_223" data-name="Path 223" d="M348.364,183.893l-.019-.011a.287.287,0,0,1-.079-.4,3.146,3.146,0,0,1,2.3-1.578h.021a.28.28,0,0,1,.28.28.313.313,0,0,1-.29.323,2.509,2.509,0,0,0-1.808,1.272.319.319,0,0,1-.241.153A.268.268,0,0,1,348.364,183.893Z" transform="translate(267.088 227.652)" fill="#263238"/>
    <path id="Path_224" data-name="Path 224" d="M355.983,198.144a26.207,26.207,0,0,1,1.773,2.577c.141-.056.281-.112.419-.177,1.886-.816,2.423-1.954,2.446-2.967a4.226,4.226,0,0,0-.716-2.259,8.132,8.132,0,0,1-3.286,2.534C356.236,198.046,355.983,198.144,355.983,198.144Z" transform="translate(264.526 223.226)" fill="#2e353a"/>
    <path id="Path_225" data-name="Path 225" d="M356.934,197.853l.269.373a.563.563,0,0,0,.693.183,5.258,5.258,0,0,0,2.654-2.1.546.546,0,0,0-.021-.452,3.618,3.618,0,0,0-.308-.54A8.133,8.133,0,0,1,356.934,197.853Z" transform="translate(264.212 223.226)" fill="#fff"/>
    <path id="Path_226" data-name="Path 226" d="M359.255,201.657c1.886-.816,2.423-1.954,2.446-2.967a5.529,5.529,0,0,0-1.869,1.412A2.651,2.651,0,0,0,359.255,201.657Z" transform="translate(263.446 222.113)" fill="#de5753"/>
    <path id="Path_227" data-name="Path 227" d="M351.435,188.041c-.328.06-.514.526-.416,1.028s.449.866.774.8.514-.526.416-1.029S351.763,187.981,351.435,188.041Z" transform="translate(266.172 225.63)" fill="#263238"/>
    <path id="Path_228" data-name="Path 228" d="M360.015,186.617c-.328.06-.514.526-.416,1.029s.449.866.774.8.514-.525.415-1.028S360.343,186.557,360.015,186.617Z" transform="translate(263.341 226.1)" fill="#263238"/>
    <path id="Path_231" data-name="Path 231" d="M354.2,191.165l-.026-.66,1.288-.282.191.624Z" transform="translate(265.121 224.908)" fill="#263238"/>
    <path id="Path_232" data-name="Path 232" d="M351.92,266.474s7.631,2.956,9.373,3.536a22.3,22.3,0,0,0,6.281,1.441,7.726,7.726,0,0,0,5.942-2.22c1.823-1.942,2.388-4.894,2.864-7.657q2.1-12.19,4.2-24.379c.69-4.007,2.431-10.028,2.283-12.322-.273-4.219-2.961-9.2-9.8-11.945a6.114,6.114,0,0,0-7.523,2.023,22.531,22.531,0,0,0-6.194,12.215c-.768,5.428-1.957,12.457-1.884,17.971C357.551,252.372,354.67,261.513,351.92,266.474Z" transform="translate(265.866 217.595)" fill="#febe50"/>
    <path id="Path_233" data-name="Path 233" d="M380.055,226.1c.779,7.064-3.125,24.866-3.88,25.932-3.2,10.329-12,4.762-13.271,4.286-2.218-.819-4.476-2.417-6.585-3.484-4.1-2.033-7.971-3.67-11.779-6.2l2.145-4.234c4.17,1.425,15.985,4.475,17.931,4.951.847.221,4.135,1.948,4.1-.329.467-.756,1.111-15.5,2.524-20.712a4.425,4.425,0,0,1,.822-1.6l.129-.161a4.515,4.515,0,0,1,7.864,1.556Z" transform="translate(268.302 214.143)" fill="#1d2d3a"/>
    <path id="Path_235" data-name="Path 235" d="M334.353,254.758H314.522l-2.264-25.877h19.831Z" transform="translate(278.955 212.15)" fill="#263238"/>
    <path id="Path_236" data-name="Path 236" d="M334.353,254.758H314.522l-2.264-25.877h19.831Z" transform="translate(278.955 212.15)" fill="#fff" opacity="0.5"/>
    <path id="Path_237" data-name="Path 237" d="M333.307,254.563H313.477l-2.264-25.877h19.831Z" transform="translate(279.3 212.214)" fill="#0301ad"/>
    <path id="Path_238" data-name="Path 238" d="M333.307,254.563H313.477l-2.264-25.877h19.831Z" transform="translate(279.3 212.214)" fill="#fff" opacity="0.8"/>
    <path id="Path_239" data-name="Path 239" d="M328.2,229.507h-8.34l-.283-3.233h8.341Z" transform="translate(276.54 213.011)" fill="#0301ad"/>
    <path id="Path_240" data-name="Path 240" d="M319.576,226.134l.822-.284h8.636l.117,1.377-.642.745-.043,1.125-.267.272-.283-3.233Z" transform="translate(276.54 213.151)" fill="#0301ad"/>
    <path id="Path_241" data-name="Path 241" d="M319.576,226.134l.822-.284h8.636l.117,1.377-.642.745-.043,1.125-.267.272-.283-3.233Z" transform="translate(276.54 213.151)" opacity="0.5"/>
    <path id="Path_242" data-name="Path 242" d="M346.758,252.8l.453,2.418c-1.071,2.79-7.221,2.053-7.221,2.053l-.01-7.147,5.422,1.26A1.8,1.8,0,0,1,346.758,252.8Z" transform="translate(269.807 205.138)" fill="#ffc3bd"/>
    <path id="Path_243" data-name="Path 243" d="M336.7,250.129l.03,7.163-5.441.135-1.248-6.3Z" transform="translate(273.087 205.138)" fill="#ffc3bd"/>
    <path id="Path_244" data-name="Path 244" d="M370.332,316.186,372.4,286.01c.3-4.261,2.373-7.813,5.254-9.5a11.433,11.433,0,0,1,6.37-2.469,6.955,6.955,0,0,1,.736-.032,11.144,11.144,0,0,1,5.347,1.36c.053.019.1.052.152.077a12.681,12.681,0,0,1,4.26,3.868l.006.007a14.462,14.462,0,0,1,2.543,8.265c0,6.7-4.413,12.287-10.21,13.376l-2.238,32.645c-.193,2.778-2.016,4.906-4.208,4.906H369.175Z" transform="translate(260.172 197.257)" fill="#0301ad"/>
    <path id="Path_245" data-name="Path 245" d="M370.332,316.186,372.4,286.01c.3-4.261,2.373-7.813,5.254-9.5a11.433,11.433,0,0,1,6.37-2.469,6.955,6.955,0,0,1,.736-.032,11.144,11.144,0,0,1,5.347,1.36c.053.019.1.052.152.077a12.681,12.681,0,0,1,4.26,3.868l.006.007a14.462,14.462,0,0,1,2.543,8.265c0,6.7-4.413,12.287-10.21,13.376l-2.238,32.645c-.193,2.778-2.016,4.906-4.208,4.906H369.175Z" transform="translate(260.172 197.257)" fill="#fff" opacity="0.1"/>
    <path id="Path_246" data-name="Path 246" d="M194.164,126.3v28.013a2.648,2.648,0,0,1-2.647,2.647H162.794l-10.251,7.926a1.956,1.956,0,0,1-3.136-1.568v-6.358h-1.6a2.648,2.648,0,0,1-2.647-2.647V126.3a2.639,2.639,0,0,1,2.647-2.626h43.724A2.634,2.634,0,0,1,194.164,126.3Z" transform="translate(334.097 246.87)" fill="none" stroke="#0301ad" stroke-miterlimit="10" stroke-width="1"/>
    <rect id="Rectangle_99" data-name="Rectangle 99" width="5.474" height="0.67" transform="translate(495.923 366.597)" fill="#0301ad"/>
    <path id="Path_247" data-name="Path 247" d="M139.655,125.674h-.67v-3.3a4.6,4.6,0,0,1,4.6-4.6H155.8v.67H143.587a3.932,3.932,0,0,0-3.932,3.926Z" transform="translate(336.135 248.815)" fill="#0301ad"/>
    <path id="Path_248" data-name="Path 248" d="M194.991,139.756a2.112,2.112,0,0,1-2.119-2.267l0-.029c.715-8.169,7.188-8.917,8-18.209.234-2.67-.745-3.684-2.614-3.684s-3.026,1.014-3.259,3.684l-.135,1.533a2.765,2.765,0,0,1-2.755,2.525h0a2.766,2.766,0,0,1-2.756-3.007l.059-.677c.523-5.98,3.759-9.4,9.473-9.4s8.351,3.418,7.828,9.4c-.85,9.718-7.923,11.214-8.52,18.048l-.008.1a2.134,2.134,0,0,1-2.118,1.983Zm2.9,5.682,0,.021a2.819,2.819,0,0,1-2.809,2.573h0a2.819,2.819,0,0,1-2.809-3.065l0-.021a2.819,2.819,0,0,1,2.809-2.573h0A2.819,2.819,0,0,1,197.89,145.438Z" transform="translate(319.516 251.306)" fill="#0301ad"/>
    <path id="Path_249" data-name="Path 249" d="M178.266,143.194H162.883a1.34,1.34,0,0,1,0-2.68h15.383a1.34,1.34,0,0,1,0,2.68Z" transform="translate(328.691 241.311)" fill="#0301ad"/>
    <path id="Path_250" data-name="Path 250" d="M176.134,151.107H162.883a1.34,1.34,0,1,1,0-2.68h13.251a1.34,1.34,0,1,1,0,2.68Z" transform="translate(328.691 238.7)" fill="#0301ad"/>
    <path id="Path_251" data-name="Path 251" d="M174,159.019H162.883a1.34,1.34,0,0,1,0-2.68H174a1.34,1.34,0,1,1,0,2.68Z" transform="translate(328.691 236.089)" fill="#0301ad"/>
    <path id="Path_252" data-name="Path 252" d="M126.135,323.515h-9.792c-2.38,0-4.311,1.507-4.311,3.365v5.791c0,1.859,1.93,3.365,4.311,3.365h9.792Z" transform="translate(345.029 180.921)" fill="#0301ad"/>
    <path id="Path_253" data-name="Path 253" d="M63.467,319.225l-3.4-54.174a34.945,34.945,0,0,1,34.877-37.136h0a34.946,34.946,0,0,1,34.89,32.978l3.568,63.275H68.73A5.273,5.273,0,0,1,63.467,319.225Z" transform="translate(362.202 212.469)" fill="#0301ad"/>
    <path id="Path_254" data-name="Path 254" d="M63.343,317.263l-3.279-52.212a34.945,34.945,0,0,1,34.877-37.136h0a34.946,34.946,0,0,1,34.89,32.978l3.568,63.275H70.7A7.367,7.367,0,0,1,63.343,317.263Z" transform="translate(362.202 212.469)" opacity="0.1"/>
    <path id="Path_255" data-name="Path 255" d="M78.979,324.168l-3.712-59.117a34.945,34.945,0,0,1,34.877-37.136h0a34.946,34.946,0,0,1,34.89,32.978l3.568,63.275Z" transform="translate(357.185 212.469)" fill="#0301ad"/>
    <path id="Path_256" data-name="Path 256" d="M77.622,381.754h-.894a1.019,1.019,0,0,1-.953-.909l-1.318-9.266h5.436l-1.318,9.266A1.019,1.019,0,0,1,77.622,381.754Z" transform="translate(357.429 165.06)" fill="#0301ad"/>
    <path id="Path_257" data-name="Path 257" d="M77.622,381.754h-.894a1.019,1.019,0,0,1-.953-.909l-1.318-9.266h5.436l-1.318,9.266A1.019,1.019,0,0,1,77.622,381.754Z" transform="translate(357.429 165.06)" fill="#fff" opacity="0.7"/>
    <path id="Path_258" data-name="Path 258" d="M208.419,381.754h-.81a.968.968,0,0,1-.864-.909l-1.195-9.266h4.927l-1.195,9.266A.967.967,0,0,1,208.419,381.754Z" transform="translate(314.168 165.06)" fill="#0301ad"/>
    <path id="Path_259" data-name="Path 259" d="M208.419,381.754h-.81a.968.968,0,0,1-.864-.909l-1.195-9.266h4.927l-1.195,9.266A.967.967,0,0,1,208.419,381.754Z" transform="translate(314.168 165.06)" fill="#fff" opacity="0.5"/>
    <path id="Path_260" data-name="Path 260" d="M170.8,381.754h-.809a.967.967,0,0,1-.864-.909l-1.195-9.266h4.927l-1.195,9.266A.967.967,0,0,1,170.8,381.754Z" transform="translate(326.582 165.06)" fill="#0301ad"/>
    <path id="Path_261" data-name="Path 261" d="M170.8,381.754h-.809a.967.967,0,0,1-.864-.909l-1.195-9.266h4.927l-1.195,9.266A.967.967,0,0,1,170.8,381.754Z" transform="translate(326.582 165.06)" fill="#fff" opacity="0.7"/>
    <path id="Path_262" data-name="Path 262" d="M118.12,381.754h-.894a1.02,1.02,0,0,1-.953-.909l-1.317-9.266h5.435l-1.317,9.266A1.019,1.019,0,0,1,118.12,381.754Z" transform="translate(344.064 165.06)" fill="#0301ad"/>
    <path id="Path_263" data-name="Path 263" d="M118.12,381.754h-.894a1.02,1.02,0,0,1-.953-.909l-1.317-9.266h5.435l-1.317,9.266A1.019,1.019,0,0,1,118.12,381.754Z" transform="translate(344.064 165.06)" fill="#fff" opacity="0.5"/>
    <path id="Path_264" data-name="Path 264" d="M163.708,317.482h23.824l1.579-22.97.336-4.931v-.007l.155-2.269a15.7,15.7,0,0,1,.232-1.776c.026-.129.058-.264.084-.393a1.406,1.406,0,0,1,.071-.285,13.744,13.744,0,0,1,3.63-6.165,11.672,11.672,0,0,1,7.438-3.353H178.651q-.369-.022-.738-.022a11.637,11.637,0,0,0-8.118,3.375,13.75,13.75,0,0,0-3.629,6.165,1.4,1.4,0,0,0-.071.285,14.591,14.591,0,0,0-.317,2.169l-.155,2.269v.007Z" transform="translate(327.976 196.829)" fill="#0301ad"/>
    <path id="Path_265" data-name="Path 265" d="M163.708,317.482h23.824l1.579-22.97.336-4.931v-.007l.155-2.269a15.7,15.7,0,0,1,.232-1.776c.026-.129.058-.264.084-.393a1.406,1.406,0,0,1,.071-.285,13.744,13.744,0,0,1,3.63-6.165,11.672,11.672,0,0,1,7.438-3.353H178.651q-.369-.022-.738-.022a11.637,11.637,0,0,0-8.118,3.375,13.75,13.75,0,0,0-3.629,6.165,1.4,1.4,0,0,0-.071.285,14.591,14.591,0,0,0-.317,2.169l-.155,2.269v.007Z" transform="translate(327.976 196.829)" opacity="0.1"/>
    <path id="Path_266" data-name="Path 266" d="M128.738,319.991h-9.57c-2.327,0-4.213,1.473-4.213,3.289v5.66c0,1.816,1.886,3.289,4.213,3.289h9.57Z" transform="translate(344.065 182.084)"/>
    <rect id="Rectangle_100" data-name="Rectangle 100" width="49.405" height="12.238" rx="5.425" transform="translate(466.101 502.075)" fill="#0301ad"/>
    <path id="Path_267" data-name="Path 267" d="M45.5,288.882a13.575,13.575,0,0,0,11.26,13.379l2.469,32.646c.214,2.776,2.226,4.9,4.638,4.9h26.28c-2.412,0-4.424-2.127-4.638-4.9l-1.321-17.425-1.148-15.22a13.542,13.542,0,0,1-9.74-7.142c-.129-.236-.243-.486-.35-.735a13.368,13.368,0,0,1-1.17-5.5,13.592,13.592,0,0,1,.285-2.768c.071-.364.164-.728.263-1.077a13.777,13.777,0,0,1,2.255-4.417l.007-.007a13.6,13.6,0,0,1,10.76-5.3H59.072a13.6,13.6,0,0,0-10.761,5.3l-.007.007A13.536,13.536,0,0,0,45.5,288.882Z" transform="translate(366.985 196.829)" fill="#0301ad"/>
    <path id="Path_268" data-name="Path 268" d="M45.5,288.882a13.575,13.575,0,0,0,11.26,13.379l2.469,32.646c.214,2.776,2.226,4.9,4.638,4.9h26.28c-2.412,0-4.424-2.127-4.638-4.9l-1.321-17.425-1.148-15.22a13.542,13.542,0,0,1-9.74-7.142c-.129-.236-.243-.486-.35-.735a13.368,13.368,0,0,1-1.17-5.5,13.592,13.592,0,0,1,.285-2.768c.071-.364.164-.728.263-1.077a13.777,13.777,0,0,1,2.255-4.417l.007-.007a13.6,13.6,0,0,1,10.76-5.3H59.072a13.6,13.6,0,0,0-10.761,5.3l-.007.007A13.536,13.536,0,0,0,45.5,288.882Z" transform="translate(366.985 196.829)" opacity="0.1"/>
    <path id="Path_269" data-name="Path 269" d="M84.721,288.882c0,6.7,4.412,12.287,10.209,13.377L97.169,334.9c.192,2.779,2.016,4.906,4.207,4.906H171.55c2.186,0,4.009-2.128,4.208-4.906l2.244-32.7c5.68-1.193,9.976-6.7,9.976-13.325a14.457,14.457,0,0,0-2.267-7.845,12.755,12.755,0,0,0-4.541-4.293,11.25,11.25,0,0,0-5.5-1.438,11.654,11.654,0,0,0-8.117,3.378,13.7,13.7,0,0,0-3.629,6.163,1.556,1.556,0,0,0-.07.29,14.248,14.248,0,0,0-.316,2.166l-.158,2.269v.006l-1.911,27.9H111.457L109.388,287.3c-.3-4.261-2.372-7.814-5.253-9.5a11.432,11.432,0,0,0-6.37-2.469,7.1,7.1,0,0,0-.736-.032,11.148,11.148,0,0,0-5.347,1.36,1.565,1.565,0,0,0-.152.078,12.672,12.672,0,0,0-4.261,3.868l-.006.006A14.467,14.467,0,0,0,84.721,288.882Z" transform="translate(354.042 196.83)" fill="#0301ad"/>
    <path id="Path_270" data-name="Path 270" d="M125.783,339.81h58.935c2.186,0,4.009-2.128,4.208-4.906l2.244-32.7c5.68-1.193,9.976-6.7,9.976-13.325a14.457,14.457,0,0,0-2.267-7.845,12.755,12.755,0,0,0-4.541-4.293,11.25,11.25,0,0,0-5.5-1.438,11.654,11.654,0,0,0-8.117,3.378,13.7,13.7,0,0,0-3.629,6.163,1.558,1.558,0,0,0-.07.29,14.252,14.252,0,0,0-.316,2.166l-.158,2.269v.006l-1.911,27.9H124.625Z" transform="translate(340.874 196.83)" fill="#fff" opacity="0.1"/>
    <path id="Path_271" data-name="Path 271" d="M153.13,382.171l5.717,1.584,5.128-13.436-5.712-1.584Z" transform="translate(331.467 165.998)" fill="#ffc3bd"/>
    <path id="Path_272" data-name="Path 272" d="M160.439,387.371a3,3,0,0,0-1.832-1.113l-5.888-1.144a.535.535,0,0,0-.633.361l-1.821,5.369a1.175,1.175,0,0,0,.719,1.5l.039.013c2.169.855,3.637.561,7.032,1.217,2.091.407,6.484,1.8,9.419,1.678s2.927-3.024,1.692-3.237A14.951,14.951,0,0,1,160.439,387.371Z" transform="translate(332.435 160.598)" fill="#263238"/>
    <path id="Path_273" data-name="Path 273" d="M165.2,370.325l-2.645,6.927-5.718-1.589,2.645-6.927Z" transform="translate(330.244 165.998)"/>
    <path id="Path_274" data-name="Path 274" d="M132.6,292.339s34.409-.188,33.336,11.338c-.725,7.78-4.462,15.967-7.377,23.866-4.225,11.448-7.889,21.423-7.889,21.423l-7.842-2.712s7.042-33.113,11.788-36.5H125.518c-9.628,0-13.79-10.574-4.417-22.9C126.831,286.859,132.6,292.339,132.6,292.339Z" transform="translate(343.775 193.019)" fill="#0301ad"/>
    <path id="Path_275" data-name="Path 275" d="M132.6,292.339s34.409-.188,33.336,11.338c.533,7.159-15.266,45.289-15.266,45.289l-7.842-2.712s7.042-33.113,11.788-36.5H125.518c-9.628,0-13.79-10.574-4.417-22.9C126.831,286.859,132.6,292.339,132.6,292.339Z" transform="translate(343.775 193.019)" opacity="0.6"/>
    <path id="Path_276" data-name="Path 276" d="M164.877,252.9c-4.232,3.869-12.55-5.284-13.887-6.374-2.87-2.34-11.3-10.211-10.854-12.944,1.314-8.045,14.523,3.352,18.333,11.2Z" transform="translate(335.761 211.507)" fill="#febe50"/>
    <path id="Path_277" data-name="Path 277" d="M117.644,227.507c-2.122.451-4.421-.316-5.913,1.258a9.98,9.98,0,0,0-2.336,5.947,39.684,39.684,0,0,0,.469,9.017q.7,5.442,1.4,10.884a32.557,32.557,0,0,1-.342,8.961l0,.018a1.442,1.442,0,0,0,.821,1.56s16.475.568,21.264.386c2.548-.1.8-6.793,1.581-10.7.173-.866,1.879-4.447,2.13-5.364,1.183-4.324.4-7.294-.7-11.641-.8-3.154-1.124-7.7-2.733-8.054C130.423,229.159,123.556,226.249,117.644,227.507Z" transform="translate(345.935 212.707)" fill="#febe50"/>
    <path id="Path_279" data-name="Path 279" d="M114.568,231.153c-.219-.334-6.012-5.213-7.067.424-1.469,7.845,1.568,15.565,1.568,15.565s.7,8.491,3.161,9.338,4.814,1.057,5.644-.394a8.635,8.635,0,0,0,.829-3.627S118.408,237.015,114.568,231.153Z" transform="translate(346.657 212.152)" fill="#febe50"/>
    <path id="Path_280" data-name="Path 280" d="M123.507,211.59c.6,3.613,1.1,10.213-1.481,12.538a33.838,33.838,0,0,1,10.447,9.062,5.458,5.458,0,0,0,1.916-6.094,5.325,5.325,0,0,0-2.657-3.209c-2.449-1.348-2.215-3.871-1.544-6.243Z" transform="translate(341.731 217.856)" fill="#e8bfbf"/>
    <path id="Path_281" data-name="Path 281" d="M125.467,220.742l2.352.9a7.849,7.849,0,0,0,3.162.512h0a5.082,5.082,0,0,0,0,2.234,4.512,4.512,0,0,1-4.674-1.5A7.736,7.736,0,0,1,125.467,220.742Z" transform="translate(340.596 214.836)" opacity="0.2" style="isolation: isolate"/>
    <path id="Path_282" data-name="Path 282" d="M210.316,363.636h6.4l-6.706-16.06-4.341,7.374Z" transform="translate(314.129 172.981)" fill="#ffc3bd"/>
    <path id="Path_283" data-name="Path 283" d="M216.308,368.433l-7.513-1.706a.525.525,0,0,0-.631.336l-2.1,5.777a1.154,1.154,0,0,0,.786,1.429l.036.009c2.634.551,3.929.683,7.233,1.433,2.034.462,7.18,1.812,9.985,2.449s3.544-2.113,2.427-2.634c-5.009-2.32-7.725-4.537-9.181-6.426A1.813,1.813,0,0,0,216.308,368.433Z" transform="translate(314.012 166.667)" fill="#263238"/>
    <path id="Path_284" data-name="Path 284" d="M210.01,347.584l2.855,6.839-5.758,3.217-1.437-2.682Z" transform="translate(314.129 172.978)"/>
    <path id="Path_285" data-name="Path 285" d="M111.185,283.842l-.692,2.183c-.091.168.1.346.387.356l24.817.753c.224,0,.407-.1.427-.239l.285-2.194c0-.152-.168-.285-.407-.295l-24.385-.738A.458.458,0,0,0,111.185,283.842Z" transform="translate(345.545 194.072)" fill="#263238"/>
    <path id="Path_286" data-name="Path 286" d="M140.7,300.969c-8.154,3.474-17,6.949-21.811,6.949-9.633,0-18.189-6.955-9.068-22.771,5.73-.021,15.693.162,15.693.162s18.788-5.33,32.415-3.776a15.382,15.382,0,0,1,13.324,12.309c3.459,17.405,8.785,36.258,8.785,36.258l-6.854,4.666s-10.686-22.471-16.838-40.3C153.1,295.506,147.113,298.237,140.7,300.969Z" transform="translate(347.041 194.869)" fill="#0301ad"/>
    <path id="Path_287" data-name="Path 287" d="M171.222,293.842A15.382,15.382,0,0,0,157.9,281.533c-13.627-1.554-32.415,3.776-32.415,3.776s-9.964-.183-15.693-.162c-9.27,15.762-.565,22.771,9.068,22.771,4.809,0,13.657-3.475,21.811-6.949,6.412-2.732,12.394-5.463,15.646-6.505,6.152,17.831,16.838,40.3,16.838,40.3l6.854-4.666S174.682,311.247,171.222,293.842Z" transform="translate(347.073 194.869)" opacity="0.5"/>
    <path id="Path_288" data-name="Path 288" d="M187.5,308.342a64.057,64.057,0,0,1-1.008,6.666c-.03-.071-.061-.137-.086-.208-.01-.021-.016-.036-.026-.056-.031-.071-.051-.148-.086-.214-1.827-4.529-3.608-9.175-5.114-13.546a.409.409,0,0,1,.046.015v-.005C185.153,302.657,187.809,305.008,187.5,308.342Z" transform="translate(322.211 188.357)" fill="#0301ad"/>
    <path id="Path_289" data-name="Path 289" d="M187.5,308.342a64.057,64.057,0,0,1-1.008,6.666c-.03-.071-.061-.137-.086-.208-.01-.021-.016-.036-.026-.056-.031-.071-.051-.148-.086-.214-1.827-4.529-3.608-9.175-5.114-13.546a.409.409,0,0,1,.046.015v-.005C185.153,302.657,187.809,305.008,187.5,308.342Z" transform="translate(322.211 188.357)" opacity="0.6"/>
    <path id="Path_290" data-name="Path 290" d="M117.434,200.975c2.011,5.664,2.742,8.1,6.509,10.224,5.675,3.2,12.175-.521,11.894-6.671-.253-5.532-3.5-13.866-9.8-14.536a8.2,8.2,0,0,0-8.6,10.983Z" transform="translate(343.414 225.001)" fill="#e8bfbf"/>
    <path id="Path_291" data-name="Path 291" d="M132.845,204.8c.142.492.492.781.8.689s.429-.533.311-1.009-.492-.776-.8-.69S132.712,204.336,132.845,204.8Z" transform="translate(338.178 220.433)" fill="#263238"/>
    <path id="Path_292" data-name="Path 292" d="M140.7,202.331c.137.493.492.78.8.69s.429-.533.311-1.009-.492-.776-.8-.691S140.561,201.863,140.7,202.331Z" transform="translate(335.587 221.25)" fill="#263238"/>
    <path id="Path_293" data-name="Path 293" d="M140.982,201.11l1.033-.652S141.7,201.5,140.982,201.11Z" transform="translate(335.476 221.53)" fill="#263238"/>
    <path id="Path_294" data-name="Path 294" d="M137.906,204.431a13.175,13.175,0,0,0,2.532,2.517,2.058,2.058,0,0,1-1.586.773Z" transform="translate(336.491 220.219)" fill="#ed847e"/>
    <path id="Path_295" data-name="Path 295" d="M110.786,207.635a16.536,16.536,0,0,1,.931,3.155A4.368,4.368,0,0,1,108,215.346a4.2,4.2,0,0,0,4.839-2.188,5.7,5.7,0,0,1-2.865,3.094,6.087,6.087,0,0,0,4.857-2.338l-.954,2.444a10.446,10.446,0,0,0,3.784-3.965,2.006,2.006,0,0,0,.158-2.134,2.381,2.381,0,0,0-1.9-.56c-.683-.014-1.5-.172-1.753-.809-.242-.612.208-1.276.7-1.712s1.091-.837,1.273-1.47a2.717,2.717,0,0,0-.094-1.381l-.907-3.7a3.815,3.815,0,0,0-.464-1.244c-1.348-2.007-2.832.936-3.327,1.939A8.769,8.769,0,0,0,110.786,207.635Z" transform="translate(346.359 222.111)" fill="#263238"/>
    <path id="Path_296" data-name="Path 296" d="M116.835,212.962a4.709,4.709,0,0,0,3.113,1.8c1.642.2,2.218-1.324,1.56-2.743-.594-1.28-2.165-2.923-3.713-2.49A2.115,2.115,0,0,0,116.835,212.962Z" transform="translate(343.613 218.558)" fill="#e8bfbf"/>
    <path id="Path_297" data-name="Path 297" d="M131.554,199.1a.3.3,0,0,1-.248.251,3.541,3.541,0,0,0-2.123,1.888.3.3,0,1,1-.545-.247,4.24,4.24,0,0,1,2.552-2.234.3.3,0,0,1,.349.238A.234.234,0,0,1,131.554,199.1Z" transform="translate(339.558 222.092)" fill="#263238"/>
    <g id="Group_200" data-name="Group 200" transform="translate(474.211 419.851)">
      <path id="Path_298" data-name="Path 298" d="M138.1,197.271a.317.317,0,0,0-.253.066c-.076.082-.318.222-.178.292.818.421,1.948,1.1,2.819.963.145-.03.5-.157.42-.261a.425.425,0,0,0-.4-.134c-.693.1-1.612-.551-2.256-.885A.516.516,0,0,0,138.1,197.271Z" transform="translate(-137.629 -197.268)" fill="#263238"/>
    </g>
    <path id="Path_299" data-name="Path 299" d="M133.142,203.584l1.034-.647S133.851,203.98,133.142,203.584Z" transform="translate(338.063 220.712)" fill="#263238"/>
    <path id="Path_300" data-name="Path 300" d="M125.43,186.047a14.493,14.493,0,0,0-4.9-.423,11.619,11.619,0,0,0-6.494,2.254,10.553,10.553,0,0,0-3.544,5.669,16.425,16.425,0,0,0-.172,6.753,4.383,4.383,0,0,0,1.3,2.823,17.253,17.253,0,0,1,.614-3.558,5.785,5.785,0,0,1,1.983-2.954,3.171,3.171,0,0,0,1.074-.953,4.018,4.018,0,0,0,.24-1.217,3.744,3.744,0,0,1,1.564-2.3,12.634,12.634,0,0,1,2.527-1.3c2.819-1.218,5.9-1.912,8.5-3.544A12.214,12.214,0,0,0,125.43,186.047Z" transform="translate(345.683 226.443)" fill="#263238"/>
    <path id="Path_301" data-name="Path 301" d="M114.945,194.635a4.433,4.433,0,0,0,2.391,1.487c1.112.256,3.891.194,4.058-.1.2-.348-.82-3.411-1.946-3.6a7.625,7.625,0,0,0,2.719,1.69,8.941,8.941,0,0,0,3.486-.017c.584-.137-.73-2.574-1.689-3.272,2.888.6,5.94,1.29,8.067,3.333,2.19,2.1,3,5.318,2.888,8.35a4.131,4.131,0,0,0,1.55-3.294,12.275,12.275,0,0,1-.853,9.562c3.073-2.519,4.221-6.922,3.412-10.812a17.429,17.429,0,0,0-6.437-9.75,15.769,15.769,0,0,0-9.266-3.792C118.846,184.319,110.591,189.386,114.945,194.635Z" transform="translate(344.474 226.822)" fill="#263238"/>
    <path id="Path_302" data-name="Path 302" d="M116.47,222.357c.026-.221.052-.511.079-.825a2.856,2.856,0,0,0-2.328-3.051l-.036-.007a1.188,1.188,0,0,1-.909-.779c-.52-1.5-.719-1.956-1.217-3.432-1.355-.325-2.95.174-4.354.325a12.163,12.163,0,0,0-.077,5.117,2.2,2.2,0,0,0,.429,1.049,18.249,18.249,0,0,0,4.179,2.574C113.477,223.7,115.179,222.477,116.47,222.357Z" transform="translate(346.56 217.01)" fill="#e8bfbf"/>
    <path id="Path_303" data-name="Path 303" d="M114.089,227.189S110.4,251,114.2,254.634c2.234,2.134,4.164.957,5.374-.377a4.728,4.728,0,0,0,1.165-3.671l-2.591-24.407A2.935,2.935,0,0,0,114.089,227.189Z" transform="translate(344.881 213.187)" fill="#e8bfbf"/>
    <path id="Path_304" data-name="Path 304" d="M172.332,249.894a8.247,8.247,0,0,0,3.26-7.087,116.157,116.157,0,0,0-1.253-12.225l-3.507-1.158s-1.09,6.018-1.331,9.326c-.048.65-.121,1.416-.2,2.222-.157,1.473-.346,3.1-.513,4.441Z" transform="translate(326.3 211.971)" fill="#e8bfbf"/>
    <path id="Path_305" data-name="Path 305" d="M173.844,257.508c1.075-.986,1.258-2.175,1.814-4.718.53-2.4-.068-5.331-.561-4.912a.532.532,0,0,0-.136.21c-.85,2.007-4.162.247-5.1-.755a6.964,6.964,0,0,1-1.054-1.29,1.084,1.084,0,0,1-.026-1.221c-1.017-.419-1.835,3.585-1.347,4.571l.248.742a10.294,10.294,0,0,0,1.842,3.309l1.842,2.219Z" transform="translate(326.795 206.9)" fill="#febe50"/>
    <path id="Path_306" data-name="Path 306" d="M171.5,227.174l-.419-6.119a25.764,25.764,0,0,0,3.382,1.3c1.706.58,4-.444,3.489.662a47.245,47.245,0,0,1-2.855,4.8Z" transform="translate(325.544 214.733)" fill="#e8bfbf"/>
    <path id="Path_307" data-name="Path 307" d="M171.078,218.035l2.61-6.132,3.427,2.1c.944,2.049.834,6,.834,6S173.2,220.216,171.078,218.035Z" transform="translate(325.544 217.753)" fill="#e8bfbf"/>
    <path id="Path_308" data-name="Path 308" d="M137.3,213.561c.089.439.4.744.687.68s.438-.464.343-.9-.4-.738-.686-.674S137.2,213.148,137.3,213.561Z" transform="translate(336.701 217.504)" fill="#263238"/>
    <path id="Path_309" data-name="Path 309" d="M111.457,317.479,109.388,287.3c-.3-4.261-2.372-7.814-5.253-9.5a11.432,11.432,0,0,0-6.37-2.469,7.1,7.1,0,0,0-.736-.032,11.148,11.148,0,0,0-5.347,1.36,1.565,1.565,0,0,0-.152.078,12.672,12.672,0,0,0-4.261,3.868l-.006.006a14.467,14.467,0,0,0-2.542,8.264c0,6.7,4.412,12.287,10.209,13.377L97.169,334.9c.192,2.779,2.016,4.906,4.207,4.906h11.239Z" transform="translate(354.042 196.83)" fill="#0301ad"/>
    <path id="Path_310" data-name="Path 310" d="M111.457,317.479,109.388,287.3c-.3-4.261-2.372-7.814-5.253-9.5a11.432,11.432,0,0,0-6.37-2.469,7.1,7.1,0,0,0-.736-.032,11.148,11.148,0,0,0-5.347,1.36,1.565,1.565,0,0,0-.152.078,12.672,12.672,0,0,0-4.261,3.868l-.006.006a14.467,14.467,0,0,0-2.542,8.264c0,6.7,4.412,12.287,10.209,13.377L97.169,334.9c.192,2.779,2.016,4.906,4.207,4.906h11.239Z" transform="translate(354.042 196.83)" fill="#fff" opacity="0.1"/>
    <ellipse id="Ellipse_3" data-name="Ellipse 3" cx="22.473" cy="5.747" rx="22.473" ry="5.747" transform="translate(523.115 557.898)" fill="#263238"/>
    <ellipse id="Ellipse_4" data-name="Ellipse 4" cx="22.473" cy="4.792" rx="22.473" ry="4.792" transform="translate(523.115 557.898)" fill="#fff" opacity="0.3"/>
    <path id="Path_311" data-name="Path 311" d="M242.989,387.675h-3.708l-4.291-46.245H247.28Z" transform="translate(304.453 175.009)" fill="#263238"/>
    <path id="Path_312" data-name="Path 312" d="M247.28,340.23c0,1.346-2.752,2.439-6.146,2.439s-6.145-1.092-6.145-2.439,2.752-2.439,6.145-2.439S247.28,338.882,247.28,340.23Z" transform="translate(304.454 176.21)" fill="#263238"/>
    <path id="Path_313" data-name="Path 313" d="M247.28,340.23c0,1.346-2.752,2.439-6.146,2.439s-6.145-1.092-6.145-2.439,2.752-2.439,6.145-2.439S247.28,338.882,247.28,340.23Z" transform="translate(304.454 176.21)" fill="#fff" opacity="0.7"/>
    <path id="Path_314" data-name="Path 314" d="M132.04,341.8a2.077,2.077,0,0,1,.717-1.447c5.193,5.226,38.136,9.253,78,9.253s72.809-4.027,78.008-9.253a2.077,2.077,0,0,1,.717,1.447c0,5.9-35.249,10.693-78.725,10.693S132.04,347.7,132.04,341.8Z" transform="translate(338.427 175.365)" fill="#fff" opacity="0.7"/>
    <path id="Path_315" data-name="Path 315" d="M133.11,339.947c5.193-5.226,38.136-9.246,78-9.246s72.809,4.02,78.008,9.246c-5.2,5.226-38.143,9.253-78.008,9.253S138.3,345.173,133.11,339.947Z" transform="translate(338.074 178.55)" fill="#fff" opacity="0.7"/>
    <path id="Path_316" data-name="Path 316" d="M132.04,336.933c0-5.909,35.242-10.693,78.718-10.693s78.725,4.784,78.725,10.693a2.052,2.052,0,0,1-.717,1.441c-5.2-5.226-38.143-9.246-78.008-9.246s-72.809,4.02-78,9.246A2.052,2.052,0,0,1,132.04,336.933Z" transform="translate(338.427 180.022)" fill="#fff" opacity="0.7"/>
    <path id="Path_317" data-name="Path 317" d="M278.331,333.4l-32.935-.621a.684.684,0,0,1-.6-.748h0a.691.691,0,0,1,.636-.725l32.934.621a.684.684,0,0,1,.6.748h0A.691.691,0,0,1,278.331,333.4Z" transform="translate(301.218 178.352)" fill="#263238"/>
    <path id="Path_318" data-name="Path 318" d="M278.331,333.4l-32.935-.621a.684.684,0,0,1-.6-.748h0a.691.691,0,0,1,.636-.725l32.934.621a.684.684,0,0,1,.6.748h0A.691.691,0,0,1,278.331,333.4Z" transform="translate(301.218 178.352)" fill="#fff" opacity="0.2"/>
    <path id="Path_319" data-name="Path 319" d="M310.629,330.118l-15.747,2.38a.644.644,0,0,1-.685-.638h0a.733.733,0,0,1,.544-.823l15.748-2.381a.645.645,0,0,1,.685.638h0A.734.734,0,0,1,310.629,330.118Z" transform="translate(284.916 179.227)" fill="#263238"/>
    <path id="Path_320" data-name="Path 320" d="M294.5,328.658h-33.29l-15.467,1.77,32.037.6Z" transform="translate(300.904 179.224)" fill="#263238"/>
    <path id="Path_321" data-name="Path 321" d="M294.5,328.658h-33.29l-15.467,1.77,32.037.6Z" transform="translate(300.904 179.224)" fill="#fff" opacity="0.6"/>
    <path id="Path_322" data-name="Path 322" d="M310.629,330.118l-15.747,2.38a.644.644,0,0,1-.685-.638h0a.733.733,0,0,1,.544-.823l15.748-2.381a.645.645,0,0,1,.685.638h0A.734.734,0,0,1,310.629,330.118Z" transform="translate(284.916 179.227)" fill="#fff" opacity="0.5"/>
    <path id="Path_323" data-name="Path 323" d="M276.949,320.471l-30.711-.58a2.383,2.383,0,0,1-2.088-2.387l-.925-18.541a2.019,2.019,0,0,1,1.853-2.312l30.71.579a2.383,2.383,0,0,1,2.088,2.387l.925,18.542A2.02,2.02,0,0,1,276.949,320.471Z" transform="translate(301.737 189.786)" fill="#0301ad"/>
    <path id="Path_324" data-name="Path 324" d="M276.949,320.471l-30.711-.58a2.383,2.383,0,0,1-2.088-2.387l-.925-18.541a2.019,2.019,0,0,1,1.853-2.312l30.71.579a2.383,2.383,0,0,1,2.088,2.387l.925,18.542A2.02,2.02,0,0,1,276.949,320.471Z" transform="translate(301.737 189.786)" fill="#fff" opacity="0.2"/>
    <path id="Path_325" data-name="Path 325" d="M275.6,320.326l-30.71-.579a2.383,2.383,0,0,1-2.088-2.387l-.926-18.541a2.021,2.021,0,0,1,1.853-2.313l30.711.58a2.383,2.383,0,0,1,2.088,2.387l.925,18.541A2.019,2.019,0,0,1,275.6,320.326Z" transform="translate(302.181 189.834)" fill="#0301ad"/>
    <path id="Path_326" data-name="Path 326" d="M275.6,320.326l-30.71-.579a2.383,2.383,0,0,1-2.088-2.387l-.926-18.541a2.021,2.021,0,0,1,1.853-2.313l30.711.58a2.383,2.383,0,0,1,2.088,2.387l.925,18.541A2.019,2.019,0,0,1,275.6,320.326Z" transform="translate(302.181 189.834)" fill="#ccd1e4" opacity="0.6"/>
    <path id="Path_327" data-name="Path 327" d="M262.35,312.22a3.629,3.629,0,0,0,3.544,3.26,2.939,2.939,0,0,0,2.974-3.26,3.628,3.628,0,0,0-3.544-3.259A2.939,2.939,0,0,0,262.35,312.22Z" transform="translate(295.429 185.724)" fill="#fff"/>
  </g>
</svg>
