<svg id="eye_key_broken" data-name="eye/key/broken" xmlns="http://www.w3.org/2000/svg" width="24" height="24" viewBox="0 0 24 24">
  <g id="vuesax_broken_key" data-name="vuesax/broken/key">
    <g id="key">
      <path id="Vector" d="M10.993.138a7.562,7.562,0,1,1-.8,14.64l-4.71,4.7a1.935,1.935,0,0,1-1.49.49l-2.18-.3a1.888,1.888,0,0,1-1.5-1.5l-.3-2.18A2.015,2.015,0,0,1,.5,14.5l1.12-1.12,3.57-3.57a7.569,7.569,0,0,1,1.88-7.6" transform="translate(1.997 2.012)" fill="none" stroke="#0301ad" stroke-linecap="round" stroke-linejoin="round" stroke-width="1.5"/>
      <path id="Vector-2" data-name="Vector" d="M0,0,2.3,2.3" transform="translate(6.89 17.49)" fill="none" stroke="#0301ad" stroke-linecap="round" stroke-linejoin="round" stroke-width="1.5"/>
      <path id="Vector-3" data-name="Vector" d="M3,1.5A1.5,1.5,0,1,1,1.5,0,1.5,1.5,0,0,1,3,1.5Z" transform="translate(13 8)" fill="none" stroke="#0301ad" stroke-linecap="round" stroke-linejoin="round" stroke-width="1.5"/>
      <path id="Vector-4" data-name="Vector" d="M0,0H24V24H0Z" fill="none" opacity="0"/>
    </g>
  </g>
</svg>
