<svg id="Emoji" xmlns="http://www.w3.org/2000/svg" width="23.333" height="24" viewBox="0 0 23.333 24">
  <path id="Vector" d="M0,6.667v6.667H2.667V6.667a4,4,0,1,1,8,0v6.667h2.667V6.667A6.667,6.667,0,1,0,0,6.667Z" transform="translate(2 2)" fill="#aab8c2"/>
  <path id="Vector-2" data-name="Vector" d="M14.667,13.333h-12A2.667,2.667,0,0,1,0,10.667v-8A2.667,2.667,0,0,1,2.667,0h12a2.667,2.667,0,0,1,2.667,2.667v8A2.667,2.667,0,0,1,14.667,13.333Z" transform="translate(0 10.667)" fill="#ffac33"/>
  <path id="Vector-3" data-name="Vector" d="M4,22.333V11.651a6,6,0,1,1,4,0v3.015a1.327,1.327,0,0,1-.667,1.149v1.517A.666.666,0,0,1,8,18v1.333A.666.666,0,0,1,7.333,20v.667A.666.666,0,0,1,8,21.334V22a.666.666,0,0,1-.667.667c-.012,0-.022-.005-.033-.006A1.666,1.666,0,0,1,4,22.333Z" transform="translate(11.333)" fill="#c1694f"/>
</svg>
