<svg id="message-question_broken" data-name="message-question/broken" xmlns="http://www.w3.org/2000/svg" width="24" height="24" viewBox="0 0 24 24">
  <g id="vuesax_broken_message-question" data-name="vuesax/broken/message-question">
    <g id="message-question">
      <path id="Vector" d="M0,9.13V11a4.724,4.724,0,0,0,5,5H9l4.45,2.96A1,1,0,0,0,15,18.13V16a4.724,4.724,0,0,0,5-5V5a4.724,4.724,0,0,0-5-5H5A4.724,4.724,0,0,0,0,5" transform="translate(2 2.43)" fill="none" stroke="#292d32" stroke-linecap="round" stroke-linejoin="round" stroke-width="1.5"/>
      <path id="Vector-2" data-name="Vector" d="M1.66,4.5V4.29A1.567,1.567,0,0,1,2.5,2.96a1.533,1.533,0,0,0,.82-1.3A1.66,1.66,0,1,0,0,1.66" transform="translate(10.34 6.86)" fill="none" stroke="#292d32" stroke-linecap="round" stroke-linejoin="round" stroke-width="1.5"/>
      <path id="Vector-3" data-name="Vector" d="M0,0H24V24H0Z" fill="none" opacity="0"/>
      <path id="Vector-4" data-name="Vector" d="M.5.5H.5" transform="translate(11.5 13.25)" fill="none" stroke="#292d32" stroke-linecap="round" stroke-linejoin="round" stroke-width="1.5"/>
    </g>
  </g>
</svg>
