<svg id="Emoji" xmlns="http://www.w3.org/2000/svg" width="24" height="24" viewBox="0 0 24 24">
  <path id="Vector" d="M0,21.333V2.667A2.612,2.612,0,0,1,2.667,0H12a2.612,2.612,0,0,1,2.667,2.667V21.333A2.612,2.612,0,0,1,12,24H2.667A2.612,2.612,0,0,1,0,21.333Z" transform="translate(9.333)" fill="#31373d"/>
  <path id="Vector-2" data-name="Vector" d="M10.667,17.333V0h12V17.333ZM3.334,12.667v-2h-2A1.306,1.306,0,0,1,0,9.333V8A1.306,1.306,0,0,1,1.333,6.666h2v-2c0-1.333,1.333-1.333,2-.667L8.667,7.333a2.329,2.329,0,0,1,.666,1.334A2.329,2.329,0,0,1,8.667,10L5.333,13.333a1.5,1.5,0,0,1-1.029.438C3.791,13.772,3.334,13.448,3.334,12.667Z" transform="translate(0 3.333)" fill="#55acee"/>
</svg>
