<svg xmlns="http://www.w3.org/2000/svg" width="174" height="174" viewBox="0 0 174 174">
    <defs>
        <filter id="tuojoz1ifa" x="0" y="0" width="174" height="174" filterUnits="userSpaceOnUse">
            <feOffset dy="4"/>
            <feGaussianBlur stdDeviation="20" result="blur"/>
            <feFlood flood-opacity=".302"/>
            <feComposite operator="in" in2="blur"/>
            <feComposite in="SourceGraphic"/>
        </filter>
    </defs>
    <g style="filter:url(#tuojoz1ifa)">
        <rect data-name="Bg" width="54" height="54" rx="27" transform="translate(59.999 56)" style="fill:#fff;opacity:.2"/>
    </g>
    <g data-name="Mic off">
        <path d="m0 0 19.928 19.928" transform="translate(77 72.841)" style="fill:none;stroke:#fff;stroke-linecap:round;stroke-linejoin:round;stroke-width:2px"/>
        <path data-name="Vector" d="M0 7.249v2.718a2.717 2.717 0 0 0 4.638 1.92zm5.435.308V2.72a2.717 2.717 0 0 0-5.38-.543" transform="translate(84.246 72.838)" style="fill:none;stroke:#fff;stroke-linecap:round;stroke-linejoin:round;stroke-width:2px"/>
        <path data-name="Vector" d="M10.87 6.3A6.341 6.341 0 0 1 0 1.812V0zM12.681 0v1.812a6.341 6.341 0 0 1-.1 1.114" transform="translate(80.623 80.993)" style="fill:none;stroke:#fff;stroke-linecap:round;stroke-linejoin:round;stroke-width:2px"/>
        <path data-name="Vector" d="M0 0v3.623" transform="translate(86.964 89.145)" style="fill:none;stroke:#fff;stroke-linecap:round;stroke-linejoin:round;stroke-width:2px"/>
        <path data-name="Vector" d="M0 0h7.246" transform="translate(83.341 92.768)" style="fill:none;stroke:#fff;stroke-linecap:round;stroke-linejoin:round;stroke-width:2px"/>
    </g>
</svg>
