<svg id="vuesax_outline_emoji-sad" data-name="vuesax/outline/emoji-sad" xmlns="http://www.w3.org/2000/svg" width="156.267" height="156.267" viewBox="0 0 156.267 156.267">
  <g id="emoji-sad">
    <path id="Vector" d="M89.528,139.989H50.461C15.106,139.989,0,124.883,0,89.528V50.461C0,15.106,15.106,0,50.461,0H89.528c35.355,0,50.461,15.106,50.461,50.461V89.528C139.989,124.883,124.883,139.989,89.528,139.989ZM50.461,9.767c-30.016,0-40.694,10.678-40.694,40.694V89.528c0,30.016,10.678,40.694,40.694,40.694H89.528c30.016,0,40.694-10.678,40.694-40.694V50.461c0-30.016-10.678-40.694-40.694-40.694Z" transform="translate(8.139 8.139)" fill="#bcc0cf"/>
    <path id="Vector-2" data-name="Vector" d="M28.568,14.634A4.83,4.83,0,0,1,25.117,13.2a11.907,11.907,0,0,0-16.8,0,4.88,4.88,0,0,1-6.9-6.9,21.732,21.732,0,0,1,30.6,0,4.913,4.913,0,0,1,0,6.9A4.829,4.829,0,0,1,28.568,14.634Z" transform="translate(40.711 47.222)" fill="#bcc0cf"/>
    <path id="Vector-3" data-name="Vector" d="M4.867,14.634A4.829,4.829,0,0,1,1.416,13.2a4.913,4.913,0,0,1,0-6.9,21.732,21.732,0,0,1,30.6,0,4.88,4.88,0,1,1-6.9,6.9,11.907,11.907,0,0,0-16.8,0A4.621,4.621,0,0,1,4.867,14.634Z" transform="translate(82.121 47.222)" fill="#bcc0cf"/>
    <path id="Vector-4" data-name="Vector" d="M57.623,44.927H10.743A10.754,10.754,0,0,1,0,34.183a34.183,34.183,0,0,1,68.367,0A10.754,10.754,0,0,1,57.623,44.927ZM34.183,9.767A24.426,24.426,0,0,0,9.767,34.183a1,1,0,0,0,.977.977h46.88a1,1,0,0,0,.977-.977A24.426,24.426,0,0,0,34.183,9.767Z" transform="translate(43.95 75.203)" fill="#bcc0cf"/>
    <path id="Vector-5" data-name="Vector" d="M0,0H156.267V156.267H0Z" fill="none" opacity="0"/>
  </g>
</svg>
