<svg data-name="notification/broken/notification" xmlns="http://www.w3.org/2000/svg" width="24" height="24" viewBox="0 0 24 24">
    <g data-name="vuesax/broken/notification">
        <path d="M14.046 8.89V6a6 6 0 0 0-12 0v2.89a4.778 4.778 0 0 1-.57 2.06l-1.15 1.91a1.919 1.919 0 0 0 1.08 2.93 20.921 20.921 0 0 0 13.27 0 2 2 0 0 0 1.08-2.93" transform="translate(3.974 2.91)" style="stroke-linecap:round;stroke:#292d32;stroke-width:1.5px;fill:none"/>
        <path data-name="Vector" d="M3.7 1.26a6.054 6.054 0 0 0-.96-.2 6.754 6.754 0 0 0-2.74.2 1.988 1.988 0 0 1 3.7 0z" transform="translate(10.17 1.94)" style="stroke-linejoin:round;stroke-linecap:round;stroke:#292d32;stroke-width:1.5px;fill:none"/>
        <path data-name="Vector" d="M6 0a3.009 3.009 0 0 1-3 3 3.011 3.011 0 0 1-2.12-.88A3.011 3.011 0 0 1 0 0" transform="translate(9.02 19.06)" style="stroke:#292d32;stroke-width:1.5px;fill:none"/>
    </g>
</svg>
