<svg id="transaction-minus_outline_transaction-minus" data-name="transaction-minus/outline/transaction-minus" xmlns="http://www.w3.org/2000/svg" width="24" height="24" viewBox="0 0 24 24">
  <g id="vuesax_outline_transaction-minus" data-name="vuesax/outline/transaction-minus">
    <g id="transaction-minus">
      <path id="Vector" d="M9.23,21.5a2.593,2.593,0,0,1-2.06-1.1L6.16,19.05a1.081,1.081,0,0,0-.79-.46,1.119,1.119,0,0,0-.84.37l-.55-.51.55.51c-1.44,1.54-2.55,1.42-3.08,1.21S0,19.27,0,17.05V5.79C0,1.35,1.28,0,5.47,0h7.56c4.19,0,5.47,1.35,5.47,5.79V17.05c0,2.21-.91,2.9-1.45,3.12s-1.63.33-3.08-1.21a1.058,1.058,0,0,0-.85-.37,1.1,1.1,0,0,0-.8.46L11.31,20.4A2.659,2.659,0,0,1,9.23,21.5ZM5.31,17.08h.13a2.579,2.579,0,0,1,1.91,1.06l1.01,1.35a1.011,1.011,0,0,0,1.73,0l1.01-1.35a2.513,2.513,0,0,1,3.94-.21c.76.81,1.25.91,1.43.84.24-.1.5-.68.5-1.72V5.79c0-3.61-.63-4.29-3.97-4.29H5.44c-3.34,0-3.97.68-3.97,4.29V17.05c0,1.05.26,1.63.5,1.72.17.07.67-.03,1.43-.84A2.706,2.706,0,0,1,5.31,17.08Z" transform="translate(2.77 1.25)" fill="#bcc0cf"/>
      <path id="Vector-2" data-name="Vector" d="M6.25,1.5H.75A.755.755,0,0,1,0,.75.755.755,0,0,1,.75,0h5.5A.755.755,0,0,1,7,.75.755.755,0,0,1,6.25,1.5Z" transform="translate(8.5 9.25)" fill="#bcc0cf"/>
      <path id="Vector-3" data-name="Vector" d="M0,0H24V24H0Z" fill="none" opacity="0"/>
    </g>
  </g>
</svg>
