<svg xmlns="http://www.w3.org/2000/svg" width="51.264" height="46.054" viewBox="0 0 51.264 46.054">
    <path data-name="Path 334" d="M19.126 72.471V44.448A3.452 3.452 0 0 1 22.581 41h-3.126A3.452 3.452 0 0 0 16 44.448v28.023a3.452 3.452 0 0 0 3.455 3.449h3.126a3.452 3.452 0 0 1-3.455-3.449z" transform="translate(-15.375 -40.375)" style="fill:#d9dcff"/>
    <g data-name="Group 206">
        <path data-name="Path 335" d="M176.879 143.225a2.171 2.171 0 0 0-.05.262.112.112 0 0 1 0 .012 2.188 2.188 0 0 0 1.573 2.368l5.91 2.128a8.865 8.865 0 0 0 2.39.5v7.161h1.25V147.9a.625.625 0 0 0-.625-.625 7.629 7.629 0 0 1-2.591-.452l-5.934-2.137-.053-.016a.933.933 0 0 1-.677-1.029.919.919 0 0 1 .091-.293v-.005a.977.977 0 0 1 .357-.386.931.931 0 0 1 .791-.1l6.347 2.419a.625.625 0 0 0 .223.041h8.891a3.446 3.446 0 0 1 3.34 2.651v.011l2.077 7.845 1.209-.32-2.075-7.84a4.694 4.694 0 0 0-4.553-3.6H186l-6.249-2.382-.018-.006a2.176 2.176 0 0 0-1.869.216 2.29 2.29 0 0 0-.3.224l-3.841-4.2a.625.625 0 1 0-.922.844z" transform="translate(-155.686 -127.013)" style="fill:#febe50"/>
        <path data-name="Path 336" d="M326.671 115.169a4.28 4.28 0 1 0-4.287-4.28 4.28 4.28 0 0 0 4.287 4.28zm0-7.311a3.03 3.03 0 1 1-3.037 3.03 3.03 3.03 0 0 1 3.037-3.03z" transform="translate(-289.835 -99.147)" style="fill:#febe50"/>
        <path data-name="Path 337" d="M394.029 264.861a.953.953 0 0 0-.845.956v3.734h1.25v-1.413l.393 1.565 1.213-.3-.959-3.816a.953.953 0 0 0-1.052-.726z" transform="translate(-353.259 -240.903)" style="fill:#febe50"/>
        <path data-name="Path 338" d="M179.2 93.759h8.74a.625.625 0 1 0 0-1.25h-8.74a.625.625 0 1 0 0 1.25z" transform="translate(-161.012 -86.517)" style="fill:#febe50"/>
        <path data-name="Path 339" d="M157.725 93.759h.033a.625.625 0 1 0 0-1.25h-.033a.625.625 0 1 0 0 1.25z" transform="translate(-141.773 -86.517)" style="fill:#febe50"/>
        <path data-name="Path 340" d="M121.933 93.759h1.459a.625.625 0 0 0 0-1.25h-1.459a.625.625 0 1 0 0 1.25z" transform="translate(-109.71 -86.517)" style="fill:#febe50"/>
        <path data-name="Path 341" d="M59.082 93.759h4.06a.625.625 0 1 0 0-1.25h-4.06a.625.625 0 1 0 0 1.25z" transform="translate(-53.408 -86.517)" style="fill:#febe50"/>
        <path data-name="Path 342" d="M263.021 146.429h-.007a.629.629 0 1 0 .007 0z" transform="translate(-236.091 -134.819)" style="fill:#febe50"/>
        <path data-name="Path 343" d="M210.49 146.429a.625.625 0 1 0 0 1.25h3.1a.625.625 0 1 0 0-1.25z" transform="translate(-189.04 -134.819)" style="fill:#febe50"/>
        <path data-name="Path 344" d="M59.082 147.679H68.4a.625.625 0 1 0 0-1.25h-9.318a.625.625 0 1 0 0 1.25z" transform="translate(-53.408 -134.819)" style="fill:#febe50"/>
        <path data-name="Path 345" d="M182.683 204.959a.625.625 0 1 0 0-1.25h-1.642a.625.625 0 0 0 0 1.25z" transform="translate(-162.66 -186.131)" style="fill:#febe50"/>
        <path data-name="Path 346" d="M98.492 204.334a.625.625 0 0 0-.625-.625h-6.289a.625.625 0 0 0 0 1.25h6.289a.625.625 0 0 0 .625-.625z" transform="translate(-82.518 -186.131)" style="fill:#febe50"/>
        <path data-name="Path 347" d="M59.082 204.959h1.009a.625.625 0 0 0 0-1.25h-1.009a.625.625 0 0 0 0 1.25z" transform="translate(-53.408 -186.131)" style="fill:#febe50"/>
        <path data-name="Path 348" d="M249.579 257.9a.625.625 0 0 0 0-1.25h-1.571a.625.625 0 0 0 0 1.25z" transform="translate(-222.649 -233.555)" style="fill:#febe50"/>
        <path data-name="Path 349" d="M224.986 257.9a.625.625 0 1 0 0-1.25h-.024a.625.625 0 0 0 0 1.25z" transform="translate(-202.004 -233.555)" style="fill:#febe50"/>
        <path data-name="Path 350" d="M111.819 257.9h9.561a.625.625 0 0 0 0-1.25h-9.561a.625.625 0 0 0 0 1.25z" transform="translate(-100.65 -233.555)" style="fill:#febe50"/>
        <path data-name="Path 351" d="M59.082 257.9h3.061a.625.625 0 0 0 0-1.25h-3.061a.625.625 0 0 0 0 1.25z" transform="translate(-53.408 -233.555)" style="fill:#febe50"/>
    </g>
    <path data-name="Path 352" d="M57.184 35H14.08A4.081 4.081 0 0 0 10 39.073V67.1a4.081 4.081 0 0 0 4.08 4.073H28.4V79.8h-3.387a.625.625 0 0 0 0 1.25h21.859a.625.625 0 1 0 0-1.25h-4.006v-8.63h14.318a4.081 4.081 0 0 0 4.08-4.073V39.073A4.081 4.081 0 0 0 57.184 35zm-43.1 1.25h43.1a2.83 2.83 0 0 1 2.83 2.823v24.25H11.25v-24.25a2.83 2.83 0 0 1 2.83-2.823zM41.616 79.8H29.648v-8.63h11.968zm15.568-9.88H14.08a2.83 2.83 0 0 1-2.83-2.82v-2.527h48.763V67.1a2.83 2.83 0 0 1-2.829 2.82z" style="fill:#0301ad" transform="translate(-10 -35)"/>
</svg>
