<svg xmlns="http://www.w3.org/2000/svg" width="86.2" height="86.2" viewBox="0 0 86.2 86.2">
  <g id="Group_319" data-name="Group 319" transform="translate(-260.5 -610.4)">
    <path id="Path_476" data-name="Path 476" d="M22.1,0H64.1A22.1,22.1,0,0,1,86.2,22.1V64.1A22.1,22.1,0,0,1,64.1,86.2H22.1A22.1,22.1,0,0,1,0,64.1V22.1A22.1,22.1,0,0,1,22.1,0Z" transform="translate(260.5 610.4)" fill="#0301ad"/>
    <g id="svgexport-6_2_" data-name="svgexport-6 (2)" transform="translate(267.6 595.473)">
      <path id="Path_334" data-name="Path 334" d="M19.126,72.471V44.448A3.452,3.452,0,0,1,22.581,41H19.455A3.452,3.452,0,0,0,16,44.448V72.471a3.452,3.452,0,0,0,3.455,3.449h3.126A3.452,3.452,0,0,1,19.126,72.471Z" transform="translate(-5.375 -5.375)" fill="#fafafa"/>
      <g id="Group_206" data-name="Group 206" transform="translate(15.049 40.992)">
        <path id="Path_335" data-name="Path 335" d="M176.879,143.225a2.171,2.171,0,0,0-.05.262.112.112,0,0,1,0,.012,2.188,2.188,0,0,0,1.573,2.368l5.91,2.128a8.865,8.865,0,0,0,2.39.5v7.161h1.25V147.9a.625.625,0,0,0-.625-.625,7.629,7.629,0,0,1-2.591-.452l-5.934-2.137-.053-.016a.933.933,0,0,1-.677-1.029.919.919,0,0,1,.091-.293l0-.005a.977.977,0,0,1,.357-.386.931.931,0,0,1,.791-.1l6.347,2.419a.625.625,0,0,0,.223.041h8.891a3.446,3.446,0,0,1,3.34,2.651l0,.011,2.077,7.845,1.209-.32-2.075-7.84a4.694,4.694,0,0,0-4.553-3.6H186l-6.249-2.382-.018-.006a2.176,2.176,0,0,0-1.869.216,2.29,2.29,0,0,0-.3.224l-3.841-4.2a.625.625,0,1,0-.922.844Z" transform="translate(-160.735 -133.005)" fill="#fafafa"/>
        <path id="Path_336" data-name="Path 336" d="M326.671,115.169a4.28,4.28,0,1,0-4.287-4.28A4.28,4.28,0,0,0,326.671,115.169Zm0-7.311a3.03,3.03,0,1,1-3.037,3.03A3.03,3.03,0,0,1,326.671,107.858Z" transform="translate(-294.884 -105.139)" fill="#fafafa"/>
        <path id="Path_337" data-name="Path 337" d="M394.029,264.861a.953.953,0,0,0-.845.956v3.734h1.25v-1.413l.393,1.565,1.213-.3-.959-3.816A.953.953,0,0,0,394.029,264.861Z" transform="translate(-358.308 -246.895)" fill="#fafafa"/>
        <path id="Path_338" data-name="Path 338" d="M179.2,93.759h8.74a.625.625,0,1,0,0-1.25H179.2a.625.625,0,1,0,0,1.25Z" transform="translate(-166.061 -92.509)" fill="#fafafa"/>
        <path id="Path_339" data-name="Path 339" d="M157.725,93.759h.033a.625.625,0,1,0,0-1.25h-.033a.625.625,0,1,0,0,1.25Z" transform="translate(-146.822 -92.509)" fill="#fafafa"/>
        <path id="Path_340" data-name="Path 340" d="M121.933,93.759h1.459a.625.625,0,0,0,0-1.25h-1.459a.625.625,0,1,0,0,1.25Z" transform="translate(-114.759 -92.509)" fill="#fafafa"/>
        <path id="Path_341" data-name="Path 341" d="M59.082,93.759h4.06a.625.625,0,1,0,0-1.25h-4.06a.625.625,0,1,0,0,1.25Z" transform="translate(-58.457 -92.509)" fill="#fafafa"/>
        <path id="Path_342" data-name="Path 342" d="M263.021,146.429h-.007a.629.629,0,1,0,.007,0Z" transform="translate(-241.14 -140.811)" fill="#fafafa"/>
        <path id="Path_343" data-name="Path 343" d="M210.49,146.429a.625.625,0,1,0,0,1.25h3.1a.625.625,0,1,0,0-1.25Z" transform="translate(-194.089 -140.811)" fill="#fafafa"/>
        <path id="Path_344" data-name="Path 344" d="M59.082,147.679H68.4a.625.625,0,1,0,0-1.25H59.082a.625.625,0,1,0,0,1.25Z" transform="translate(-58.457 -140.811)" fill="#fafafa"/>
        <path id="Path_345" data-name="Path 345" d="M182.683,204.959a.625.625,0,0,0,0-1.25h-1.642a.625.625,0,0,0,0,1.25Z" transform="translate(-167.709 -192.123)" fill="#fafafa"/>
        <path id="Path_346" data-name="Path 346" d="M98.492,204.334a.625.625,0,0,0-.625-.625H91.578a.625.625,0,0,0,0,1.25h6.289A.625.625,0,0,0,98.492,204.334Z" transform="translate(-87.567 -192.123)" fill="#fafafa"/>
        <path id="Path_347" data-name="Path 347" d="M59.082,204.959h1.009a.625.625,0,0,0,0-1.25H59.082a.625.625,0,0,0,0,1.25Z" transform="translate(-58.457 -192.123)" fill="#fafafa"/>
        <path id="Path_348" data-name="Path 348" d="M249.579,257.9a.625.625,0,0,0,0-1.25h-1.571a.625.625,0,0,0,0,1.25Z" transform="translate(-227.698 -239.547)" fill="#fafafa"/>
        <path id="Path_349" data-name="Path 349" d="M224.986,257.9a.625.625,0,0,0,0-1.25h-.024a.625.625,0,0,0,0,1.25Z" transform="translate(-207.053 -239.547)" fill="#fafafa"/>
        <path id="Path_350" data-name="Path 350" d="M111.819,257.9h9.561a.625.625,0,0,0,0-1.25h-9.561a.625.625,0,0,0,0,1.25Z" transform="translate(-105.699 -239.547)" fill="#fafafa"/>
        <path id="Path_351" data-name="Path 351" d="M59.082,257.9h3.061a.625.625,0,0,0,0-1.25H59.082a.625.625,0,0,0,0,1.25Z" transform="translate(-58.457 -239.547)" fill="#fafafa"/>
      </g>
      <path id="Path_352" data-name="Path 352" d="M57.184,35H14.08A4.081,4.081,0,0,0,10,39.073V67.1a4.081,4.081,0,0,0,4.08,4.073H28.4V79.8H25.013a.625.625,0,0,0,0,1.25H46.872a.625.625,0,1,0,0-1.25H42.866V71.17H57.184a4.081,4.081,0,0,0,4.08-4.073V39.073A4.081,4.081,0,0,0,57.184,35Zm-43.1,1.25h43.1a2.83,2.83,0,0,1,2.83,2.823v24.25H11.25V39.073a2.83,2.83,0,0,1,2.83-2.823ZM41.616,79.8H29.648V71.17H41.616ZM57.184,69.92H14.08A2.83,2.83,0,0,1,11.25,67.1V64.573H60.013V67.1A2.83,2.83,0,0,1,57.184,69.92Z" fill="#fafafa"/>
    </g>
  </g>
</svg>
