<svg xmlns="http://www.w3.org/2000/svg" width="86.2" height="86.2" viewBox="0 0 86.2 86.2">
  <g id="Group_322" data-name="Group 322" transform="translate(-260.5 -1061.4)">
    <path id="Path_480" data-name="Path 480" d="M22.1,0H64.1A22.1,22.1,0,0,1,86.2,22.1V64.1A22.1,22.1,0,0,1,64.1,86.2H22.1A22.1,22.1,0,0,1,0,64.1V22.1A22.1,22.1,0,0,1,22.1,0Z" transform="translate(260.5 1061.4)" fill="#0301ad"/>
    <g id="Group_283" data-name="Group 283" transform="translate(264.549 1079.346)">
      <path id="Path_471" data-name="Path 471" d="M59.187,95.844a.674.674,0,0,0-1.214.585,8.866,8.866,0,0,1,.881,3.877v.229a.185.185,0,0,1-.185.185H31.086a.185.185,0,0,1-.185-.185v-.229a8.961,8.961,0,0,1,8.95-8.95H49.9a8.867,8.867,0,0,1,6.513,2.811.674.674,0,1,0,.98-.924,10.192,10.192,0,0,0-6.932-3.219V86.637a7.781,7.781,0,0,0,.627-.672,2.138,2.138,0,0,0,.8.212q.072.005.145.005a2.61,2.61,0,0,0,2.028-1.17,4.653,4.653,0,0,0,.915-2.377,2.519,2.519,0,0,0-2.128-2.813V76.389a3.6,3.6,0,0,1,.374-1.573,4.727,4.727,0,0,0-3.09-6.661.911.911,0,0,0-1.034.484,2.5,2.5,0,0,1-2.268,1.423H41.8v-2.7A5.824,5.824,0,0,0,35.98,61.55H31.744a5.824,5.824,0,0,0-5.817,5.817v3.981A2.529,2.529,0,0,0,23.7,74.181c.121,1.64,1.288,3.385,2.74,3.537a7.924,7.924,0,0,0,1.774,2.771v.936h-.988A9.983,9.983,0,0,0,17.251,91.4v1.479a1.5,1.5,0,0,0,1.5,1.5H31.435a10.241,10.241,0,0,0-1.882,5.927v.229a1.534,1.534,0,0,0,1.532,1.532H58.669a1.534,1.534,0,0,0,1.532-1.532v-.229A10.2,10.2,0,0,0,59.187,95.844ZM36.764,84.195a3.3,3.3,0,0,1-.643-1.66,1.162,1.162,0,0,1,.888-1.356,7.658,7.658,0,0,0,.96,3.617.909.909,0,0,1-.2.037A1.326,1.326,0,0,1,36.764,84.195Zm12.353,5.814H40.638v-2.4a7.662,7.662,0,0,0,4.078,1.171h.424a7.663,7.663,0,0,0,3.977-1.108Zm4.517-7.473a3.3,3.3,0,0,1-.643,1.66,1.324,1.324,0,0,1-1,.638.991.991,0,0,1-.115-.015,7.657,7.657,0,0,0,.972-3.606,1.157,1.157,0,0,1,.788,1.324Zm-6.8-11.126a3.893,3.893,0,0,0,3.3-1.85,3.382,3.382,0,0,1,1.884,4.662,4.952,4.952,0,0,0-.512,2.167v4.68a6.37,6.37,0,0,1-6.362,6.362h-.424a6.37,6.37,0,0,1-6.362-6.362V74.9a3.494,3.494,0,0,1,3.49-3.49ZM31.744,62.9H35.98a4.476,4.476,0,0,1,4.156,2.829,3.66,3.66,0,0,0-2.021-.607H29.609a3.66,3.66,0,0,0-2.021.607A4.476,4.476,0,0,1,31.744,62.9Zm.53,19.792a.674.674,0,0,0,.268-1.32,6.574,6.574,0,0,1-4.983-4.537.674.674,0,0,0-.764-.467,1.012,1.012,0,0,1-.107.014c-.7.054-1.561-1.151-1.646-2.3-.065-.882.4-1.365,1.37-1.437a.986.986,0,0,1,.142,0,.674.674,0,0,0,.72-.672V68.8a2.337,2.337,0,0,1,2.335-2.335h8.505A2.337,2.337,0,0,1,40.449,68.8v1.466A4.853,4.853,0,0,0,38,71.964c0-.011,0-.023,0-.034a1,1,0,1,0-.521.875,4.809,4.809,0,0,0-.477,2.095v4.9a2.529,2.529,0,0,0-2.229,2.832,4.492,4.492,0,0,0,.378,1.46H31.73a2.174,2.174,0,0,1-2.171-2.171v-.338a7.917,7.917,0,0,0,2.715,1.105Zm.175,10.342H18.754a.156.156,0,0,1-.156-.156V91.4a8.634,8.634,0,0,1,8.625-8.625h1.093a3.525,3.525,0,0,0,3.414,2.669h4.137c.066,0,.133,0,.2-.006a2.382,2.382,0,0,0,1.654.747q.072,0,.145-.005a2.125,2.125,0,0,0,.87-.248,7.776,7.776,0,0,0,.555.612v3.483a10.267,10.267,0,0,0-6.73,3.018.674.674,0,0,0-.112-.01Z" transform="translate(0 -56.014)" fill="#fafafa"/>
      <circle id="Ellipse_14" data-name="Ellipse 14" cx="0.996" cy="0.996" r="0.996" transform="translate(29.719 14.92)" fill="#fafafa"/>
      <path id="Path_472" data-name="Path 472" d="M180.695,218.831a.674.674,0,1,0-1.093-.788,1.346,1.346,0,0,1-2.187,0,.674.674,0,0,0-1.093.788,2.694,2.694,0,0,0,4.373,0Z" transform="translate(-144.646 -198.176)" fill="#fafafa"/>
      <path id="Path_473" data-name="Path 473" d="M294.991,10.82a.949.949,0,0,0,1.39.977l2.264-1.221a11.187,11.187,0,0,0,2.273.218,8.386,8.386,0,0,0,4.7-1.2A4.791,4.791,0,0,0,307.7,5.431c0-3.4-2.536-5.431-6.783-5.431a8.558,8.558,0,0,0-4.435,1.058.674.674,0,0,0,.7,1.15,7.24,7.24,0,0,1,3.734-.861c2.03,0,5.436.53,5.436,4.083,0,3.494-3.406,4.015-5.436,4.015a9.554,9.554,0,0,1-2.215-.238.674.674,0,0,0-.477.062l-1.785.963.236-1.572a.674.674,0,0,0-.195-.581,3.556,3.556,0,0,1-1-2.65,4.586,4.586,0,0,1,.132-1.128.674.674,0,1,0-1.306-.332,5.936,5.936,0,0,0-.174,1.46A4.924,4.924,0,0,0,295.3,8.785Z" transform="translate(-251.978)" fill="#fafafa"/>
    </g>
  </g>
</svg>
