<svg xmlns="http://www.w3.org/2000/svg" width="53.973" height="46.054" viewBox="0 0 53.973 46.054">
    <path data-name="Path 468" d="m95.446 247.688-3.309-11.674A20.438 20.438 0 0 0 94 227.447a20.707 20.707 0 0 0-17.567-20.4 20.627 20.627 0 0 0-31.597 24.713l-3.308 11.674a.729.729 0 0 0 .986.871l9.531-4.025a20.451 20.451 0 0 0 8.49 3.317 20.624 20.624 0 0 0 24.4.936l9.532 4.025a.729.729 0 0 0 .985-.871zm-42.9-8.831a.73.73 0 0 0-.705-.076l-8.5 3.59 2.972-10.471a.732.732 0 0 0-.043-.511 18.994 18.994 0 0 1-1.835-8.192 19.17 19.17 0 1 1 8.115 15.664zm32.576 4.177a.731.731 0 0 0-.7.077 19.165 19.165 0 0 1-21.026.71h.212a20.615 20.615 0 0 0 14.941-34.837 19.263 19.263 0 0 1 13.989 18.459 19 19 0 0 1-1.835 8.192.732.732 0 0 0-.043.511l2.968 10.474z" transform="translate(-41.5 -202.562)" style="fill:#0301ad"/>
    <path data-name="Path 469" d="M93.387 247.242v2.55a.729.729 0 0 1-1.459 0v-2.55a4.1 4.1 0 0 1 2.7-3.878 5.679 5.679 0 1 0-7.648-5.327.729.729 0 0 1-1.459 0 7.136 7.136 0 1 1 9.613 6.695 2.62 2.62 0 0 0-1.747 2.51z" transform="translate(-71.288 -221.738)" style="fill:#febe50"/>
    <path data-name="Path 470" d="M106.5 293.053a.729.729 0 0 1-1.025 1.038l-.037-.036a.729.729 0 1 1 1.025-1.038z" transform="translate(-84.621 -263.628)" style="fill:#febe50"/>
</svg>
