<svg xmlns="http://www.w3.org/2000/svg" width="45.948" height="46.054" viewBox="0 0 45.948 46.054">
    <path data-name="Path 374" d="M13.746 52.834V27.14a2.23 2.23 0 0 1 2.231-2.23h-2.746A2.23 2.23 0 0 0 11 27.14v25.694a2.231 2.231 0 0 0 2.231 2.231h2.746a2.231 2.231 0 0 1-2.231-2.231z" transform="translate(-10.451 -23.035)" style="fill:#d9dcff"/>
    <path data-name="Path 375" d="M122.153 333.867h8.365v1.1h-8.365z" transform="translate(-111.43 -303.713)" style="fill:#0301ad"/>
    <path data-name="Path 376" d="M290.7 333.867h7.944v1.1H290.7z" transform="translate(-264.554 -303.713)" style="fill:#0301ad"/>
    <path data-name="Path 377" d="M86.623 233.012h-32.51v-1.419a.549.549 0 1 0-1.1 0v1.419h-3.122a.549.549 0 0 0 0 1.1h3.124v1.419a.549.549 0 0 0 1.1 0v-1.421h32.51a.549.549 0 1 0 0-1.1z" transform="translate(-45.283 -210.301)" style="fill:#0301ad"/>
    <path data-name="Path 378" d="M226.41 95.874a.549.549 0 0 0 .751.2l1.237-.714a.772.772 0 0 0 0-1.337l-7.698-4.442a.772.772 0 0 0-1.158.669v8.884a.773.773 0 0 0 1.158.669l2.252-1.3a.549.549 0 0 0-.549-.951l-1.763 1.018v-7.755l6.716 3.877-.748.432a.549.549 0 0 0-.198.75z" transform="translate(-199.908 -81.693)" style="fill:#0301ad"/>
    <path data-name="Path 379" d="m268.769 160.624-.765.442a.549.549 0 1 0 .549.951l.765-.442a.549.549 0 0 0-.549-.951z" transform="translate(-243.681 -146.26)" style="fill:#0301ad"/>
    <path data-name="Path 380" d="M48.168 4.419H7.779A2.782 2.782 0 0 0 5 7.2v25.692a2.782 2.782 0 0 0 2.776 2.779h.858v-1.1h-.855A1.683 1.683 0 0 1 6.1 32.892V7.2a1.683 1.683 0 0 1 1.679-1.683h40.389A1.683 1.683 0 0 1 49.849 7.2v25.692a1.683 1.683 0 0 1-1.215 1.613v1.126a2.783 2.783 0 0 0 2.313-2.739V7.2a2.782 2.782 0 0 0-2.779-2.779z" style="fill:#0301ad" transform="translate(-5 -4.419)"/>
    <g data-name="Group 209">
        <path data-name="Path 381" d="M200.418 426.8h-4.432a3.3 3.3 0 0 0-3.3 3.3v3.543a.549.549 0 0 0 .549.549h9.923a.549.549 0 0 0 .549-.549V430.1a3.3 3.3 0 0 0-3.289-3.3zm2.2 6.289h-8.825V430.1a2.2 2.2 0 0 1 2.2-2.2h4.432a2.2 2.2 0 0 1 2.2 2.2z" transform="translate(-175.512 -388.14)" style="fill:#febe50"/>
        <path data-name="Path 382" d="M268.153 459.141h-.99a.549.549 0 0 0 0 1.1h.99a.549.549 0 0 0 0-1.1z" transform="translate(-242.669 -417.521)" style="fill:#febe50"/>
        <path data-name="Path 383" d="M30.191 426.8h-4.432a3.3 3.3 0 0 0-3.3 3.3v3.543a.549.549 0 0 0 .549.549h9.924a.549.549 0 0 0 .549-.549V430.1a3.3 3.3 0 0 0-3.29-3.3zm2.2 6.289h-8.829V430.1a2.2 2.2 0 0 1 2.2-2.2h4.432a2.2 2.2 0 0 1 2.2 2.2z" transform="translate(-20.866 -388.14)" style="fill:#febe50"/>
        <path data-name="Path 384" d="M97.925 459.141h-.99a.549.549 0 0 0 0 1.1h.99a.549.549 0 0 0 0-1.1z" transform="translate(-88.022 -417.521)" style="fill:#febe50"/>
        <path data-name="Path 385" d="M364.448 421.875h-4.432a3.3 3.3 0 0 0-3.3 3.3v4a.549.549 0 0 0 .549.549h9.923a.549.549 0 0 0 .549-.549v-4a3.3 3.3 0 0 0-3.289-3.3zm2.2 6.746h-8.825v-3.451a2.2 2.2 0 0 1 2.2-2.2h4.432a2.2 2.2 0 0 1 2.2 2.2z" transform="translate(-324.529 -383.666)" style="fill:#febe50"/>
        <path data-name="Path 386" d="M432.182 454.213h-.99a.549.549 0 1 0 0 1.1h.99a.549.549 0 1 0 0-1.1z" transform="translate(-391.685 -413.044)" style="fill:#febe50"/>
        <path data-name="Path 387" d="M211.634 304.5a4.162 4.162 0 0 0 4.158-4.158v-3.428a4.162 4.162 0 0 0-4.158-4.158h-3.608a.549.549 0 0 0-.549.549v7.037a4.162 4.162 0 0 0 4.157 4.158zm-3.059-10.645h3.059a3.064 3.064 0 0 1 2.913 2.125l-.433.161a1.955 1.955 0 0 1-1.735-.191 3.045 3.045 0 0 0-2.076-.459l-1.728.242zm0 2.987 1.88-.263a1.948 1.948 0 0 1 1.327.293 3.058 3.058 0 0 0 2.714.3l.2-.073v3.246a3.059 3.059 0 1 1-6.119 0z" transform="translate(-188.944 -266.367)" style="fill:#febe50"/>
        <path data-name="Path 388" d="M41.407 304.5a4.162 4.162 0 0 0 4.158-4.158V296.4h.1a.549.549 0 0 0 .549-.549 2.721 2.721 0 0 0-2.714-2.721 2.6 2.6 0 0 1-.754-.113 4.952 4.952 0 0 0-1.336-.258 4.162 4.162 0 0 0-4.158 4.158v3.428a4.162 4.162 0 0 0 4.155 4.155zm3.059-7.692a.974.974 0 0 1-.341-.414h.341zm-6.119.106a3.063 3.063 0 0 1 3.059-3.059 4.172 4.172 0 0 1 1.017.211 3.7 3.7 0 0 0 1.073.161 1.622 1.622 0 0 1 1.523 1.07h-3.7a1.312 1.312 0 0 0-1.311 1.311 1.116 1.116 0 0 1-1.115 1.115h-.548zm0 1.905h.553a2.215 2.215 0 0 0 2.213-2.213.213.213 0 0 1 .213-.213h1.663a2.073 2.073 0 0 0 1.482 1.61v2.339a3.059 3.059 0 0 1-6.119 0z" transform="translate(-34.298 -266.368)" style="fill:#febe50"/>
        <path data-name="Path 389" d="M379.649 299.113h-.855a4.155 4.155 0 0 0-7.285 2.736v2.526a4.157 4.157 0 1 0 8.314.058 2.663 2.663 0 0 0-.174-5.32zm-.923 5.262a3.059 3.059 0 1 1-6.119 0v-1.165h.237a6.749 6.749 0 0 0 4.171-1.459 2.674 2.674 0 0 0 1.711 1.488zm0-2.285a3.074 3.074 0 0 1-1-1.429.549.549 0 0 0-.907-.2 5.636 5.636 0 0 1-3.974 1.655h-.237v-.263a3.059 3.059 0 0 1 6.119 0zm1.1 1.241v-1.482a4.133 4.133 0 0 0-.336-1.637h.161a1.565 1.565 0 0 1 .175 3.119z" transform="translate(-337.963 -270.849)" style="fill:#febe50"/>
    </g>
</svg>
