<svg xmlns="http://www.w3.org/2000/svg" width="86.2" height="86.2" viewBox="0 0 86.2 86.2">
  <g id="Group_320" data-name="Group 320" transform="translate(-260.5 -721.4)">
    <path id="Path_477" data-name="Path 477" d="M22.1,0H64.1A22.1,22.1,0,0,1,86.2,22.1V64.1A22.1,22.1,0,0,1,64.1,86.2H22.1A22.1,22.1,0,0,1,0,64.1V22.1A22.1,22.1,0,0,1,22.1,0Z" transform="translate(260.5 721.4)" fill="#0301ad"/>
    <g id="Group_210" data-name="Group 210" transform="translate(274.8 736.794)">
      <path id="Path_374" data-name="Path 374" d="M13.746,52.834V27.14a2.23,2.23,0,0,1,2.231-2.23H13.231A2.23,2.23,0,0,0,11,27.14V52.834a2.231,2.231,0,0,0,2.231,2.231h2.746A2.231,2.231,0,0,1,13.746,52.834Z" transform="translate(-5.451 -18.616)" fill="#fafafa"/>
      <path id="Path_375" data-name="Path 375" d="M122.153,333.867h8.365v1.1h-8.365Z" transform="translate(-106.43 -299.294)" fill="#fafafa"/>
      <path id="Path_376" data-name="Path 376" d="M290.7,333.867h7.944v1.1H290.7Z" transform="translate(-259.554 -299.294)" fill="#fafafa"/>
      <path id="Path_377" data-name="Path 377" d="M86.623,233.012H54.113v-1.419a.549.549,0,1,0-1.1,0v1.419H49.891a.549.549,0,0,0,0,1.1h3.124v1.419a.549.549,0,0,0,1.1,0V234.11h32.51a.549.549,0,1,0,0-1.1Z" transform="translate(-40.283 -205.882)" fill="#fafafa"/>
      <path id="Path_378" data-name="Path 378" d="M226.41,95.874a.549.549,0,0,0,.751.2l1.237-.714a.772.772,0,0,0,0-1.337L220.7,89.581a.772.772,0,0,0-1.158.669v8.884a.773.773,0,0,0,1.158.669l2.252-1.3a.549.549,0,0,0-.549-.951l-1.763,1.018V90.815l6.716,3.877-.748.432A.549.549,0,0,0,226.41,95.874Z" transform="translate(-194.908 -77.274)" fill="#fafafa"/>
      <path id="Path_379" data-name="Path 379" d="M268.769,160.624l-.765.442a.549.549,0,1,0,.549.951l.765-.442a.549.549,0,0,0-.549-.951Z" transform="translate(-238.681 -141.841)" fill="#fafafa"/>
      <path id="Path_380" data-name="Path 380" d="M48.168,4.419H7.779A2.782,2.782,0,0,0,5,7.2V32.892a2.782,2.782,0,0,0,2.776,2.779h.858v-1.1H7.779A1.683,1.683,0,0,1,6.1,32.892V7.2A1.683,1.683,0,0,1,7.779,5.517H48.168A1.683,1.683,0,0,1,49.849,7.2V32.892a1.683,1.683,0,0,1-1.215,1.613v1.126a2.783,2.783,0,0,0,2.313-2.739V7.2a2.782,2.782,0,0,0-2.779-2.779Z" fill="#fafafa"/>
      <g id="Group_209" data-name="Group 209" transform="translate(6.598 30.81)">
        <path id="Path_381" data-name="Path 381" d="M200.418,426.8h-4.432a3.3,3.3,0,0,0-3.3,3.3v3.543a.549.549,0,0,0,.549.549h9.923a.549.549,0,0,0,.549-.549V430.1A3.3,3.3,0,0,0,200.418,426.8Zm2.2,6.289h-8.825V430.1a2.2,2.2,0,0,1,2.2-2.2h4.432a2.2,2.2,0,0,1,2.2,2.2Z" transform="translate(-177.11 -414.531)" fill="#fafafa"/>
        <path id="Path_382" data-name="Path 382" d="M268.153,459.141h-.99a.549.549,0,0,0,0,1.1h.99a.549.549,0,0,0,0-1.1Z" transform="translate(-244.267 -443.912)" fill="#fafafa"/>
        <path id="Path_383" data-name="Path 383" d="M30.191,426.8H25.759a3.3,3.3,0,0,0-3.3,3.3v3.543a.549.549,0,0,0,.549.549h9.924a.549.549,0,0,0,.549-.549V430.1A3.3,3.3,0,0,0,30.191,426.8Zm2.2,6.289H23.562V430.1a2.2,2.2,0,0,1,2.2-2.2h4.432a2.2,2.2,0,0,1,2.2,2.2Z" transform="translate(-22.464 -414.531)" fill="#fafafa"/>
        <path id="Path_384" data-name="Path 384" d="M97.925,459.141h-.99a.549.549,0,0,0,0,1.1h.99a.549.549,0,0,0,0-1.1Z" transform="translate(-89.62 -443.912)" fill="#fafafa"/>
        <path id="Path_385" data-name="Path 385" d="M364.448,421.875h-4.432a3.3,3.3,0,0,0-3.3,3.3v4a.549.549,0,0,0,.549.549h9.923a.549.549,0,0,0,.549-.549v-4A3.3,3.3,0,0,0,364.448,421.875Zm2.2,6.746h-8.825V425.17a2.2,2.2,0,0,1,2.2-2.2h4.432a2.2,2.2,0,0,1,2.2,2.2Z" transform="translate(-326.127 -410.057)" fill="#fafafa"/>
        <path id="Path_386" data-name="Path 386" d="M432.182,454.213h-.99a.549.549,0,1,0,0,1.1h.99a.549.549,0,1,0,0-1.1Z" transform="translate(-393.283 -439.435)" fill="#fafafa"/>
        <path id="Path_387" data-name="Path 387" d="M211.634,304.5a4.162,4.162,0,0,0,4.158-4.158v-3.428a4.162,4.162,0,0,0-4.158-4.158h-3.608a.549.549,0,0,0-.549.549v7.037A4.162,4.162,0,0,0,211.634,304.5Zm-3.059-10.645h3.059a3.064,3.064,0,0,1,2.913,2.125l-.433.161a1.955,1.955,0,0,1-1.735-.191,3.045,3.045,0,0,0-2.076-.459l-1.728.242Zm0,2.987,1.88-.263a1.948,1.948,0,0,1,1.327.293,3.058,3.058,0,0,0,2.714.3l.2-.073v3.246a3.059,3.059,0,1,1-6.119,0Z" transform="translate(-190.542 -292.758)" fill="#fafafa"/>
        <path id="Path_388" data-name="Path 388" d="M41.407,304.5a4.162,4.162,0,0,0,4.158-4.158V296.4h.1a.549.549,0,0,0,.549-.549A2.721,2.721,0,0,0,43.5,293.13a2.6,2.6,0,0,1-.754-.113,4.952,4.952,0,0,0-1.336-.258,4.162,4.162,0,0,0-4.158,4.158v3.428A4.162,4.162,0,0,0,41.407,304.5Zm3.059-7.692a.974.974,0,0,1-.341-.414h.341Zm-6.119.106a3.063,3.063,0,0,1,3.059-3.059,4.172,4.172,0,0,1,1.017.211,3.7,3.7,0,0,0,1.073.161,1.622,1.622,0,0,1,1.523,1.07h-3.7a1.312,1.312,0,0,0-1.311,1.311,1.116,1.116,0,0,1-1.115,1.115h-.548Zm0,1.905H38.9a2.215,2.215,0,0,0,2.213-2.213.213.213,0,0,1,.213-.213h1.663a2.073,2.073,0,0,0,1.482,1.61v2.339a3.059,3.059,0,0,1-6.119,0Z" transform="translate(-35.896 -292.759)" fill="#fafafa"/>
        <path id="Path_389" data-name="Path 389" d="M379.649,299.113h-.855a4.155,4.155,0,0,0-7.285,2.736v2.526a4.157,4.157,0,1,0,8.314.058,2.663,2.663,0,0,0-.174-5.32Zm-.923,5.262a3.059,3.059,0,1,1-6.119,0V303.21h.237a6.749,6.749,0,0,0,4.171-1.459,2.674,2.674,0,0,0,1.711,1.488Zm0-2.285a3.074,3.074,0,0,1-1-1.429.549.549,0,0,0-.907-.2,5.636,5.636,0,0,1-3.974,1.655h-.237v-.263a3.059,3.059,0,0,1,6.119,0Zm1.1,1.241v-1.482a4.133,4.133,0,0,0-.336-1.637h.161a1.565,1.565,0,0,1,.175,3.119Z" transform="translate(-339.561 -297.24)" fill="#fafafa"/>
      </g>
    </g>
  </g>
</svg>
