<svg id="star_broken" data-name="star/broken" xmlns="http://www.w3.org/2000/svg" width="20" height="20" viewBox="0 0 20 20">
  <g id="vuesax_broken_star" data-name="vuesax/broken/star">
    <g id="star">
      <path id="Vector" d="M14.48,5.215c1.632.271,2.016,1.453.84,2.619l-1.984,1.98a1.731,1.731,0,0,0-.416,1.445l.568,2.451c.448,1.94-.584,2.691-2.3,1.677L8.791,13.973a1.733,1.733,0,0,0-1.584,0L4.815,15.387c-1.712,1.014-2.752.255-2.3-1.677l.568-2.451a1.731,1.731,0,0,0-.416-1.445L.679,7.834c-1.168-1.166-.792-2.347.84-2.619l2.552-.423A1.742,1.742,0,0,0,5.2,3.954l1.408-2.81c.76-1.525,2.008-1.525,2.776,0l1.408,2.81a1.436,1.436,0,0,0,.392.471" transform="translate(2.001 2.078)" fill="none" stroke="#d5d5d5" stroke-linecap="round" stroke-linejoin="round" stroke-width="1.5"/>
      <path id="Vector-2" data-name="Vector" d="M0,0H20V20H0Z" fill="none" opacity="0"/>
    </g>
  </g>
</svg>
