<svg id="notification-status_bold" data-name="notification-status/bold" xmlns="http://www.w3.org/2000/svg" width="24" height="24" viewBox="0 0 24 24">
  <g id="vuesax_bold_notification-status" data-name="vuesax/bold/notification-status">
    <g id="notification-status">
      <path id="Vector" d="M6,3A3,3,0,1,1,3,0,3,3,0,0,1,6,3Z" transform="translate(16 2)" fill="#0301ad"/>
      <path id="Vector-2" data-name="Vector" d="M17.8,6.42c-.02,0-.04.01-.06.01-.1.02-.2.03-.31.05a4.65,4.65,0,0,1-1.33-.07,3.178,3.178,0,0,1-.33-.09,3.436,3.436,0,0,1-.93-.38,4.05,4.05,0,0,1-.35-.21,4.717,4.717,0,0,1-1.22-1.22,4.05,4.05,0,0,1-.21-.35,3.436,3.436,0,0,1-.38-.93,3.178,3.178,0,0,1-.09-.33,4.65,4.65,0,0,1-.07-1.33c.02-.11.03-.21.05-.31,0-.02.01-.04.01-.06A1,1,0,0,0,11.6,0H5.52c-.14,0-.28.01-.41.02s-.23.02-.35.04-.24.03-.35.05a4.769,4.769,0,0,0-4.3,4.3c-.02.11-.04.23-.05.35s-.03.23-.04.35S0,5.38,0,5.52v7.96c0,.14.01.28.02.41s.02.23.04.35.03.24.05.35a4.769,4.769,0,0,0,4.3,4.3c.11.02.23.04.35.05s.23.03.35.04.27.02.41.02h7.96c.14,0,.28-.01.41-.02s.23-.02.35-.04.24-.03.35-.05a4.769,4.769,0,0,0,4.3-4.3c.02-.11.04-.23.05-.35s.03-.23.04-.35.02-.27.02-.41V7.4A1,1,0,0,0,17.8,6.42ZM4.75,9.5h5a.75.75,0,0,1,0,1.5h-5a.75.75,0,0,1,0-1.5Zm9,5.5h-9a.75.75,0,0,1,0-1.5h9a.75.75,0,0,1,0,1.5Z" transform="translate(2 3)" fill="#0301ad"/>
      <path id="Vector-3" data-name="Vector" d="M0,0H24V24H0Z" transform="translate(24 24) rotate(180)" fill="none" opacity="0"/>
    </g>
  </g>
</svg>
