<svg xmlns="http://www.w3.org/2000/svg" width="86.2" height="86.2" viewBox="0 0 86.2 86.2">
  <g id="Group_318" data-name="Group 318" transform="translate(-260.5 -499.4)">
    <path id="Path_475" data-name="Path 475" d="M22.1,0H64.1A22.1,22.1,0,0,1,86.2,22.1V64.1A22.1,22.1,0,0,1,64.1,86.2H22.1A22.1,22.1,0,0,1,0,64.1V22.1A22.1,22.1,0,0,1,22.1,0Z" transform="translate(260.5 499.4)" fill="#0301ad"/>
    <g id="Group_212" data-name="Group 212" transform="translate(230 514)">
      <path id="Path_390" data-name="Path 390" d="M139.3,50.863V14.182A4.182,4.182,0,0,1,143.484,10h-2.752a4.182,4.182,0,0,0-4.182,4.182V50.863a4.182,4.182,0,0,0,4.182,4.181h2.753a4.182,4.182,0,0,1-4.182-4.182Z" transform="translate(-74.069 -4.541)" fill="#fafafa"/>
      <path id="Path_391" data-name="Path 391" d="M152.013,5H135.286a4.737,4.737,0,0,0-4.732,4.732V30.08h1.1V12.373h17.117a.55.55,0,0,0,0-1.1H131.655V9.732A3.635,3.635,0,0,1,135.286,6.1h16.727a3.635,3.635,0,0,1,3.631,3.631v1.54H154.1a.55.55,0,0,0,0,1.1h1.54v2.054h1.1v-4.7A4.737,4.737,0,0,0,152.013,5Z" transform="translate(-68.623)" fill="#fafafa"/>
      <path id="Path_392" data-name="Path 392" d="M155.644,243.047H131.655v-1.509h-1.1v5.405a4.737,4.737,0,0,0,4.732,4.732h16.727a4.737,4.737,0,0,0,4.732-4.732V225.885h-1.1Zm-3.631,7.527H135.286a3.635,3.635,0,0,1-3.631-3.631v-2.795h23.989v2.795A3.635,3.635,0,0,1,152.013,250.574Z" transform="translate(-68.623 -200.621)" fill="#fafafa"/>
      <path id="Path_393" data-name="Path 393" d="M347.29,74.473a.55.55,0,1,0,0-1.1h-1.162a.55.55,0,1,0,0,1.1Z" transform="translate(-263.92 -62.099)" fill="#fafafa"/>
      <path id="Path_394" data-name="Path 394" d="M252.324,436.883A2.119,2.119,0,1,0,254.442,439,2.119,2.119,0,0,0,252.324,436.883Zm0,3.136A1.018,1.018,0,1,1,253.341,439,1.018,1.018,0,0,1,252.324,440.019Z" transform="translate(-177.297 -392.262)" fill="#fafafa"/>
      <g id="Group_211" data-name="Group 211" transform="translate(55 13.877)">
        <path id="Path_395" data-name="Path 395" d="M309.756,289.252A2.752,2.752,0,1,0,307,292,2.752,2.752,0,0,0,309.756,289.252Zm-4.4,0A1.651,1.651,0,1,1,307,290.9,1.651,1.651,0,0,1,305.352,289.252Z" transform="translate(-281.384 -269.552)" fill="#fafafa"/>
        <path id="Path_396" data-name="Path 396" d="M292.471,350.5a4.225,4.225,0,0,0-4.22,4.22.55.55,0,0,0,.55.55h7.339a.55.55,0,0,0,.55-.55A4.225,4.225,0,0,0,292.471,350.5Zm-3.071,3.67a3.119,3.119,0,0,1,6.141,0Z" transform="translate(-266.852 -327.681)" fill="#fafafa"/>
        <path id="Path_397" data-name="Path 397" d="M172.5,121.389a2.752,2.752,0,1,0-2.752-2.752A2.752,2.752,0,0,0,172.5,121.389Zm0-4.4a1.651,1.651,0,1,1-1.651,1.651A1.651,1.651,0,0,1,172.5,116.986Z" transform="translate(-159.222 -114.59)" fill="#fafafa"/>
        <path id="Path_398" data-name="Path 398" d="M154.3,184.656h7.339a.55.55,0,0,0,.55-.55,4.22,4.22,0,0,0-8.44,0A.55.55,0,0,0,154.3,184.656Zm3.67-3.67a3.124,3.124,0,0,1,3.071,2.569H154.9A3.124,3.124,0,0,1,157.969,180.986Z" transform="translate(-144.69 -172.718)" fill="#fafafa"/>
        <path id="Path_399" data-name="Path 399" d="M74.016,279.406a2.605,2.605,0,0,0-.444-.064c-1.047-.1-1.579-.305-1.579-1.166v-3.919a1.877,1.877,0,0,0-1.875-1.875H56.875A1.877,1.877,0,0,0,55,274.257v8.188a1.877,1.877,0,0,0,1.875,1.875H70.119a1.877,1.877,0,0,0,1.875-1.875v-.466a3.1,3.1,0,0,0,2.4-1.773.556.556,0,0,0,.054-.331A.568.568,0,0,0,74.016,279.406Zm-2.3,1.5a1,1,0,0,0-.824,1v.539a.775.775,0,0,1-.774.774H56.875a.775.775,0,0,1-.774-.774v-8.188a.775.775,0,0,1,.774-.774H70.119a.775.775,0,0,1,.774.774v3.919a2.131,2.131,0,0,0,2.039,2.2A2.478,2.478,0,0,1,71.717,280.91Z" transform="translate(-55 -256.729)" fill="#fafafa"/>
        <path id="Path_400" data-name="Path 400" d="M262.576,101.765H249.332a1.877,1.877,0,0,0-1.875,1.875v3.919c0,.861-.532,1.068-1.579,1.166a2.612,2.612,0,0,0-.444.064.568.568,0,0,0-.427.467.556.556,0,0,0,.054.331,3.1,3.1,0,0,0,2.4,1.773v.466a1.877,1.877,0,0,0,1.875,1.875h13.244a1.877,1.877,0,0,0,1.875-1.875V103.64A1.877,1.877,0,0,0,262.576,101.765Zm.774,10.062a.775.775,0,0,1-.774.774H249.332a.775.775,0,0,1-.774-.774v-.539a1,1,0,0,0-.824-1,2.482,2.482,0,0,1-1.215-.538,2.131,2.131,0,0,0,2.039-2.2V103.64a.775.775,0,0,1,.774-.774h13.244a.775.775,0,0,1,.774.774Z" transform="translate(-227.571 -101.765)" fill="#fafafa"/>
        <path id="Path_401" data-name="Path 401" d="M345.842,195.885H339.2a.55.55,0,1,0,0,1.1h6.637a.55.55,0,1,0,0-1.1Z" transform="translate(-312.631 -187.25)" fill="#fafafa"/>
        <path id="Path_402" data-name="Path 402" d="M306.488,195.885h-.938a.55.55,0,1,0,0,1.1h.938a.55.55,0,1,0,0-1.1Z" transform="translate(-282.065 -187.25)" fill="#fafafa"/>
        <path id="Path_403" data-name="Path 403" d="M401.774,162.97h-.988a.55.55,0,1,0,0,1.1h.988a.55.55,0,0,0,0-1.1Z" transform="translate(-368.564 -157.355)" fill="#fafafa"/>
        <path id="Path_404" data-name="Path 404" d="M305.55,164.071H312.1a.55.55,0,1,0,0-1.1H305.55a.55.55,0,1,0,0,1.1Z" transform="translate(-282.065 -157.355)" fill="#fafafa"/>
        <path id="Path_405" data-name="Path 405" d="M357.019,130.056H351.51a.55.55,0,1,0,0,1.1h5.508a.55.55,0,0,0,0-1.1Z" transform="translate(-323.808 -127.461)" fill="#fafafa"/>
        <path id="Path_406" data-name="Path 406" d="M305.55,131.157h2.081a.55.55,0,1,0,0-1.1H305.55a.55.55,0,1,0,0,1.1Z" transform="translate(-282.065 -127.461)" fill="#fafafa"/>
        <path id="Path_407" data-name="Path 407" d="M129.839,364.356H123.2a.55.55,0,1,0,0,1.1h6.637a.55.55,0,1,0,0-1.1Z" transform="translate(-116.445 -340.266)" fill="#fafafa"/>
        <path id="Path_408" data-name="Path 408" d="M90.488,364.356H89.55a.55.55,0,1,0,0,1.1h.937a.55.55,0,1,0,0-1.1Z" transform="translate(-85.881 -340.266)" fill="#fafafa"/>
        <path id="Path_409" data-name="Path 409" d="M185.772,331.442h-.988a.55.55,0,1,0,0,1.1h.988a.55.55,0,0,0,0-1.1Z" transform="translate(-172.378 -310.371)" fill="#fafafa"/>
        <path id="Path_410" data-name="Path 410" d="M89.55,332.543H96.1a.55.55,0,0,0,0-1.1H89.55a.55.55,0,0,0,0,1.1Z" transform="translate(-85.881 -310.371)" fill="#fafafa"/>
        <path id="Path_411" data-name="Path 411" d="M141.017,298.528h-5.508a.55.55,0,0,0,0,1.1h5.508a.55.55,0,0,0,0-1.1Z" transform="translate(-127.623 -280.477)" fill="#fafafa"/>
        <path id="Path_412" data-name="Path 412" d="M89.55,299.629h2.081a.55.55,0,0,0,0-1.1H89.55a.55.55,0,1,0,0,1.1Z" transform="translate(-85.881 -280.477)" fill="#fafafa"/>
      </g>
    </g>
  </g>
</svg>
