<svg id="trash" xmlns="http://www.w3.org/2000/svg" width="24" height="24" viewBox="0 0 24 24">
  <path id="Vector" d="M18,.5C14.67.17,11.32,0,7.98,0A59.068,59.068,0,0,0,2.04.3L0,.5" transform="translate(3 5.48)" fill="none" stroke="#ff4b4b" stroke-linecap="round" stroke-linejoin="round" stroke-width="1.5"/>
  <path id="Vector-2" data-name="Vector" d="M0,2.97.22,1.66C.38.71.5,0,2.19,0H4.81C6.5,0,6.63.75,6.78,1.67L7,2.97" transform="translate(8.5 2)" fill="none" stroke="#ff4b4b" stroke-linecap="round" stroke-linejoin="round" stroke-width="1.5"/>
  <path id="Vector-3" data-name="Vector" d="M10.06,12.86H3.64C.85,12.86.76,11.64.65,10.07L0,0" transform="translate(5.15 9.14)" fill="none" stroke="#ff4b4b" stroke-linecap="round" stroke-linejoin="round" stroke-width="1.5"/>
  <path id="Vector-4" data-name="Vector" d="M.65,0,0,10.07" transform="translate(18.2 9.14)" fill="none" stroke="#ff4b4b" stroke-linecap="round" stroke-linejoin="round" stroke-width="1.5"/>
  <path id="Vector-5" data-name="Vector" d="M0,0H3.33" transform="translate(10.33 16.5)" fill="none" stroke="#ff4b4b" stroke-linecap="round" stroke-linejoin="round" stroke-width="1.5"/>
  <path id="Vector-6" data-name="Vector" d="M0,0H1.68" transform="translate(12.82 12.5)" fill="none" stroke="#ff4b4b" stroke-linecap="round" stroke-linejoin="round" stroke-width="1.5"/>
  <path id="Vector-7" data-name="Vector" d="M0,0H.83" transform="translate(9.5 12.5)" fill="none" stroke="#ff4b4b" stroke-linecap="round" stroke-linejoin="round" stroke-width="1.5"/>
  <path id="Vector-8" data-name="Vector" d="M0,0H24V24H0Z" fill="none" opacity="0"/>
</svg>
