<svg xmlns="http://www.w3.org/2000/svg" width="86.2" height="86.2" viewBox="0 0 86.2 86.2">
  <g id="Group_316" data-name="Group 316" transform="translate(-260.5 -278)">
    <path id="Path_445" data-name="Path 445" d="M22.1,0H64.1A22.1,22.1,0,0,1,86.2,22.1V64.1A22.1,22.1,0,0,1,64.1,86.2H22.1A22.1,22.1,0,0,1,0,64.1V22.1A22.1,22.1,0,0,1,22.1,0Z" transform="translate(260.5 278)" fill="#0301ad"/>
    <g id="Group_216" data-name="Group 216" transform="translate(277.957 295.087)">
      <path id="Path_436" data-name="Path 436" d="M110.044,151.74a5.516,5.516,0,0,0-1.231-.14H108.1a5.5,5.5,0,0,0-5.5,5.5v4.622a5.5,5.5,0,0,0,5.5,5.5h.711a5.514,5.514,0,0,0,1.231-.14,5.5,5.5,0,0,1-4.272-5.363V157.1a5.5,5.5,0,0,1,4.271-5.363Z" transform="translate(-93.178 -136.627)" fill="#fafafa"/>
      <path id="Path_437" data-name="Path 437" d="M30.591,312.972a1.752,1.752,0,0,1-1.752,1.753H26.334a6.836,6.836,0,0,0-6.834,6.837v10.744h3.172V321.563a6.836,6.836,0,0,1,6.835-6.837h2.5c.058,0,.116,0,.173-.009l-1.571-1.767Z" transform="translate(-18.866 -280.915)" fill="#fafafa"/>
      <g id="Group_215" data-name="Group 215" transform="translate(0 14.339)">
        <path id="Path_438" data-name="Path 438" d="M102.738,162.5h.71a6.145,6.145,0,0,0,6.138-6.138v-4.621a6.145,6.145,0,0,0-6.138-6.138h-.71a6.145,6.145,0,0,0-6.138,6.138v4.621A6.145,6.145,0,0,0,102.738,162.5Zm-4.869-10.759a4.875,4.875,0,0,1,4.869-4.869h.71a4.875,4.875,0,0,1,4.869,4.869v4.621a4.874,4.874,0,0,1-4.869,4.869h-.71a4.874,4.874,0,0,1-4.869-4.869Z" transform="translate(-87.813 -145.6)" fill="#fafafa"/>
        <path id="Path_439" data-name="Path 439" d="M36.591,308.727H34.122A1.12,1.12,0,0,1,33,307.608a.634.634,0,0,0-1.246-.17l-1.289,1.289H27.112l-1.39-1.562a.634.634,0,0,0-.923-.027l-.022.022a.634.634,0,0,0-.186.448,1.12,1.12,0,0,1-1.118,1.119h-2.5A7.479,7.479,0,0,0,13.5,316.2v10.744a.634.634,0,0,0,.634.634H43.425a.634.634,0,0,0,.634-.634V316.2A7.479,7.479,0,0,0,36.591,308.727ZM29.844,310l-.569,1.661h-.991L27.715,310Zm.737,11.1-1.826,2.133L26.982,321.1l1.6-8.179h.581Zm12.21,5.214H14.769V316.2a6.208,6.208,0,0,1,6.2-6.2h2.5a2.388,2.388,0,0,0,2.043-1.154l.752.846,1.085,2.906-1.674,8.564a.635.635,0,0,0,.136.529l2.448,2.929a.635.635,0,0,0,.483.228h0a.635.635,0,0,0,.482-.222l2.508-2.93a.635.635,0,0,0,.143-.521l-1.527-8.787.93-2.677.821-.821a2.388,2.388,0,0,0,1.943,1.11h2.542a6.208,6.208,0,0,1,6.2,6.2Z" transform="translate(-13.5 -289.89)" fill="#fafafa"/>
        <path id="Path_440" data-name="Path 440" d="M211.794,393.378h-3.76a.634.634,0,0,0,0,1.269h3.76a.634.634,0,1,0,0-1.269Z" transform="translate(-186.896 -367.177)" fill="#fafafa"/>
      </g>
      <path id="Path_441" data-name="Path 441" d="M331.146,61.753l-7.008-4.048a.846.846,0,0,0-1.269.733v8.1a.846.846,0,0,0,1.269.733l1.2-.695a.634.634,0,1,0-.634-1.1l-.568.328V59.17l5.74,3.315-.375.217a.634.634,0,1,0,.635,1.1l1.009-.583a.846.846,0,0,0,0-1.465Z" transform="translate(-290.155 -52.56)" fill="#fafafa"/>
      <path id="Path_442" data-name="Path 442" d="M356.722,115.158l-1.058.611a.634.634,0,0,0,.635,1.1l1.058-.611a.634.634,0,1,0-.634-1.1Z" transform="translate(-319.198 -103.962)" fill="#fafafa"/>
      <path id="Path_443" data-name="Path 443" d="M249.206,10H228.2a4,4,0,0,0-4,4V26.169a4,4,0,0,0,4,4h4.612v3.777a.634.634,0,0,0,1,.521l6.187-4.3h9.211a4,4,0,0,0,4-4V14a4,4,0,0,0-4-4Zm2.73,16.169a2.734,2.734,0,0,1-2.73,2.732H239.8a.634.634,0,0,0-.362.114l-5.354,3.719v-3.2a.634.634,0,0,0-.634-.634H228.2a2.734,2.734,0,0,1-2.73-2.732V14a2.734,2.734,0,0,1,2.73-2.732h21.008A2.734,2.734,0,0,1,251.937,14Z" transform="translate(-201.92 -10)" fill="#fafafa"/>
    </g>
  </g>
</svg>
