<svg xmlns="http://www.w3.org/2000/svg" width="45.399" height="46.054" viewBox="0 0 45.399 46.054">
    <path data-name="Path 436" d="M109.19 151.724a4.881 4.881 0 0 0-1.09-.124h-.629a4.871 4.871 0 0 0-4.871 4.871v4.092a4.871 4.871 0 0 0 4.871 4.871h.629a4.881 4.881 0 0 0 1.09-.124 4.872 4.872 0 0 1-3.782-4.747v-4.091a4.872 4.872 0 0 1 3.781-4.747z" transform="translate(-94.26 -138.345)" style="fill:#d9dcff"/>
    <path data-name="Path 437" d="M29.318 312.97a1.551 1.551 0 0 1-1.551 1.552H25.55a6.052 6.052 0 0 0-6.05 6.053v9.51h2.808v-9.51a6.052 6.052 0 0 1 6.051-6.053h2.216c.052 0 .1 0 .153-.008l-1.391-1.564z" transform="translate(-18.938 -284.592)" style="fill:#d9dcff"/>
    <g data-name="Group 215">
        <path data-name="Path 438" d="M102.033 160.557h.628a5.439 5.439 0 0 0 5.433-5.433v-4.091a5.439 5.439 0 0 0-5.433-5.433h-.628a5.439 5.439 0 0 0-5.433 5.433v4.091a5.439 5.439 0 0 0 5.433 5.433zm-4.31-9.524a4.315 4.315 0 0 1 4.31-4.31h.628a4.315 4.315 0 0 1 4.31 4.31v4.091a4.315 4.315 0 0 1-4.31 4.31h-.628a4.315 4.315 0 0 1-4.31-4.31z" transform="translate(-88.821 -132.907)" style="fill:#0301ad"/>
        <path data-name="Path 439" d="M33.94 308.523h-2.185a.991.991 0 0 1-.99-.99.562.562 0 0 0-1.1-.151l-1.141 1.141h-2.975l-1.23-1.383a.562.562 0 0 0-.817-.024l-.02.02a.562.562 0 0 0-.164.4.991.991 0 0 1-.99.99h-2.216a6.62 6.62 0 0 0-6.612 6.614v9.51a.562.562 0 0 0 .562.562H39.99a.562.562 0 0 0 .562-.562v-9.51a6.62 6.62 0 0 0-6.612-6.617zm-5.972 1.123-.5 1.471h-.877l-.5-1.471zm.652 9.824L27 321.359l-1.57-1.879 1.415-7.24h.514zm10.808 4.616H14.623v-8.949a5.5 5.5 0 0 1 5.488-5.491h2.217a2.114 2.114 0 0 0 1.808-1.021l.666.749.96 2.572-1.482 7.581a.562.562 0 0 0 .12.468l2.167 2.593a.562.562 0 0 0 .428.2.562.562 0 0 0 .427-.2L29.646 320a.562.562 0 0 0 .127-.461l-1.352-7.779.823-2.369.726-.727a2.114 2.114 0 0 0 1.72.982h2.25a5.5 5.5 0 0 1 5.489 5.491z" transform="translate(-13.5 -279.155)" style="fill:#0301ad"/>
        <path data-name="Path 440" d="M211.29 393.378h-3.328a.562.562 0 1 0 0 1.123h3.328a.562.562 0 1 0 0-1.123z" transform="translate(-189.25 -357.492)" style="fill:#0301ad"/>
    </g>
    <path data-name="Path 441" d="m330.2 61.276-6.2-3.583a.749.749 0 0 0-1.123.648v7.166a.749.749 0 0 0 1.123.649l1.065-.615a.562.562 0 1 0-.562-.973l-.5.29v-5.869l5.081 2.934-.332.192a.562.562 0 1 0 .562.973l.894-.516a.749.749 0 0 0 0-1.3z" transform="translate(-293.91 -53.137)" style="fill:#febe50"/>
    <path data-name="Path 442" d="m356.564 115.148-.937.541a.562.562 0 1 0 .562.973l.937-.541a.562.562 0 1 0-.562-.973z" transform="translate(-323.347 -105.238)" style="fill:#febe50"/>
    <path data-name="Path 443" d="M246.336 10h-18.6a3.545 3.545 0 0 0-3.54 3.541v10.772a3.545 3.545 0 0 0 3.54 3.541h4.083V31.2a.562.562 0 0 0 .882.461l5.477-3.8h8.154a3.545 3.545 0 0 0 3.54-3.541V13.541A3.545 3.545 0 0 0 246.336 10zm2.417 14.313a2.42 2.42 0 0 1-2.417 2.418h-8.33a.561.561 0 0 0-.321.1l-4.739 3.292v-2.83a.562.562 0 0 0-.562-.562h-4.644a2.42 2.42 0 0 1-2.417-2.418V13.541a2.42 2.42 0 0 1 2.417-2.418h18.6a2.42 2.42 0 0 1 2.417 2.418z" transform="translate(-204.477 -10)" style="fill:#febe50"/>
</svg>
